SplineFontDB: 3.0
FontName: Muktamsiddham
FullName: Muktamsiddham
FamilyName: Muktamsiddham
Weight: Medium
Copyright: Copyright (c) 2011-2012, 2014-2015, MihailJP, with Reserved Font Name Muktamsiddham.\nLatin glyphs Copyright (c) 1999 by George Williams,\nwith Reserved Font Name Peignot.
UComments: "Font preparation:+AAoA-1. Select all and expand their strokes.+AAoA     Elliptical, width 100:40,+AAoA     Angle -30, square cap, round join.+AAoA-2. Add extrema and round to int.+AAoA-3. Simplify and round to int.+AAoA-4. Remove overlaps and round to int.+AAoA-5. Redo 3.+AAoA-6. Redo 2."
Version: 1.1.1
StrokeWidth: 70
ItalicAngle: 0
UnderlinePosition: -100
UnderlineWidth: 50
Ascent: 800
Descent: 200
InvalidEm: 0
LayerCount: 2
Layer: 0 0 "Background" 1
Layer: 1 0 "Foreground" 0
StrokedFont: 1
XUID: [1021 631 1514651636 13251322]
FSType: 8
OS2Version: 4
OS2_WeightWidthSlopeOnly: 0
OS2_UseTypoMetrics: 1
CreationTime: 1403457195
ModificationTime: 1429278704
PfmFamily: 17
TTFWeight: 500
TTFWidth: 5
LineGap: 90
VLineGap: 0
OS2TypoAscent: 0
OS2TypoAOffset: 1
OS2TypoDescent: 0
OS2TypoDOffset: 1
OS2TypoLinegap: 90
OS2WinAscent: 200
OS2WinAOffset: 1
OS2WinDescent: 200
OS2WinDOffset: 1
HheadAscent: 0
HheadAOffset: 1
HheadDescent: 0
HheadDOffset: 1
OS2Vendor: 'PfEd'
Lookup: 2 0 0 "RRT oT auT Decomposition" { "RRT oT auT Decomposition-1"  } [' RQD' ('deva' <'dflt' > ) 'psts' ('deva' <'dflt' > ) ]
Lookup: 4 0 0 "kSa" { "kSa-1"  } ['akhn' ('deva' <'dflt' > ) ]
Lookup: 4 0 0 "Nukta Forms" { "Nukta Forms-1"  } ['nukt' ('deva' <'dflt' > ) ]
Lookup: 4 0 0 "repha" { "repha-1"  } ['rphf' ('deva' <'dflt' > ) ]
Lookup: 4 0 0 "raphala" { "raphala-1"  } ['blwf' ('deva' <'dflt' > ) ]
Lookup: 4 0 0 "ravattu Conjunction" { "ravattu Conjunction-1"  } ['vatu' ('deva' <'dflt' > ) ]
Lookup: 5 0 0 "iT Contextual Forms" { "iT Contextual Forms-1"  } ['pres' ('deva' <'dflt' > ) ]
Lookup: 5 0 0 "uT UT RT Contextual Forms" { "uT UT RT Contextual Forms-1"  } ['blws' ('deva' <'dflt' > ) ]

StartChar: akAra
Encoding: 0 2309 0
Width: 824
VWidth: 0
Flags: W
AnchorPoint: "bindu" 407 740 basechar 0
LayerCount: 2
Back
Fore
SplineSet
626 594 m 24
 616 574 602 565 601 543 c 16
 594 446 593 373 593 296 c 0
 593 244 594 189 594 123 c 2
 594 115 l 2
 594 46 588 26 577 26 c 0
 568 26 556 40 544 48 c 0
 517 66 510 81 488 102 c 25
 514 67 524 42 556 12 c 24
 609 -36 640 -60 705 -96 c 1032
350 402 m 16
 350 328 364 272 364 212 c 0
 364 182 361 151 350 117 c 0
 331 56 291 27 242 27 c 2
 235 27 l 1
 197 29 120 41 120 86 c 0
 120 98 125 112 138 129 c 1024
183 579 m 25
 224 480 l 17
 221 502 205 525 205 541 c 0
 205 555 223 562 234 562 c 0
 258 562 279 539 307 539 c 0
 309 539 311 540 314 540 c 8
 364 548 390 571 438 591 c 25
 385 552 327 566 303 492 c 0
 229 261 233 369 147 276 c 1
 296 366 246 462 325 465 c 1
 329 465 l 2
 405 465 491 376 551 273 c 1032
EndSplineSet
EndChar

StartChar: AkAra
Encoding: 1 2310 1
Width: 899
VWidth: 0
Flags: W
AnchorPoint: "bindu" 450 740 basechar 0
LayerCount: 2
Back
Fore
SplineSet
626 594 m 24
 616 574 602 565 601 543 c 16
 594 446 593 373 593 296 c 0
 593 244 594 189 594 123 c 2
 594 115 l 2
 594 46 588 26 577 26 c 0
 568 26 556 40 544 48 c 0
 517 66 510 81 488 102 c 25
 514 67 524 42 556 12 c 24
 609 -36 640 -60 705 -96 c 1032
350 402 m 16
 350 328 364 272 364 212 c 0
 364 182 361 151 350 117 c 0
 331 56 291 27 242 27 c 2
 235 27 l 1
 197 29 120 41 120 86 c 0
 120 98 125 112 138 129 c 1024
183 579 m 25
 224 480 l 17
 221 502 205 525 205 541 c 0
 205 555 223 562 234 562 c 0
 258 562 279 539 307 539 c 0
 309 539 311 540 314 540 c 8
 364 548 390 571 438 591 c 25
 385 552 327 566 303 492 c 0
 229 261 233 369 147 276 c 1
 296 366 246 462 325 465 c 1
 329 465 l 2
 405 465 491 376 551 273 c 1032
734 522 m 16
 668 516 623 516 623 460 c 2
 623 453 l 1
 626 402 719 345 779 315 c 1024
EndSplineSet
EndChar

StartChar: it
Encoding: 2 2311 2
Width: 843
VWidth: 0
Flags: W
AnchorPoint: "bindu" 442 740 basechar 0
LayerCount: 2
Back
Fore
SplineSet
604 352 m 0
 561 352 511 377 511 426 c 0
 511 479 591 514 627 573 c 1
 655 520 723 483 723 437 c 0
 723 428 720 418 714 408 c 0
 692 372 647 352 604 352 c 0
387 138 m 16
 371 160 336 173 336 193 c 0
 336 197 337 200 339 204 c 0
 362 244 396 269 439 269 c 0
 446 269 452 268 459 267 c 0
 514 257 574 226 574 173 c 0
 574 169 574 166 573 162 c 0
 560 80 510 -1 432 -1 c 0
 427 -1 422 -1 417 0 c 8
 274 18 219 81 120 219 c 1024
277 358 m 0
 234 358 184 383 184 432 c 0
 184 485 264 520 300 579 c 1
 328 526 396 489 396 443 c 0
 396 434 393 424 387 414 c 0
 365 378 320 358 277 358 c 0
EndSplineSet
EndChar

StartChar: It
Encoding: 3 2312 3
Width: 779
VWidth: 0
Flags: W
AnchorPoint: "bindu" 396 740 basechar 0
LayerCount: 2
Back
Fore
SplineSet
540 349 m 0
 497 349 447 374 447 423 c 0
 447 476 527 511 563 570 c 1
 591 517 659 480 659 434 c 0
 659 425 656 415 650 405 c 0
 628 369 583 349 540 349 c 0
317 144 m 16
 303 163 272 174 272 191 c 0
 272 194 273 198 275 201 c 0
 300 239 333 266 376 266 c 0
 382 266 388 265 395 264 c 8
 454 253 479 212 509 159 c 16
 513 151 515 145 515 138 c 0
 515 96 437 74 437 32 c 0
 437 4 473 -34 596 -93 c 1024
213 355 m 0
 170 355 120 380 120 429 c 0
 120 482 200 517 236 576 c 1
 264 523 332 486 332 440 c 0
 332 431 329 421 323 411 c 0
 301 375 256 355 213 355 c 0
EndSplineSet
EndChar

StartChar: ut
Encoding: 4 2313 4
Width: 765
VWidth: 0
Flags: W
AnchorPoint: "bindu" 433 740 basechar 0
LayerCount: 2
Back
Fore
SplineSet
282 555 m 25
 345 465 l 17
 363 510 354 555 387 555 c 0
 446 555 423 519 448 519 c 2
 450 519 l 9
 523 524 560 552 630 573 c 25
 569 525 531 503 474 450 c 24
 409 389 379 348 318 282 c 25
 366 318 377 375 441 375 c 0
 508 375 645 324 645 223 c 0
 645 111 556 16 444 15 c 1
 442 15 l 2
 293 15 246 141 120 222 c 1032
EndSplineSet
EndChar

StartChar: Ut
Encoding: 5 2314 5
Width: 927
VWidth: 0
Flags: W
AnchorPoint: "bindu" 433 740 basechar 0
LayerCount: 2
Back
Fore
SplineSet
282 555 m 25
 345 465 l 17
 363 510 351 555 396 558 c 1
 403 558 l 2
 452 558 426 519 448 519 c 2
 450 519 l 9
 523 524 560 552 630 573 c 25
 569 525 531 503 474 450 c 24
 409 389 379 348 318 282 c 25
 366 318 377 375 441 375 c 0
 508 375 645 324 645 223 c 0
 645 111 556 16 444 15 c 1
 442 15 l 2
 293 15 246 141 120 222 c 1032
645 225 m 24
 672 217 690 219 714 204 c 24
 754 179 771 156 807 126 c 1048
EndSplineSet
EndChar

StartChar: Rt
Encoding: 6 2315 6
Width: 663
VWidth: 0
Flags: W
AnchorPoint: "bindu" 316 740 basechar 0
LayerCount: 2
Back
Fore
SplineSet
138 333 m 16
 171 339 209 343 249 343 c 0
 292 343 339 338 387 324 c 8
 437 310 447 269 486 234 c 25
 466 271 435 270 435 330 c 0
 435 408 519 408 543 411 c 1032
120 582 m 25
 150 510 l 25
 164 537 157 570 186 579 c 16
 188 580 190 580 192 580 c 0
 215 580 222 540 249 540 c 8
 313 541 346 566 408 582 c 25
 361 547 290 550 288 492 c 0
 285 392 284 341 284 294 c 0
 284 247 285 204 285 120 c 0
 285 97 277 88 266 88 c 0
 239 88 189 137 153 162 c 9
 213 109 242 74 306 27 c 24
 361 -13 398 -26 456 -60 c 1048
EndSplineSet
EndChar

StartChar: RRt
Encoding: 7 2400 7
Width: 794
VWidth: 0
Flags: W
AnchorPoint: "bindu" 287 740 basechar 0
LayerCount: 2
Back
Fore
SplineSet
138 330 m 16
 171 336 209 340 249 340 c 0
 292 340 339 335 387 321 c 8
 437 307 447 266 486 231 c 25
 466 268 435 267 435 327 c 0
 435 405 519 405 543 408 c 1
 550 408 l 2
 575 408 597 403 608 380 c 8
 651 291 653 234 674 136 c 1024
120 579 m 25
 150 507 l 25
 168 535 163 569 195 579 c 16
 197 580 198 580 200 580 c 0
 221 580 224 537 249 537 c 8
 313 537 346 563 408 579 c 25
 361 544 290 547 288 489 c 0
 285 389 284 338 284 291 c 0
 284 244 285 201 285 117 c 0
 285 94 277 85 266 85 c 0
 239 85 189 134 153 159 c 9
 213 106 242 71 306 24 c 24
 361 -16 398 -29 456 -63 c 1048
EndSplineSet
EndChar

StartChar: Lt
Encoding: 8 2316 8
Width: 694
VWidth: 0
Flags: W
AnchorPoint: "bindu" 273 740 basechar 0
LayerCount: 2
Back
Fore
SplineSet
169 351 m 16
 154 393 120 420 120 457 c 0
 120 464 121 472 124 480 c 0
 145 540 182 598 240 598 c 0
 245 598 250 598 256 597 c 8
 349 580 399 516 427 426 c 16
 438 392 442 359 442 329 c 0
 442 258 421 195 421 123 c 0
 421 95 424 65 433 33 c 8
 453 -40 519 -48 574 -99 c 1048
EndSplineSet
EndChar

StartChar: LLt
Encoding: 9 2401 9
Width: 724
VWidth: 0
Flags: W
AnchorPoint: "bindu" 273 740 basechar 0
LayerCount: 2
Back
Fore
SplineSet
442 321 m 24
 469 313 487 315 511 300 c 24
 551 275 568 252 604 222 c 1048
169 351 m 16
 154 393 120 420 120 457 c 0
 120 464 121 472 124 480 c 0
 145 540 182 598 240 598 c 0
 245 598 250 598 256 597 c 8
 349 580 399 516 427 426 c 16
 438 392 442 359 442 329 c 0
 442 258 421 195 421 123 c 0
 421 95 424 65 433 33 c 8
 453 -40 519 -48 574 -99 c 1048
EndSplineSet
EndChar

StartChar: et
Encoding: 10 2319 10
Width: 909
VWidth: 0
Flags: W
AnchorPoint: "bindu" 463 740 basechar 0
LayerCount: 2
Back
Fore
SplineSet
297 543 m 25
 333 441 l 17
 354 477 318 537 417 543 c 1
 422 543 l 2
 481 543 469 483 532 483 c 0
 540 483 550 484 561 486 c 0
 665 508 700 539 789 573 c 25
 714 450 657 389 597 258 c 24
 554 163 555 101 528 0 c 25
 460 87 441 139 354 222 c 0
 291 282 211 324 120 390 c 1048
EndSplineSet
EndChar

StartChar: ait
Encoding: 11 2320 11
Width: 909
VWidth: 0
Flags: W
AnchorPoint: "bindu" 463 740 basechar 0
LayerCount: 2
Back
Fore
SplineSet
567 414 m 0
 556 477 564 480 514 519 c 0
 501 529 478 524 462 539 c 16
 448 552 432 565 432 582 c 0
 432 586 433 590 435 594 c 0
 450 624 475 639 507 639 c 0
 508 639 509 639 510 639 c 8
 551 638 590 598 603 588 c 1024
303 471 m 25
 339 369 l 17
 360 405 363 456 429 462 c 0
 432 462 435 462 438 462 c 0
 491 462 477 410 536 410 c 0
 545 410 555 411 567 414 c 0
 671 436 702 511 789 573 c 25
 714 450 657 389 597 258 c 24
 554 163 555 101 528 0 c 25
 460 87 441 139 354 222 c 0
 291 282 211 324 120 390 c 1048
EndSplineSet
EndChar

StartChar: ot
Encoding: 12 2323 12
Width: 765
VWidth: 0
Flags: W
AnchorPoint: "bindu" 433 740 basechar 0
LayerCount: 2
Back
Fore
SplineSet
189 549 m 25
 252 459 l 17
 270 507 261 537 315 537 c 0
 391 537 357 505 406 505 c 0
 413 505 421 505 432 507 c 0
 542 522 553 547 630 573 c 25
 582 511 560 471 507 414 c 24
 449 352 408 324 345 267 c 25
 395 295 410 339 474 339 c 0
 538 339 645 307 645 232 c 2
 645 225 l 9
 635 112 557 16 444 15 c 17
 442 15 l 2
 293 15 246 141 120 222 c 1032
EndSplineSet
EndChar

StartChar: aut
Encoding: 13 2324 13
Width: 927
VWidth: 0
Flags: W
AnchorPoint: "bindu" 433 740 basechar 0
LayerCount: 2
Back
Fore
SplineSet
189 549 m 25
 252 459 l 17
 270 507 252 534 309 537 c 0
 313 537 317 537 321 537 c 0
 383 537 358 505 407 505 c 0
 414 505 422 506 432 507 c 0
 542 522 553 547 630 573 c 25
 582 511 560 471 507 414 c 24
 449 352 408 324 345 267 c 25
 395 295 410 339 474 339 c 0
 538 339 645 307 645 232 c 2
 645 225 l 9
 635 112 557 16 444 15 c 17
 442 15 l 2
 293 15 246 141 120 222 c 1032
645 225 m 24
 672 217 690 219 714 204 c 24
 754 179 771 156 807 126 c 1048
EndSplineSet
EndChar

StartChar: anusvAra
Encoding: 14 2306 14
Width: 0
VWidth: 0
GlyphClass: 4
Flags: W
AnchorPoint: "bindumark" -235 740 mark 0
AnchorPoint: "bindu" -235 740 mark 0
LayerCount: 2
Back
Fore
SplineSet
-235 785 m 24
 -210 785 -190 765 -190 740 c 24
 -190 715 -210 695 -235 695 c 24
 -260 695 -280 715 -280 740 c 24
 -280 765 -260 785 -235 785 c 24
EndSplineSet
EndChar

StartChar: visarga
Encoding: 16 2307 16
Width: 210
VWidth: 0
GlyphClass: 4
Flags: W
LayerCount: 2
Back
Fore
SplineSet
45 510 m 24
 70 510 90 490 90 465 c 24
 90 440 70 420 45 420 c 24
 20 420 0 440 0 465 c 24
 0 490 20 510 45 510 c 24
45 235 m 24
 70 235 90 215 90 190 c 24
 90 165 70 145 45 145 c 24
 20 145 0 165 0 190 c 24
 0 215 20 235 45 235 c 24
EndSplineSet
EndChar

StartChar: ka
Encoding: 17 2325 17
Width: 759
VWidth: 0
Flags: W
AnchorPoint: "virama" 340 -120 basechar 0
AnchorPoint: "repha" 297 516 basechar 0
AnchorPoint: "aakaara" 498 576 basechar 0
AnchorPoint: "iikaara" 498 576 basechar 0
AnchorPoint: "ekaara" 156 549 basechar 0
AnchorPoint: "bindu" 340 740 basechar 0
LayerCount: 2
Back
Fore
SplineSet
156 549 m 25
 210 477 l 17
 224 484 229 491 229 498 c 0
 229 516 199 534 199 542 c 0
 199 544 202 546 207 546 c 0
 219 547 229 547 236 547 c 0
 252 547 256 545 256 542 c 0
 256 538 246 532 246 526 c 0
 246 521 256 516 297 516 c 0
 379 516 420 553 498 576 c 25
 431 530 353 535 327 459 c 16
 304 392 298 334 298 277 c 0
 298 208 307 141 307 60 c 0
 307 45 307 31 306 15 c 9
 232 55 120 31 120 117 c 0
 120 245 189 332 303 393 c 0
 314 399 325 402 336 402 c 0
 385 402 428 346 456 294 c 0
 473 262 477 232 477 202 c 0
 477 178 474 154 474 129 c 0
 474 101 478 73 492 42 c 8
 525 -29 582 -42 639 -96 c 1048
EndSplineSet
Substitution2: "Contextual Form 0001-1" ka.0001
EndChar

StartChar: kha
Encoding: 18 2326 18
Width: 894
VWidth: 0
Flags: W
AnchorPoint: "virama" 436 -120 basechar 0
AnchorPoint: "repha" 456 483 basechar 0
AnchorPoint: "aakaara" 765 591 basechar 0
AnchorPoint: "iikaara" 765 591 basechar 0
AnchorPoint: "ekaara" 264 537 basechar 0
AnchorPoint: "bindu" 436 740 basechar 0
LayerCount: 2
Back
Fore
SplineSet
531 459 m 24
 502 422 472 408 456 363 c 16
 440 316 431 281 431 240 c 0
 431 224 432 206 435 186 c 8
 439 160 462 145 489 144 c 17
 494 144 l 2
 535 144 557 167 597 180 c 1032
639 501 m 24
 632 460 622 438 621 396 c 16
 620 315 610 253 610 189 c 0
 610 143 615 95 633 39 c 8
 655 -30 719 -34 774 -81 c 1048
264 330 m 0
 283 300 290 249 290 197 c 0
 290 119 274 38 258 18 c 1024
312 414 m 0
 243 342 240 276 120 258 c 1024
297 405 m 16
 249 411 231 441 231 471 c 0
 231 506 256 547 293 547 c 0
 337 547 375 483 456 483 c 0
 549 483 681 528 765 591 c 1032
EndSplineSet
Substitution2: "Contextual Form 0001-1" kha.0001
EndChar

StartChar: ga
Encoding: 19 2327 19
Width: 894
VWidth: 0
Flags: W
AnchorPoint: "virama" 436 -120 basechar 0
AnchorPoint: "repha" 456 483 basechar 0
AnchorPoint: "aakaara" 765 591 basechar 0
AnchorPoint: "iikaara" 765 591 basechar 0
AnchorPoint: "ekaara" 264 537 basechar 0
AnchorPoint: "bindu" 436 740 basechar 0
LayerCount: 2
Back
Fore
SplineSet
639 501 m 24
 632 460 622 438 621 396 c 16
 620 315 610 253 610 189 c 0
 610 143 615 95 633 39 c 8
 655 -30 719 -34 774 -81 c 1048
264 330 m 0
 283 300 290 249 290 197 c 0
 290 119 274 38 258 18 c 1024
312 414 m 0
 243 342 240 276 120 258 c 1024
297 405 m 16
 249 411 231 441 231 471 c 0
 231 506 256 547 293 547 c 0
 337 547 375 483 456 483 c 0
 549 483 681 528 765 591 c 1032
EndSplineSet
Substitution2: "Contextual Form 0001-1" ga.0001
EndChar

StartChar: gha
Encoding: 20 2328 20
Width: 846
VWidth: 0
Flags: W
AnchorPoint: "virama" 418 -120 basechar 0
AnchorPoint: "repha" 468 570 basechar 0
AnchorPoint: "aakaara" 666 585 basechar 0
AnchorPoint: "iikaara" 666 585 basechar 0
AnchorPoint: "ekaara" 120 555 basechar 0
AnchorPoint: "bindu" 418 740 basechar 0
LayerCount: 2
Back
Fore
SplineSet
666 585 m 25
 615 549 l 17
 615 69 l 2
 615 -48 675 -60 726 -90 c 1024
120 555 m 25
 159 462 l 17
 154 489 130 514 130 535 c 0
 130 544 139 559 152 559 c 0
 174 559 188 507 218 507 c 2
 219 507 l 9
 260 509 250 538 306 564 c 9
 265 523 220 514 201 459 c 16
 190 428 187 403 187 378 c 0
 187 341 194 305 198 252 c 0
 200 221 233 207 264 207 c 0
 266 207 268 207 270 207 c 8
 315 209 354 220 372 261 c 24
 415 361 396 429 411 537 c 1040
615 528 m 16
 614 509 614 492 614 474 c 0
 614 423 616 376 616 332 c 0
 616 284 614 239 603 195 c 0
 594 157 560 133 523 133 c 0
 517 133 510 134 504 135 c 8
 449 147 419 186 405 240 c 16
 404 244 401 289 401 348 c 0
 401 404 404 472 414 525 c 8
 419 552 447 552 468 570 c 1048
EndSplineSet
Substitution2: "Contextual Form 0001-1" gha.0001
EndChar

StartChar: Ga
Encoding: 21 2329 21
Width: 810
VWidth: 0
Flags: W
AnchorPoint: "virama" 406 -120 basechar 0
AnchorPoint: "repha" 387 507 basechar 0
AnchorPoint: "aakaara" 690 378 basechar 0
AnchorPoint: "iikaara" 645 585 basechar 0
AnchorPoint: "ekaara" 183 561 basechar 0
AnchorPoint: "bindu" 406 740 basechar 0
LayerCount: 2
Back
Fore
SplineSet
645 585 m 16
 579 579 534 579 534 523 c 2
 534 516 l 1
 537 465 630 408 690 378 c 1024
183 561 m 25
 324 438 l 17
 304 467 295 492 295 510 c 0
 295 535 311 549 339 549 c 0
 352 549 355 546 355 541 c 0
 355 535 349 526 349 519 c 0
 349 512 355 507 380 507 c 2
 387 507 l 1
 478 510 489 552 543 585 c 9
 456 516 410 474 321 408 c 24
 245 351 198 324 120 270 c 25
 198 233 247 220 321 174 c 24
 418 114 507 51 555 0 c 1032
EndSplineSet
Substitution2: "Contextual Form 0001-1" Ga.0001
EndChar

StartChar: ca
Encoding: 22 2330 22
Width: 672
VWidth: 0
Flags: W
AnchorPoint: "virama" 334 -120 basechar 0
AnchorPoint: "repha" 387 543 basechar 0
AnchorPoint: "aakaara" 552 606 basechar 0
AnchorPoint: "iikaara" 552 606 basechar 0
AnchorPoint: "ekaara" 198 588 basechar 0
AnchorPoint: "bindu" 384 740 basechar 0
LayerCount: 2
Back
Fore
SplineSet
408 528 m 24
 369 474 357 435 309 390 c 24
 243 329 194 309 120 258 c 25
 182 242 222 246 279 216 c 24
 325 192 338 159 375 123 c 1048
198 588 m 25
 228 519 l 25
 247 547 243 586 276 591 c 16
 279 591 282 592 284 592 c 0
 324 592 341 543 383 543 c 2
 387 543 l 9
 456 547 488 581 552 606 c 25
 501 569 425 573 420 510 c 0
 408 348 401 272 401 125 c 0
 401 96 402 63 402 27 c 0
 403 -36 479 -48 528 -96 c 1048
EndSplineSet
Substitution2: "Contextual Form 0001-1" ca.0001
EndChar

StartChar: cha
Encoding: 23 2331 23
Width: 813
VWidth: 0
Flags: W
AnchorPoint: "virama" 400 -120 basechar 0
AnchorPoint: "repha" 402 570 basechar 0
AnchorPoint: "aakaara" 546 612 basechar 0
AnchorPoint: "iikaara" 546 612 basechar 0
AnchorPoint: "ekaara" 264 597 basechar 0
AnchorPoint: "bindu" 400 740 basechar 0
LayerCount: 2
Back
Fore
SplineSet
357 327 m 16
 312 351 291 390 242 390 c 2
 237 390 l 9
 181 387 120 366 120 308 c 0
 120 251 163 194 217 194 c 0
 222 194 226 194 231 195 c 8
 375 220 409 357 552 387 c 16
 560 389 569 390 577 390 c 0
 634 390 693 352 693 297 c 0
 693 295 693 293 693 291 c 8
 687 220 608 199 537 195 c 17
 533 195 l 2
 483 195 466 245 423 276 c 1032
264 597 m 25
 294 528 l 25
 308 556 301 589 330 600 c 16
 333 601 336 602 339 602 c 0
 361 602 375 570 400 570 c 2
 402 570 l 9
 460 573 490 596 546 612 c 25
 489 572 404 573 399 510 c 0
 395 452 393 413 393 379 c 0
 393 299 402 256 405 102 c 0
 408 -45 456 -33 522 -90 c 1024
EndSplineSet
Substitution2: "Contextual Form 0001-1" cha.0001
EndChar

StartChar: ja
Encoding: 24 2332 24
Width: 810
VWidth: 0
Flags: W
AnchorPoint: "virama" 406 -120 basechar 0
AnchorPoint: "bindu" 406 740 basechar 0
AnchorPoint: "ekaara" 183 561 basechar 0
AnchorPoint: "iikaara" 645 585 basechar 0
AnchorPoint: "aakaara" 690 378 basechar 0
AnchorPoint: "repha" 387 507 basechar 0
LayerCount: 2
Back
Fore
SplineSet
183 561 m 25
 324 438 l 17
 304 467 295 492 295 510 c 0
 295 535 311 549 339 549 c 0
 352 549 355 546 355 541 c 0
 355 535 349 526 349 519 c 0
 349 512 355 507 380 507 c 2
 387 507 l 1
 478 510 489 552 543 585 c 9
 456 516 410 474 321 408 c 24
 245 351 198 324 120 270 c 25
 198 233 247 220 321 174 c 24
 418 114 507 51 555 0 c 1032
645 585 m 16
 579 579 534 579 534 523 c 2
 534 516 l 1
 537 465 630 408 690 378 c 1024
351 402 m 24
 394 374 422 362 462 330 c 24
 524 281 554 248 612 195 c 1048
EndSplineSet
Substitution2: "Contextual Form 0001-1" ja.0001
EndChar

StartChar: jha
Encoding: 25 2333 25
Width: 663
VWidth: 0
Flags: W
AnchorPoint: "virama" 316 -120 basechar 0
AnchorPoint: "repha" 249 540 basechar 0
AnchorPoint: "aakaara" 543 411 basechar 0
AnchorPoint: "ekaara" 120 582 basechar 0
AnchorPoint: "iikaara" 408 582 basechar 0
AnchorPoint: "bindu" 316 740 basechar 0
LayerCount: 2
Back
Fore
SplineSet
120 582 m 25
 150 510 l 25
 163 538 153 573 183 582 c 16
 185 583 188 583 190 583 c 0
 214 583 221 540 249 540 c 8
 313 540 346 566 408 582 c 25
 361 547 290 550 288 492 c 0
 285 392 284 341 284 294 c 0
 284 247 285 204 285 120 c 0
 285 97 277 88 266 88 c 0
 239 88 189 137 153 162 c 9
 213 109 242 74 306 27 c 24
 361 -13 398 -26 456 -60 c 1048
303 351 m 24
 336 340 358 343 387 324 c 24
 431 296 447 269 486 234 c 25
 466 271 435 270 435 330 c 0
 435 408 519 408 543 411 c 1032
EndSplineSet
Substitution2: "Contextual Form 0001-1" jha.0001
EndChar

StartChar: Ja
Encoding: 26 2334 26
Width: 834
VWidth: 0
Flags: W
AnchorPoint: "virama" 442 -120 basechar 0
AnchorPoint: "repha" 420 534 basechar 0
AnchorPoint: "aakaara" 714 405 basechar 0
AnchorPoint: "ekaara" 120 549 basechar 0
AnchorPoint: "iikaara" 579 576 basechar 0
AnchorPoint: "bindu" 442 740 basechar 0
LayerCount: 2
Back
Fore
SplineSet
627 -66 m 24
 569 -32 532 -19 477 21 c 24
 413 68 384 103 324 156 c 17
 360 131 410 82 437 82 c 0
 448 82 456 91 456 114 c 0
 456 198 455 241 455 288 c 0
 455 335 456 386 459 486 c 0
 461 544 532 541 579 576 c 25
 517 560 484 536 420 534 c 17
 419 534 l 2
 391 534 378 571 353 571 c 0
 317 571 330 530 321 504 c 25
 303 526 299 544 276 561 c 16
 248 582 228 600 196 600 c 2
 189 600 l 9
 156 597 147 569 120 549 c 1048
474 345 m 24
 507 334 529 337 558 318 c 24
 602 290 618 263 657 228 c 25
 637 265 606 264 606 324 c 0
 606 402 690 402 714 405 c 1032
EndSplineSet
Substitution2: "Contextual Form 0001-1" Ja.0001
EndChar

StartChar: Ta
Encoding: 27 2335 27
Width: 803
VWidth: 0
Flags: W
AnchorPoint: "virama" 400 -120 basechar 0
AnchorPoint: "repha" 393 531 basechar 0
AnchorPoint: "aakaara" 684 378 basechar 0
AnchorPoint: "iikaara" 639 585 basechar 0
AnchorPoint: "ekaara" 168 585 basechar 0
AnchorPoint: "bindu" 400 740 basechar 0
LayerCount: 2
Back
Fore
SplineSet
168 585 m 25
 216 468 l 17
 225 534 234 570 279 570 c 0
 325 570 313 531 385 531 c 2
 393 531 l 1
 484 534 465 540 537 585 c 1
 453 500 447 475 447 461 c 2
 447 454 l 2
 447 446 444 438 420 417 c 0
 336 344 234 364 171 303 c 0
 136 269 120 239 120 211 c 0
 120 188 131 165 150 144 c 8
 231 50 310 17 432 0 c 16
 446 -2 460 -3 474 -3 c 0
 563 -3 655 33 681 72 c 1024
639 585 m 16
 573 579 528 579 528 523 c 2
 528 516 l 1
 531 465 624 408 684 378 c 1024
EndSplineSet
Substitution2: "Contextual Form 0001-1" Ta.0001
EndChar

StartChar: Tha
Encoding: 28 2336 28
Width: 822
VWidth: 0
Flags: W
AnchorPoint: "virama" 406 -120 basechar 0
AnchorPoint: "aakaara" 656 537 basechar 0
AnchorPoint: "repha" 432 585 basechar 0
AnchorPoint: "iikaara" 432 585 basechar 0
AnchorPoint: "ekaara" 366 528 basechar 0
AnchorPoint: "bindu" 406 740 basechar 0
LayerCount: 2
Back
Fore
SplineSet
432 585 m 24
 310 445 120 476 120 222 c 0
 120 82 265 6 405 0 c 1
 422 -0 l 2
 557 0 697 67 702 201 c 1
 702 211 l 2
 702 374 543 481 426 534 c 1024
EndSplineSet
Substitution2: "Contextual Form 0001-1" Tha.0001
EndChar

StartChar: Da
Encoding: 29 2337 29
Width: 633
VWidth: 0
Flags: W
AnchorPoint: "virama" 343 -120 basechar 0
AnchorPoint: "repha" 303 513 basechar 0
AnchorPoint: "aakaara" 504 588 basechar 0
AnchorPoint: "iikaara" 504 588 basechar 0
AnchorPoint: "ekaara" 120 573 basechar 0
AnchorPoint: "bindu" 343 740 basechar 0
LayerCount: 2
Back
Fore
SplineSet
120 573 m 25
 162 477 l 25
 180 510 170 562 216 562 c 0
 249 562 263 513 299 513 c 2
 303 513 l 9
 386 521 426 559 504 588 c 25
 437 514 403 469 333 399 c 24
 276 342 238 315 177 261 c 25
 300 351 l 2
 326 370 347 408 360 408 c 0
 370 408 376 385 376 312 c 0
 376 296 376 278 375 258 c 0
 370 60 378 66 345 39 c 0
 336 31 326 28 316 28 c 0
 277 28 238 82 195 108 c 9
 245 66 268 34 324 0 c 24
 393 -42 439 -51 513 -84 c 1048
EndSplineSet
Substitution2: "Contextual Form 0001-1" Da.0001
EndChar

StartChar: Dha
Encoding: 30 2338 30
Width: 914
VWidth: 0
Flags: W
AnchorPoint: "virama" 448 -120 basechar 0
AnchorPoint: "repha" 480 531 basechar 0
AnchorPoint: "aakaara" 666 591 basechar 0
AnchorPoint: "iikaara" 666 591 basechar 0
AnchorPoint: "ekaara" 264 579 basechar 0
AnchorPoint: "bindu" 448 740 basechar 0
LayerCount: 2
Back
Fore
SplineSet
264 579 m 25
 315 492 l 25
 331 522 324 569 357 570 c 1
 364 570 l 2
 430 570 431 531 475 531 c 2
 480 531 l 9
 556 536 593 568 666 591 c 25
 586 517 553 461 462 402 c 24
 338 321 253 300 120 234 c 25
 208 218 265 232 345 192 c 24
 404 163 405 105 459 66 c 16
 505 33 538 -3 587 -3 c 0
 595 -3 603 -2 612 0 c 8
 700 21 773 56 792 144 c 16
 793 150 794 156 794 162 c 0
 794 219 732 257 672 276 c 0
 666 278 660 279 655 279 c 0
 618 279 595 238 555 219 c 1032
EndSplineSet
Substitution2: "Contextual Form 0001-1" Dha.0001
EndChar

StartChar: Na
Encoding: 31 2339 31
Width: 888
VWidth: 0
Flags: W
AnchorPoint: "virama" 431 -120 basechar 0
AnchorPoint: "repha" 484 591 basechar 0
AnchorPoint: "aakaara" 769 153 basechar 0
AnchorPoint: "iikaara" 691 582 basechar 0
AnchorPoint: "ekaara" 148 417 basechar 0
AnchorPoint: "bindu" 481 740 basechar 0
LayerCount: 2
Back
Fore
SplineSet
487 -105 m 24
 365 -51 247 -79 175 33 c 16
 134 96 120 155 120 217 c 0
 120 279 134 343 148 417 c 8
 158 469 208 492 262 492 c 0
 313 492 328 437 328 369 c 0
 328 277 301 162 301 129 c 1
 301 129 392 195 430 195 c 0
 481 195 490 0 490 0 c 9
 484 591 l 25
 498 551 478 489 520 489 c 0
 610 489 652 580 691 582 c 1
 662 496 637 421 637 334 c 0
 637 305 640 275 646 243 c 8
 657 185 721 188 769 153 c 1048
EndSplineSet
Substitution2: "Contextual Form 0001-1" Na.0001
EndChar

StartChar: ta
Encoding: 32 2340 32
Width: 630
VWidth: 0
Flags: W
AnchorPoint: "virama" 301 -120 basechar 0
AnchorPoint: "repha" 330 537 basechar 0
AnchorPoint: "aakaara" 510 597 basechar 0
AnchorPoint: "iikaara" 510 597 basechar 0
AnchorPoint: "ekaara" 123 582 basechar 0
AnchorPoint: "bindu" 301 740 basechar 0
LayerCount: 2
Back
Fore
SplineSet
123 582 m 25
 168 489 l 25
 183 527 162 578 217 578 c 0
 256 578 282 537 325 537 c 2
 330 537 l 9
 404 542 440 574 510 597 c 25
 437 560 384 557 324 501 c 24
 228 411 200 336 120 231 c 17
 194 318 312 497 345 497 c 0
 351 497 354 492 354 480 c 0
 354 216 357 264 357 87 c 0
 357 -42 438 -48 510 -87 c 1024
EndSplineSet
Substitution2: "Contextual Form 0001-1" ta.0001
EndChar

StartChar: tha
Encoding: 33 2341 33
Width: 739
VWidth: 0
Flags: W
AnchorPoint: "virama" 362 -120 basechar 0
AnchorPoint: "repha" 346 582 basechar 0
AnchorPoint: "aakaara" 538 585 basechar 0
AnchorPoint: "iikaara" 538 585 basechar 0
AnchorPoint: "ekaara" 245 560 basechar 0
AnchorPoint: "bindu" 362 740 basechar 0
LayerCount: 2
Back
Fore
SplineSet
538 585 m 24
 523 562 501 553 499 525 c 0
 477 266 459 270 459 121 c 0
 459 106 460 90 460 72 c 0
 463 -87 547 -69 619 -105 c 1024
472 537 m 16
 425 554 407 582 354 582 c 2
 346 582 l 1
 262 578 192 549 160 471 c 16
 156 461 154 450 154 440 c 0
 154 393 195 350 244 336 c 0
 275 327 298 321 320 321 c 0
 356 321 391 337 460 384 c 1
 331 276 248 327 163 228 c 16
 135 195 120 156 120 117 c 0
 120 85 130 54 154 27 c 0
 168 12 221 0 275 -0 c 0
 305 0 335 3 358 12 c 0
 415 33 413 58 448 87 c 1048
EndSplineSet
Substitution2: "Contextual Form 0001-1" tha.0001
EndChar

StartChar: da
Encoding: 34 2342 34
Width: 723
VWidth: 0
Flags: W
AnchorPoint: "virama" 373 -120 basechar 0
AnchorPoint: "repha" 369 537 basechar 0
AnchorPoint: "aakaara" 588 582 basechar 0
AnchorPoint: "iikaara" 588 582 basechar 0
AnchorPoint: "ekaara" 195 564 basechar 0
AnchorPoint: "bindu" 373 740 basechar 0
LayerCount: 2
Back
Fore
SplineSet
603 369 m 24
 530 320 476 308 417 243 c 24
 369 190 336 149 336 76 c 0
 336 13 382 -13 411 -69 c 1032
195 564 m 25
 237 471 l 25
 250 505 238 542 270 558 c 16
 276 561 282 563 288 563 c 0
 313 563 335 537 365 537 c 2
 369 537 l 9
 456 544 503 564 588 582 c 17
 453 543 453 552 366 441 c 0
 301 358 245 342 199 342 c 0
 170 342 146 348 125 348 c 2
 120 348 l 9
 208 334 260 338 345 312 c 24
 381 301 393 277 423 255 c 1048
EndSplineSet
Substitution2: "Contextual Form 0001-1" da.0001
EndChar

StartChar: dha
Encoding: 35 2343 35
Width: 816
VWidth: 0
Flags: W
AnchorPoint: "virama" 395 -120 basechar 0
AnchorPoint: "repha" 466 548 basechar 0
AnchorPoint: "aakaara" 634 594 basechar 0
AnchorPoint: "iikaara" 634 594 basechar 0
AnchorPoint: "ekaara" 259 471 basechar 0
AnchorPoint: "bindu" 445 740 basechar 0
LayerCount: 2
Back
Fore
SplineSet
634 594 m 24
 616 569 590 561 589 531 c 0
 583 393 578 297 578 180 c 0
 578 135 578 86 580 30 c 0
 582 -37 649 -72 697 -96 c 1024
559 540 m 16
 531 545 502 548 473 548 c 0
 399 548 324 528 259 471 c 0
 172 393 120 312 120 206 c 0
 120 189 121 171 124 153 c 8
 138 55 229 0 328 0 c 0
 442 0 467 40 556 66 c 1048
EndSplineSet
Substitution2: "Contextual Form 0001-1" dha.0001
EndChar

StartChar: na
Encoding: 36 2344 36
Width: 688
VWidth: 0
Flags: W
AnchorPoint: "virama" 350 -120 basechar 0
AnchorPoint: "repha" 406 534 basechar 0
AnchorPoint: "aakaara" 568 597 basechar 0
AnchorPoint: "iikaara" 568 597 basechar 0
AnchorPoint: "ekaara" 223 594 basechar 0
AnchorPoint: "bindu" 350 740 basechar 0
LayerCount: 2
Back
Fore
SplineSet
361 444 m 24
 381 411 412 444 412 360 c 0
 412 262 409 264 409 212 c 0
 409 186 410 147 412 75 c 0
 415 -36 460 -30 541 -75 c 1024
223 594 m 25
 262 510 l 25
 271 540 255 583 286 588 c 16
 289 588 292 589 295 589 c 0
 339 589 358 534 404 534 c 2
 406 534 l 9
 474 536 505 572 568 597 c 25
 505 565 453 546 406 516 c 0
 324 463 341 374 274 303 c 16
 256 284 236 274 213 274 c 0
 168 274 120 309 120 344 c 0
 120 347 120 351 121 354 c 1024
EndSplineSet
Substitution2: "Contextual Form 0001-1" na.0001
EndChar

StartChar: pa
Encoding: 37 2346 37
Width: 813
VWidth: 0
Flags: W
AnchorPoint: "virama" 403 -120 basechar 0
AnchorPoint: "repha" 240 528 basechar 0
AnchorPoint: "aakaara" 594 597 basechar 0
AnchorPoint: "iikaara" 594 597 basechar 0
AnchorPoint: "ekaara" 120 585 basechar 0
AnchorPoint: "bindu" 403 740 basechar 0
LayerCount: 2
Back
Fore
SplineSet
594 597 m 24
 580 577 558 570 558 546 c 0
 561 333 564 252 564 60 c 0
 564 -72 633 -66 693 -105 c 1024
120 585 m 25
 159 486 l 17
 154 510 130 536 130 554 c 0
 130 564 143 574 155 574 c 0
 183 574 203 528 238 528 c 2
 240 528 l 9
 285 530 304 559 345 579 c 25
 303 547 253 548 237 498 c 16
 223 453 213 412 213 373 c 0
 213 335 222 299 243 258 c 0
 270 206 320 192 377 192 c 2
 396 192 l 9
 460 195 484 241 540 273 c 1048
EndSplineSet
Substitution2: "Contextual Form 0001-1" pa.0001
EndChar

StartChar: pha
Encoding: 38 2347 38
Width: 819
VWidth: 0
Flags: W
AnchorPoint: "virama" 418 -120 basechar 0
AnchorPoint: "repha" 411 513 basechar 0
AnchorPoint: "aakaara" 651 585 basechar 0
AnchorPoint: "iikaara" 651 585 basechar 0
AnchorPoint: "ekaara" 138 540 basechar 0
AnchorPoint: "bindu" 418 740 basechar 0
LayerCount: 2
Back
Fore
SplineSet
138 540 m 25
 186 423 l 17
 191 432 192 442 192 452 c 0
 192 464 190 475 190 486 c 0
 190 508 198 526 243 534 c 0
 258 537 271 538 281 538 c 0
 333 538 334 510 382 510 c 0
 390 510 399 511 411 513 c 0
 507 529 557 557 651 585 c 25
 522 528 435 521 321 438 c 16
 224 368 120 323 120 206 c 0
 120 86 254 76 333 0 c 1
 322 38 316 73 316 104 c 0
 316 237 414 306 555 306 c 0
 645 306 699 282 699 210 c 0
 699 105 642 96 588 72 c 1024
EndSplineSet
Substitution2: "Contextual Form 0001-1" pha.0001
EndChar

StartChar: ba
Encoding: 39 2348 39
Width: 630
VWidth: 0
Flags: W
AnchorPoint: "virama" 293 -120 basechar 0
AnchorPoint: "ekaara" 157 588 basechar 0
AnchorPoint: "iikaara" 511 606 basechar 0
AnchorPoint: "aakaara" 511 606 basechar 0
AnchorPoint: "repha" 346 543 basechar 0
AnchorPoint: "bindu" 343 740 basechar 0
LayerCount: 2
Back
Fore
SplineSet
157 588 m 25
 187 519 l 25
 202 550 188 589 230 589 c 0
 274 589 296 543 342 543 c 2
 346 543 l 9
 415 547 447 581 511 606 c 25
 460 569 384 573 379 510 c 0
 367 348 360 272 360 125 c 0
 360 96 361 63 361 27 c 0
 362 -36 438 -48 487 -96 c 1048
157 588 m 1049
343 507 m 16
 247 354 274 408 199 348 c 0
 155 313 120 274 120 217 c 0
 120 213 121 209 121 204 c 8
 126 153 178 117 220 117 c 0
 280 117 328 162 349 204 c 1024
EndSplineSet
Substitution2: "Contextual Form 0001-1" ba.0001
EndChar

StartChar: bha
Encoding: 40 2349 40
Width: 798
VWidth: 0
Flags: W
AnchorPoint: "virama" 403 -120 basechar 0
AnchorPoint: "repha" 420 531 basechar 0
AnchorPoint: "aakaara" 606 591 basechar 0
AnchorPoint: "iikaara" 606 591 basechar 0
AnchorPoint: "ekaara" 204 579 basechar 0
AnchorPoint: "bindu" 403 740 basechar 0
LayerCount: 2
Back
Fore
SplineSet
333 153 m 16
 313 199 304 235 304 264 c 0
 304 317 335 348 387 375 c 0
 407 385 428 392 448 392 c 0
 468 392 488 385 504 369 c 0
 540 333 551 294 551 248 c 0
 551 237 550 225 549 213 c 0
 545 168 530 132 530 95 c 0
 530 45 558 -9 678 -93 c 1024
204 579 m 25
 255 492 l 25
 268 525 255 575 288 576 c 4
 290 576 292 576 294 576 c 0
 361 576 367 531 415 531 c 2
 420 531 l 9
 496 535 533 568 606 591 c 25
 526 517 491 463 402 402 c 24
 300 332 230 314 120 258 c 1048
EndSplineSet
Substitution2: "Contextual Form 0001-1" bha.0001
EndChar

StartChar: ma
Encoding: 41 2350 41
Width: 786
VWidth: 0
Flags: W
AnchorPoint: "virama" 376 -120 basechar 0
AnchorPoint: "repha" 249 528 basechar 0
AnchorPoint: "aakaara" 567 597 basechar 0
AnchorPoint: "iikaara" 567 597 basechar 0
AnchorPoint: "ekaara" 129 585 basechar 0
AnchorPoint: "bindu" 376 740 basechar 0
LayerCount: 2
Back
Fore
SplineSet
567 597 m 24
 553 577 531 570 531 546 c 0
 534 333 537 252 537 60 c 0
 537 -72 606 -66 666 -105 c 1024
129 585 m 25
 168 486 l 17
 163 510 139 536 139 554 c 0
 139 564 152 574 164 574 c 0
 192 574 212 528 247 528 c 2
 249 528 l 9
 294 530 313 559 354 579 c 25
 312 547 287 531 246 498 c 0
 208 468 196 446 196 426 c 0
 196 391 236 363 236 309 c 0
 236 280 224 244 189 195 c 0
 151 143 147 146 120 114 c 17
 147 159 228 223 303 225 c 0
 309 225 315 225 321 225 c 0
 420 225 425 200 513 138 c 1024
EndSplineSet
Substitution2: "Contextual Form 0001-1" ma.0001
EndChar

StartChar: ya
Encoding: 42 2351 42
Width: 824
VWidth: 0
Flags: W
AnchorPoint: "virama" 414 -120 basechar 0
AnchorPoint: "repha" 281 522 basechar 0
AnchorPoint: "aakaara" 605 597 basechar 0
AnchorPoint: "iikaara" 605 597 basechar 0
AnchorPoint: "ekaara" 161 579 basechar 0
AnchorPoint: "bindu" 414 740 basechar 0
LayerCount: 2
Back
Fore
SplineSet
605 597 m 24
 591 577 569 570 569 546 c 0
 572 333 575 252 575 60 c 0
 575 -72 644 -66 704 -105 c 1024
161 579 m 25
 200 480 l 17
 195 504 171 530 171 548 c 0
 171 558 184 568 196 568 c 0
 224 568 244 522 279 522 c 2
 281 522 l 9
 326 524 345 553 386 573 c 25
 344 541 295 542 278 492 c 16
 273 479 271 468 271 458 c 0
 271 430 288 407 314 363 c 9
 252 348 199 371 155 324 c 16
 131 299 120 270 120 239 c 0
 120 218 125 195 137 174 c 0
 160 131 200 112 246 112 c 0
 254 112 261 113 269 114 c 8
 336 123 346 203 413 210 c 16
 417 210 420 211 423 211 c 0
 475 211 500 168 551 144 c 1032
EndSplineSet
Substitution2: "Contextual Form 0001-1" ya.0001
EndChar

StartChar: ra
Encoding: 43 2352 43
Width: 576
VWidth: 0
Flags: W
AnchorPoint: "repha" 249 552 basechar 0
AnchorPoint: "aakaara" 408 594 basechar 0
AnchorPoint: "virama" 277 -120 basechar 0
AnchorPoint: "iikaara" 408 594 basechar 0
AnchorPoint: "ekaara" 120 594 basechar 0
AnchorPoint: "bindu" 277 740 basechar 0
LayerCount: 2
Back
Fore
SplineSet
120 594 m 25
 150 522 l 25
 158 549 143 589 180 589 c 0
 206 589 219 552 248 552 c 2
 249 552 l 9
 313 554 346 578 408 594 c 1041
378 581 m 1
 336.169 562.533 289.579 549.792 288 504 c 0
 285 404 284 353 284 306 c 0
 284 259 285 216 285 132 c 0
 285 109 277 100 266 100 c 0
 239 100 189 149 153 174 c 9
 212.67 121.35 241.809 86.0313 306 39 c 24
 360.553 -0.96875 397.5 -14.0703 456 -48 c 1048
EndSplineSet
Substitution2: "Contextual Form 0001-1" ra.0001
EndChar

StartChar: la
Encoding: 44 2354 44
Width: 804
VWidth: 0
Flags: W
AnchorPoint: "aakaara" 678 594 basechar 0
AnchorPoint: "virama" 400 -120 basechar 0
AnchorPoint: "repha" 521 545 basechar 0
AnchorPoint: "iikaara" 678 594 basechar 0
AnchorPoint: "ekaara" 321 600 basechar 0
AnchorPoint: "bindu" 500 740 basechar 0
LayerCount: 2
Back
Fore
SplineSet
321 600 m 25
 360 522 l 25
 373 551 361 592 393 597 c 16
 396 597 399 598 402 598 c 0
 447 598 462 545 519 545 c 2
 521 545 l 1
 607 546 617 575 678 594 c 25
 635 555 579 552 567 495 c 16
 556 447 553 405 553 365 c 0
 553 280 569 204 570 99 c 9
 351 174 l 17
 410 189 424 207 424 231 c 0
 424 284 389 331 343 331 c 0
 336 331 328 330 321 327 c 8
 226 293 170 247 126 156 c 16
 122 147 120 138 120 129 c 0
 120 94 149 59 186 45 c 1
 232 26 263 21 287 21 c 0
 317 21 338 29 374 29 c 0
 426 29 508 13 684 -66 c 1024
EndSplineSet
Substitution2: "Contextual Form 0001-1" la.0001
EndChar

StartChar: va
Encoding: 45 2357 45
Width: 594
VWidth: 0
Flags: W
AnchorPoint: "virama" 256 -120 basechar 0
AnchorPoint: "ekaara" 120 588 basechar 0
AnchorPoint: "iikaara" 474 606 basechar 0
AnchorPoint: "aakaara" 474 606 basechar 0
AnchorPoint: "repha" 309 543 basechar 0
AnchorPoint: "bindu" 306 740 basechar 0
LayerCount: 2
Back
Fore
SplineSet
120 588 m 25
 150 519 l 25
 165 551 149 592 193 592 c 0
 237 592 258 543 305 543 c 2
 309 543 l 9
 378 547 410 581 474 606 c 25
 423 569 347 573 342 510 c 0
 330 348 323 272 323 125 c 0
 323 96 324 63 324 27 c 0
 325 -36 401 -48 450 -96 c 1048
120 588 m 1049
309 492 m 16
 243 441 207 429 180 402 c 0
 138 360 126 345 126 300 c 24
 126 248 147 202 180 177 c 0
 231 138 264 129 309 99 c 1024
EndSplineSet
Substitution2: "Contextual Form 0001-1" va.0001
EndChar

StartChar: za
Encoding: 46 2358 46
Width: 894
VWidth: 0
Flags: W
AnchorPoint: "virama" 436 -120 basechar 0
AnchorPoint: "repha" 425 578 basechar 0
AnchorPoint: "aakaara" 765 591 basechar 0
AnchorPoint: "iikaara" 765 591 basechar 0
AnchorPoint: "ekaara" 264 537 basechar 0
AnchorPoint: "bindu" 436 740 basechar 0
LayerCount: 2
Back
Fore
SplineSet
636 450 m 24
 627 416 612 398 612 363 c 16
 612 299 606 248 606 198 c 0
 606 148 611 99 633 39 c 8
 658 -29 719 -34 774 -81 c 1048
264 330 m 0
 283 300 290 249 290 197 c 0
 290 119 274 38 258 18 c 1024
312 414 m 0
 243 342 240 276 120 258 c 1024
297 405 m 16
 249 411 231 441 231 471 c 0
 231 497 244 524 264 537 c 0
 292 555 373 579 445 579 c 0
 512 579 570 559 570 494 c 0
 570 477 567 458 558 435 c 1024
450 348 m 0
 531 363 701 543 765 591 c 1032
EndSplineSet
Substitution2: "Contextual Form 0001-1" za.0001
EndChar

StartChar: Sa
Encoding: 47 2359 47
Width: 813
VWidth: 0
Flags: W
AnchorPoint: "virama" 403 -120 basechar 0
AnchorPoint: "repha" 240 528 basechar 0
AnchorPoint: "aakaara" 594 597 basechar 0
AnchorPoint: "iikaara" 594 597 basechar 0
AnchorPoint: "ekaara" 120 585 basechar 0
AnchorPoint: "bindu" 403 740 basechar 0
LayerCount: 2
Back
Fore
SplineSet
594 597 m 24
 580 577 558 570 558 546 c 0
 561 333 564 252 564 60 c 0
 564 -72 633 -66 693 -105 c 1024
120 585 m 25
 159 486 l 17
 160 490 160 494 160 498 c 0
 160 512 157 527 157 539 c 0
 157 552 161 561 177 561 c 0
 217 561 213 528 237 528 c 0
 238 528 239 528 240 528 c 8
 285 533 304 559 345 579 c 25
 303 547 253 548 237 498 c 16
 223 453 213 412 213 373 c 0
 213 335 222 299 243 258 c 0
 270 206 320 192 377 192 c 2
 396 192 l 1
 460 195 540 209 540 272 c 0
 540 345 450 341 393 384 c 1048
EndSplineSet
Substitution2: "Contextual Form 0001-1" Sa.0001
EndChar

StartChar: sa
Encoding: 48 2360 48
Width: 900
VWidth: 0
Flags: W
AnchorPoint: "virama" 436 -120 basechar 0
AnchorPoint: "repha" 381 540 basechar 0
AnchorPoint: "aakaara" 687 594 basechar 0
AnchorPoint: "iikaara" 687 594 basechar 0
AnchorPoint: "ekaara" 246 579 basechar 0
AnchorPoint: "bindu" 436 740 basechar 0
LayerCount: 2
Back
Fore
SplineSet
687 594 m 24
 672 566 648 554 648 522 c 0
 645 327 642 303 642 105 c 0
 642 -48 714 -57 780 -93 c 1024
360 111 m 0
 309 138 243 175 243 231 c 0
 243 251 251 272 270 297 c 0
 288 321 327 320 372 321 c 1
 385 321 l 2
 473 321 492 289 615 183 c 1024
246 579 m 25
 285 480 l 17
 282 495 280 510 280 522 c 0
 280 549 289 567 315 567 c 0
 343 567 352 540 376 540 c 2
 381 540 l 9
 433 547 456 571 504 591 c 25
 475 569 479 559 429 534 c 0
 303 471 390 450 303 360 c 0
 271 327 185 291 139 291 c 0
 131 291 125 292 120 294 c 1024
EndSplineSet
Substitution2: "Contextual Form 0001-1" sa.0001
EndChar

StartChar: ha
Encoding: 49 2361 49
Width: 822
VWidth: 0
Flags: W
AnchorPoint: "virama" 427 -120 basechar 0
AnchorPoint: "repha" 381 531 basechar 0
AnchorPoint: "aakaara" 579 597 basechar 0
AnchorPoint: "iikaara" 579 597 basechar 0
AnchorPoint: "ekaara" 165 579 basechar 0
AnchorPoint: "bindu" 427 740 basechar 0
LayerCount: 2
Back
Fore
SplineSet
165 579 m 25
 216 492 l 25
 231 525 222 575 255 576 c 0
 257 576 259 576 261 576 c 0
 328 576 331 531 377 531 c 2
 381 531 l 9
 462 536 502 571 579 597 c 25
 489 537 440 501 348 444 c 24
 261 390 209 363 120 312 c 25
 166 289 191 287 237 252 c 0
 276 222 360 144 375 90 c 1
 343 149 329 198 329 235 c 0
 329 296 368 327 435 327 c 0
 630 327 518 120 594 0 c 24
 624 -47 660 -57 702 -93 c 1048
EndSplineSet
Substitution2: "Contextual Form 0001-1" ha.0001
EndChar

StartChar: kSa
Encoding: 50 -1 50
Width: 891
VWidth: 0
Flags: W
AnchorPoint: "repha" 416 516 basechar 0
AnchorPoint: "aakaara" 622 588 basechar 0
AnchorPoint: "iikaara" 622 588 basechar 0
AnchorPoint: "ekaara" 202 582 basechar 0
AnchorPoint: "bindu" 423 740 basechar 0
AnchorPoint: "virama" 423 -120 basechar 0
LayerCount: 2
Back
Fore
SplineSet
559 365 m 0
 562 211 565 153 565 14 c 0
 565 -81 634 -77 694 -105 c 1024
276 384 m 0
 277 328 241 286 241 235 c 0
 241 209 251 181 278 148 c 0
 303 117 333 109 370 109 c 0
 379 109 388 109 397 110 c 8
 457 115 541 107 541 168 c 24
 541 238 454 234 398 276 c 1048
202 582 m 25
 250 489 l 25
 263 526 242 577 291 577 c 0
 340 577 361 516 414 516 c 2
 416 516 l 9
 501 519 542 560 622 588 c 25
 527 539 467 523 379 462 c 24
 269 386 221 325 120 238 c 25
 225 321 322 444 388 450 c 0
 395 451 402 451 409 451 c 0
 552 451 629 317 771 238 c 1032
EndSplineSet
Substitution2: "Contextual Form 0001-1" kSa.0001
LCarets2: 2 0 0
Ligature2: "kSa-1" ka virAma Sa
EndChar

StartChar: avagrAha
Encoding: 52 2365 52
Width: 603
VWidth: 0
Flags: W
LayerCount: 2
Back
Fore
SplineSet
120 138 m 24
 201 84 241 0 327 0 c 0
 399 0 429 14 459 63 c 16
 470 81 475 100 475 118 c 0
 475 144 465 170 447 195 c 8
 389 274 313 276 249 351 c 16
 215 391 175 428 175 471 c 0
 175 482 177 492 183 504 c 8
 216 572 285 576 360 582 c 16
 362 582 363 582 365 582 c 0
 408 582 433 539 462 525 c 1
 460 528 459 531 459 534 c 0
 459 547 476 562 483 579 c 1032
EndSplineSet
EndChar

StartChar: AT
Encoding: 53 2366 53
Width: 80
VWidth: 0
GlyphClass: 4
Flags: W
AnchorPoint: "aakaara" -175 591 mark 0
LayerCount: 2
Back
Fore
SplineSet
-64 660 m 16
 -130 654 -175 654 -175 598 c 2
 -175 591 l 1
 -172 540 -79 483 -19 453 c 1024
EndSplineSet
Substitution2: "Contextual Form 0001-1" AT.0001
Substitution2: "Contextual Form 0003-1" AT.0003
Substitution2: "Contextual Form 0002-1" AT.0002
EndChar

StartChar: AT.0001
Encoding: 54 -1 54
Width: 80
VWidth: 0
GlyphClass: 4
Flags: W
AnchorPoint: "aakaara" -180 378 mark 0
LayerCount: 2
Back
Fore
SplineSet
-180 378 m 0
 -170 373 -160 369 -151 369 c 0
 -146 369 -141 370 -135 373 c 8
 -116 381 -99 390 -97 411 c 16
 -96 420 -96 427 -96 434 c 0
 -96 462 -102 480 -124 520 c 1024
EndSplineSet
EndChar

StartChar: AT.0002
Encoding: 55 -1 55
Width: 80
VWidth: 0
GlyphClass: 4
Flags: W
AnchorPoint: "aakaara" -180 411 mark 0
LayerCount: 2
Back
Fore
SplineSet
-180 411 m 1
 -173 411 l 2
 -148 411 -126 406 -115 383 c 8
 -72 294 -70 237 -49 139 c 1024
EndSplineSet
EndChar

StartChar: AT.0003
Encoding: 56 -1 56
Width: 80
VWidth: 0
GlyphClass: 4
Flags: W
AnchorPoint: "aakaara" -180 153 mark 0
LayerCount: 2
Back
Fore
SplineSet
-180 153 m 16
 -174 152 -169 152 -163 152 c 0
 -129 152 -95 170 -92 204 c 0
 -90 221 -90 236 -90 249 c 0
 -90 339 -122 344 -138 416 c 1032
EndSplineSet
EndChar

StartChar: iT
Encoding: 57 2367 57
Width: 164
VWidth: 0
GlyphClass: 4
Flags: W
LayerCount: 2
Back
Fore
SplineSet
340 549 m 16
 309 558 303 579 269 579 c 0
 262 579 254 578 244 576 c 0
 139 554 119 399 119 277 c 0
 119 263 120 250 120 237 c 0
 126 39 153 -30 231 -72 c 1024
EndSplineSet
Substitution2: "Contextual Form 0001-1" iT.0001
EndChar

StartChar: iT.0001
Encoding: 58 -1 58
Width: 140
VWidth: 0
GlyphClass: 4
Flags: W
LayerCount: 2
Back
Fore
SplineSet
447 549 m 16
 395 562 385 596 329 596 c 0
 318 596 304 594 288 591 c 0
 171 567 120 393 120 342 c 0
 120 219 141 45 195 -42 c 1024
EndSplineSet
EndChar

StartChar: IT
Encoding: 59 2368 59
Width: 180
VWidth: 0
GlyphClass: 4
Flags: W
AnchorPoint: "iikaara" -180 576 mark 0
LayerCount: 2
Back
Fore
SplineSet
-180 576 m 16
 -179 603 -150 624 -113 624 c 2
 -106 624 l 1
 -34 619 -33 530 -26 458 c 16
 -25 445 -24 432 -24 420 c 0
 -24 321 -61 249 -61 156 c 0
 -61 135 -59 114 -55 91 c 8
 -44 34 20 26 62 0 c 1024
EndSplineSet
Substitution2: "Contextual Form 0001-1" IT.0001
Substitution2: "Contextual Form 0004-1" IT.0004
Substitution2: "Contextual Form 0003-1" IT.0003
Substitution2: "Contextual Form 0002-1" IT.0002
EndChar

StartChar: IT.0001
Encoding: 60 -1 60
Width: 180
VWidth: 0
GlyphClass: 4
Flags: W
AnchorPoint: "iikaara" -180 576 mark 0
LayerCount: 2
Back
Fore
SplineSet
-180 576 m 16
 -179 603 -150 624 -113 624 c 2
 -106 624 l 1
 -19 618 57 511 57 393 c 0
 57 305 16 234 16 144 c 0
 16 127 17 109 21 90 c 8
 32 33 96 25 138 -1 c 1024
EndSplineSet
EndChar

StartChar: IT.0002
Encoding: 61 -1 61
Width: 180
VWidth: 0
GlyphClass: 4
Flags: W
AnchorPoint: "iikaara" -180 576 mark 0
LayerCount: 2
Back
Fore
SplineSet
-180 576 m 16
 -179 603 -150 624 -113 624 c 2
 -106 624 l 1
 -34 619 19 540 50 457 c 20
 70 404 73 357 73 312 c 0
 73 285 72 259 72 232 c 0
 72 188 75 142 93 91 c 8
 112 36 168 26 210 0 c 1024
EndSplineSet
EndChar

StartChar: IT.0003
Encoding: 62 -1 62
Width: 180
VWidth: 0
GlyphClass: 4
Flags: W
AnchorPoint: "iikaara" -180 576 mark 0
LayerCount: 2
Back
Fore
SplineSet
-180 576 m 16
 -179 603 -150 624 -113 624 c 2
 -106 624 l 1
 -34 619 82 570 144 474 c 24
 226 347 170 233 234 96 c 28
 261 39 322 26 364 0 c 1028
EndSplineSet
EndChar

StartChar: IT.0004
Encoding: 63 -1 63
Width: 180
VWidth: 0
GlyphClass: 4
Flags: W
AnchorPoint: "iikaara" -180 576 mark 0
LayerCount: 2
Back
Fore
SplineSet
-180 576 m 16
 -179 603 -150 624 -113 624 c 2
 -106 624 l 1
 -34 619 85 582 122 484 c 16
 134 453 138 424 138 396 c 0
 138 309 94 232 94 137 c 0
 94 120 95 102 99 83 c 8
 110 26 174 18 216 -8 c 1024
EndSplineSet
EndChar

StartChar: uT
Encoding: 64 2369 64
Width: 0
VWidth: 0
GlyphClass: 4
Flags: W
AnchorPoint: "ukaaramark" -292 0 mark 0
AnchorPoint: "ukaara" -292 0 mark 0
LayerCount: 2
Back
Fore
SplineSet
-292 0 m 0
 -218 0 -186 -38 -186 -108 c 0
 -186 -169 -226 -198 -262 -198 c 0
 -403 -198 -418 -124 -508 -64 c 1024
EndSplineSet
Substitution2: "Contextual Form 0004-1" uT.0004
Substitution2: "Contextual Form 0001-1" uT.0001
Substitution2: "Contextual Form 0003-1" uT.0003
Substitution2: "Contextual Form 0002-1" uT.0002
EndChar

StartChar: uT.0001
Encoding: 65 -1 65
Width: 0
VWidth: 0
GlyphClass: 4
Flags: W
AnchorPoint: "ukaaramark" -293 138 mark 0
AnchorPoint: "ukaara" -293 138 mark 0
LayerCount: 2
Back
Fore
SplineSet
-293 138 m 25
 -293 138 -293 0 -292 0 c 1
 -218 0 -186 -38 -186 -108 c 0
 -186 -169 -226 -198 -262 -198 c 0
 -403 -198 -418 -124 -508 -64 c 1024
EndSplineSet
EndChar

StartChar: uT.0002
Encoding: 66 -1 66
Width: 0
VWidth: 0
GlyphClass: 4
Flags: W
AnchorPoint: "ukaaramark" -180 333 mark 0
AnchorPoint: "ukaara" -180 333 mark 0
LayerCount: 2
Back
Fore
SplineSet
-176 394 m 24
 -149 386 -131 388 -107 373 c 24
 -67 348 -50 325 -14 295 c 1048
EndSplineSet
EndChar

StartChar: uT.0003
Encoding: 67 -1 67
Width: 0
VWidth: 0
GlyphClass: 4
Flags: W
AnchorPoint: "ukaaramark" -245 106 mark 0
AnchorPoint: "ukaara" -245 106 mark 0
LayerCount: 2
Back
Fore
SplineSet
-245 106 m 1
 -245 -21 l 2
 -245 -48 -255 -58 -271 -58 c 0
 -300 -58 -347 -23 -380 0 c 9
 -319 -44 -287 -73 -224 -114 c 24
 -167 -151 -132 -167 -74 -201 c 1048
EndSplineSet
EndChar

StartChar: uT.0004
Encoding: 68 -1 68
Width: 0
VWidth: 0
Flags: W
AnchorPoint: "ukaaramark" -210 50 mark 0
AnchorPoint: "ukaara" -210 50 mark 0
LayerCount: 2
Back
Fore
SplineSet
-210 50 m 25
 -210 50 -293 0 -292 0 c 1
 -218 0 -186 -38 -186 -108 c 0
 -186 -169 -226 -198 -262 -198 c 0
 -403 -198 -418 -124 -508 -64 c 1024
EndSplineSet
EndChar

StartChar: UT
Encoding: 69 2370 69
Width: 0
VWidth: 0
GlyphClass: 4
Flags: W
AnchorPoint: "ukaaramark" -292 0 mark 0
AnchorPoint: "ukaara" -292 0 mark 0
LayerCount: 2
Back
Fore
SplineSet
-292 0 m 0
 -218 0 -186 -38 -186 -108 c 0
 -186 -169 -226 -198 -262 -198 c 0
 -403 -198 -418 -124 -508 -64 c 1024
-184 -80 m 24
 -157 -88 -139 -86 -115 -101 c 24
 -75 -126 -58 -149 -22 -179 c 1048
EndSplineSet
Substitution2: "Contextual Form 0004-1" UT.0004
Substitution2: "Contextual Form 0001-1" UT.0001
Substitution2: "Contextual Form 0003-1" UT.0003
Substitution2: "Contextual Form 0002-1" UT.0002
EndChar

StartChar: UT.0001
Encoding: 70 -1 70
Width: 0
VWidth: 0
GlyphClass: 4
Flags: W
AnchorPoint: "ukaaramark" -293 138 mark 0
AnchorPoint: "ukaara" -293 138 mark 0
LayerCount: 2
Back
Fore
SplineSet
-293 138 m 25
 -293 138 -293 0 -292 0 c 1
 -218 0 -186 -38 -186 -108 c 0
 -186 -169 -226 -198 -262 -198 c 0
 -403 -198 -418 -124 -508 -64 c 1024
-184 -80 m 24
 -157 -88 -139 -86 -115 -101 c 24
 -75 -126 -58 -149 -22 -179 c 1048
EndSplineSet
EndChar

StartChar: UT.0002
Encoding: 71 -1 71
Width: 0
VWidth: 0
GlyphClass: 4
Flags: W
AnchorPoint: "ukaaramark" -180 333 mark 0
AnchorPoint: "ukaara" -180 333 mark 0
LayerCount: 2
Back
Fore
SplineSet
-180 333 m 24
 -153 325 -135 327 -111 312 c 24
 -71 287 -54 264 -18 234 c 1048
-21 453 m 24
 -54 434 -77 430 -105 405 c 24
 -132 381 -138 359 -159 330 c 1048
EndSplineSet
EndChar

StartChar: UT.0003
Encoding: 72 -1 72
Width: 0
VWidth: 0
GlyphClass: 4
Flags: W
AnchorPoint: "ukaaramark" -245 156 mark 0
AnchorPoint: "ukaara" -245 156 mark 0
LayerCount: 2
Back
Fore
SplineSet
-242 39 m 24
 -215 31 -197 33 -173 18 c 24
 -133 -7 -116 -30 -80 -60 c 1048
-245 156 m 1
 -245 -21 l 2
 -245 -48 -255 -58 -271 -58 c 0
 -300 -58 -347 -23 -380 0 c 9
 -319 -44 -287 -73 -224 -114 c 24
 -167 -151 -132 -167 -74 -201 c 1048
EndSplineSet
EndChar

StartChar: UT.0004
Encoding: 73 -1 73
Width: 0
VWidth: 0
Flags: W
AnchorPoint: "ukaaramark" -210 50 mark 0
AnchorPoint: "ukaara" -210 50 mark 0
LayerCount: 2
Back
Fore
SplineSet
-508 -64 m 0
 -418 -124 -403 -198 -262 -198 c 0
 -226 -198 -186 -169 -186 -108 c 0
 -186 -38 -218 0 -292 0 c 1
 -293 0 -210 50 -210 50 c 1049
-184 -80 m 24
 -157 -88 -139 -86 -115 -101 c 24
 -75 -126 -58 -149 -22 -179 c 1048
EndSplineSet
EndChar

StartChar: RT
Encoding: 74 2371 74
Width: 0
VWidth: 0
GlyphClass: 4
Flags: W
AnchorPoint: "ukaaramark" -386 0 mark 0
AnchorPoint: "ukaara" -386 0 mark 0
LayerCount: 2
Back
Fore
SplineSet
-386 0 m 16
 -446 0 -518 -39 -530 -108 c 16
 -531 -114 -532 -119 -532 -124 c 0
 -532 -184 -486 -205 -416 -205 c 0
 -331 -205 -258 -168 -203 -135 c 1024
EndSplineSet
Substitution2: "Contextual Form 0001-1" RT.0001
EndChar

StartChar: RT.0001
Encoding: 75 -1 75
Width: 0
VWidth: 0
GlyphClass: 4
Flags: W
AnchorPoint: "ukaaramark" -386 159 mark 0
AnchorPoint: "ukaara" -386 159 mark 0
LayerCount: 2
Back
Fore
SplineSet
-386 159 m 25
 -386 0 l 17
 -446 0 -518 -39 -530 -108 c 16
 -531 -114 -532 -119 -532 -124 c 0
 -532 -184 -486 -205 -416 -205 c 0
 -331 -205 -258 -168 -203 -135 c 1024
EndSplineSet
EndChar

StartChar: eT
Encoding: 77 2375 77
Width: 0
VWidth: 0
GlyphClass: 4
Flags: W
AnchorPoint: "ekaara" -279 549 mark 0
LayerCount: 2
Back
Fore
SplineSet
-429 507 m 0
 -440 526 -480 538 -480 567 c 0
 -480 598 -441 615 -420 615 c 0
 -419 615 -418 615 -417 615 c 0
 -366 609 -312 579 -279 549 c 1024
EndSplineSet
Substitution2: "Contextual Form 0001-1" eT.0001
EndChar

StartChar: eT.0001
Encoding: 78 -1 78
Width: 0
VWidth: 0
GlyphClass: 4
Flags: W
AnchorPoint: "ekaara" -279 549 mark 0
LayerCount: 2
Back
Fore
SplineSet
-479 507 m 4
 -489 525 -533 539 -533 561 c 0
 -533 564 -532 568 -530 571 c 4
 -509 607 -451 615 -425 615 c 2
 -417 615 l 1
 -366 609 -312 579 -279 549 c 1024
EndSplineSet
EndChar

StartChar: aiT
Encoding: 79 2376 79
Width: 0
VWidth: 0
GlyphClass: 4
Flags: W
AnchorPoint: "ekaara" -279 549 mark 0
LayerCount: 2
Back
Fore
SplineSet
-429 507 m 0
 -440 526 -480 538 -480 567 c 0
 -480 598 -441 615 -420 615 c 0
 -419 615 -418 615 -417 615 c 0
 -366 609 -312 579 -279 549 c 1
 -290 612 -282 615 -332 654 c 0
 -345 664 -368 659 -384 674 c 16
 -398 687 -414 700 -414 717 c 0
 -414 721 -413 725 -411 729 c 0
 -396 759 -371 774 -339 774 c 0
 -338 774 -337 774 -336 774 c 8
 -295 773 -256 733 -243 723 c 1024
EndSplineSet
Substitution2: "Contextual Form 0001-1" aiT.0001
EndChar

StartChar: aiT.0001
Encoding: 80 -1 80
Width: 0
VWidth: 0
GlyphClass: 4
Flags: W
AnchorPoint: "ekaara" -279 549 mark 0
LayerCount: 2
Back
Fore
SplineSet
-479 507 m 0
 -489 525 -533 539 -533 561 c 0
 -533 564 -532 568 -530 571 c 0
 -509 607 -451 615 -425 615 c 2
 -417 615 l 1
 -366 609 -312 579 -279 549 c 1
 -290 612 -282 615 -332 654 c 0
 -345 664 -368 659 -384 674 c 16
 -398 687 -414 701 -414 717 c 0
 -414 721 -413 725 -411 729 c 0
 -397 759 -372 774 -340 774 c 2
 -336 774 l 9
 -295 773 -256 733 -243 723 c 1024
EndSplineSet
EndChar

StartChar: virAma
Encoding: 83 2381 83
Width: 0
VWidth: 0
GlyphClass: 4
Flags: W
AnchorPoint: "viramamark" -305 0 mark 0
AnchorPoint: "virama" -305 0 mark 0
LayerCount: 2
Back
Fore
SplineSet
-480 -132 m 16
 -456 -99 -396 -57 -339 -57 c 0
 -243 -57 -200 -130 -111 -177 c 1048
EndSplineSet
EndChar

StartChar: candra
Encoding: 84 2373 84
Width: 0
VWidth: 0
Flags: W
AnchorPoint: "bindumark" -475 740 basemark 0
AnchorPoint: "bindumark" -475 570 mark 0
AnchorPoint: "bindu" -475 570 mark 0
LayerCount: 2
Back
Fore
SplineSet
-680 687 m 16
 -603 636 -571 570 -488 570 c 2
 -475 570 l 9
 -373 577 -341 618 -257 717 c 1024
EndSplineSet
EndChar

StartChar: zUnya
Encoding: 86 2406 86
Width: 700
VWidth: 0
Flags: W
LayerCount: 2
Back
Fore
SplineSet
337 30 m 24
 262 111 182 133 145 237 c 16
 132 273 126 307 126 339 c 0
 126 389 141 437 175 486 c 0
 220 552 279 590 353 590 c 0
 363 590 374 590 385 588 c 8
 476 575 535 520 562 432 c 16
 570 405 574 377 574 349 c 0
 574 267 544 188 517 150 c 0
 466 78 424 58 364 0 c 1048
EndSplineSet
EndChar

StartChar: eka
Encoding: 87 2407 87
Width: 700
VWidth: 0
Flags: W
LayerCount: 2
Back
Fore
SplineSet
422 298 m 4
 397 283 353 244 309 244 c 0
 299 244 290 246 281 250 c 4
 217 280 175 329 175 397 c 0
 175 402 176 407 176 412 c 12
 183 490 235 534 308 562 c 20
 325 568 342 572 359 572 c 0
 398 572 435 554 452 517 c 4
 471 476 477 440 477 404 c 0
 477 352 465 300 461 235 c 4
 459 203 450 167 450 129 c 0
 450 102 455 75 470 49 c 12
 516 -29 582 -37 653 -92 c 1052
EndSplineSet
EndChar

StartChar: dvi
Encoding: 88 2408 88
Width: 700
VWidth: 0
Flags: W
LayerCount: 2
Back
Fore
SplineSet
140 462 m 0
 174 516 242 586 326 586 c 0
 331 586 336 585 341 585 c 8
 439 575 506 517 536 423 c 16
 545 396 549 370 549 346 c 0
 549 280 520 222 476 159 c 0
 432 96 377 66 302 66 c 0
 298 66 294 66 290 66 c 8
 205 69 175 132 101 174 c 25
 197 106 242 53 347 0 c 24
 439 -46 501 -48 599 -78 c 1048
EndSplineSet
EndChar

StartChar: tri
Encoding: 89 2409 89
Width: 700
VWidth: 0
Flags: W
LayerCount: 2
Back
Fore
SplineSet
164 459 m 0
 212 522 273 570 362 573 c 17
 370 573 l 2
 446 573 505 539 542 471 c 0
 548 461 550 450 550 440 c 0
 550 404 519 371 485 348 c 8
 408 297 335 332 257 282 c 16
 249 277 245 274 245 273 c 0
 245 270 341 321 403 321 c 0
 415 321 425 319 434 315 c 0
 492 285 542 236 542 177 c 0
 542 165 540 153 536 141 c 8
 506 54 424 30 332 24 c 16
 329 24 326 24 323 24 c 0
 248 24 214 82 143 117 c 9
 211 71 244 37 317 0 c 24
 407 -45 463 -57 557 -93 c 1048
EndSplineSet
EndChar

StartChar: catur
Encoding: 90 2410 90
Width: 700
VWidth: 0
Flags: W
LayerCount: 2
Back
Fore
SplineSet
278 579 m 0
 239 551 166 511 166 461 c 0
 166 453 168 444 173 435 c 8
 222 341 314 366 416 312 c 0
 484 276 550 211 550 129 c 0
 550 31 466 0 378 -0 c 2
 362 0 l 9
 268 4 168 27 152 120 c 16
 151 127 150 134 150 140 c 0
 150 223 244 276 308 312 c 0
 408 368 484 354 530 444 c 16
 534 453 536 461 536 469 c 0
 536 513 479 549 446 582 c 1024
EndSplineSet
EndChar

StartChar: paJca
Encoding: 91 2411 91
Width: 700
VWidth: 0
Flags: W
LayerCount: 2
Back
Fore
SplineSet
170 585 m 20
 172 559 173 534 173 511 c 0
 173 480 172 451 172 422 c 0
 172 370 176 319 200 258 c 12
 220 208 269 199 323 195 c 20
 340 194 357 192 373 192 c 0
 412 192 447 200 464 237 c 12
 523 362 491 451 509 588 c 29
 505 435 505 342 500 195 c 4
 500 188 500 181 500 174 c 0
 500 150 501 130 501 112 c 0
 501 72 495 44 458 18 c 4
 448 11 438 8 428 8 c 0
 394 8 361 45 326 75 c 13
 361 46 377 23 416 0 c 28
 482 -38 524 -49 593 -81 c 1052
EndSplineSet
EndChar

StartChar: SaS
Encoding: 92 2412 92
Width: 700
VWidth: 0
Flags: W
LayerCount: 2
Back
Fore
SplineSet
552 463 m 24
 492 510 474 574 399 583 c 16
 380 585 362 587 345 587 c 0
 275 587 217 566 162 511 c 0
 152 501 148 491 148 480 c 0
 148 449 178 415 204 388 c 8
 252 338 273 324 360 304 c 1
 313 307 274 330 236 330 c 0
 220 330 205 326 189 316 c 0
 141 285 128 238 128 184 c 0
 128 108 151 69 207 34 c 16
 258 2 282 0 350 -0 c 2
 378 0 l 2
 435 0 508 15 534 78 c 16
 537 85 538 92 538 98 c 0
 538 134 495 159 452 178 c 9
 486 156 507 146 540 122 c 24
 577 95 595 77 630 48 c 1048
EndSplineSet
EndChar

StartChar: sapta
Encoding: 93 2413 93
Width: 700
VWidth: 0
Flags: W
LayerCount: 2
Back
Fore
SplineSet
461 336 m 0
 423 316 388 283 344 283 c 0
 336 283 328 284 319 286 c 8
 241 307 199 366 199 462 c 0
 199 510 215 551 257 582 c 0
 291 607 329 621 366 621 c 0
 397 621 427 611 453 588 c 8
 531 518 530 437 536 333 c 16
 537 314 538 295 538 278 c 0
 538 200 525 140 482 63 c 8
 454 13 458 0 350 0 c 0
 256 0 281 178 65 252 c 1024
EndSplineSet
EndChar

StartChar: aSTa
Encoding: 94 2414 94
Width: 700
VWidth: 0
Flags: W
LayerCount: 2
Back
Fore
SplineSet
175 585 m 29
 220 480 l 21
 221 504 207 532 207 552 c 0
 207 565 216 578 233 578 c 0
 262 578 273 518 309 518 c 2
 310 518 l 13
 361 519 381 556 426 580 c 29
 340 497 265 470 206 366 c 20
 172 306 151 254 151 196 c 0
 151 171 155 145 163 117 c 12
 185 45 229 0 316 0 c 4
 412 0 451 2 514 51 c 20
 538 70 546 94 546 121 c 0
 546 138 543 156 538 174 c 12
 529 211 504 222 466 242 c 13
 491 231 505 226 529 213 c 28
 565 193 584 180 619 159 c 1052
EndSplineSet
EndChar

StartChar: nava
Encoding: 95 2415 95
Width: 700
VWidth: 0
Flags: W
LayerCount: 2
Back
Fore
SplineSet
244 226 m 16
 299 225 344 203 388 203 c 0
 409 203 429 208 451 223 c 0
 513 266 541 323 541 394 c 0
 541 498 496 572 407 597 c 16
 386 603 367 606 348 606 c 0
 288 606 236 577 185 531 c 0
 133 484 120 431 120 365 c 0
 120 357 121 349 121 340 c 8
 124 270 147 225 199 178 c 24
 261 123 325 140 394 94 c 24
 476 39 509 -10 582 -76 c 1048
EndSplineSet
EndChar

StartChar: begin
Encoding: 96 182 96
Width: 898
VWidth: 0
Flags: W
LayerCount: 2
Back
Fore
SplineSet
576 243 m 16
 560 265 540 272 540 292 c 0
 540 296 541 299 543 303 c 0
 566 343 600 368 643 368 c 0
 650 368 656 367 663 366 c 0
 718 356 778 325 778 272 c 0
 778 268 778 265 777 261 c 0
 764 179 714 98 636 98 c 0
 631 98 626 98 621 99 c 8
 514 120 459 129 378 240 c 0
 309 335 228 339 120 369 c 1024
EndSplineSet
EndChar

StartChar: daNDa
Encoding: 97 2404 97
Width: 643
VWidth: 0
Flags: W
LayerCount: 2
Back
Fore
SplineSet
389 324 m 0
 350 33 290 42 170 36 c 9
 258 22 310 26 395 0 c 24
 431 -11 443 -35 473 -57 c 1048
EndSplineSet
EndChar

StartChar: dvidaNDa
Encoding: 98 2405 98
Width: 754
VWidth: 0
Flags: W
LayerCount: 2
Back
Fore
SplineSet
389 324 m 0
 350 33 290 42 170 36 c 9
 258 22 310 26 395 0 c 24
 431 -11 443 -35 473 -57 c 1048
578 174 m 0
 542 108 509 114 509 -78 c 0
 509 -159 524 -153 584 -192 c 1024
EndSplineSet
EndChar

StartChar: ka.0001
Encoding: 99 -1 99
Width: 891
VWidth: 0
Flags: W
AnchorPoint: "ukaara" 437 100 basechar 0
AnchorPoint: "repha" 416 516 basechar 0
AnchorPoint: "aakaara" 622 588 basechar 0
AnchorPoint: "iikaara" 622 588 basechar 0
AnchorPoint: "ekaara" 202 582 basechar 0
AnchorPoint: "bindu" 423 740 basechar 0
AnchorPoint: "virama" 423 -20 basechar 0
LayerCount: 2
Back
Fore
SplineSet
437 441 m 0
 438 390 438 339 438 289 c 0
 438 189 437 193 437 100 c 1024
202 582 m 25
 250 489 l 25
 263 526 242 577 291 577 c 0
 340 577 361 516 414 516 c 2
 416 516 l 9
 501 519 542 560 622 588 c 25
 527 539 467 523 379 462 c 24
 269 386 221 325 120 238 c 25
 225 321 322 444 388 450 c 0
 395 451 402 451 409 451 c 0
 552 451 629 317 771 238 c 1032
EndSplineSet
EndChar

StartChar: kha.0001
Encoding: 100 -1 100
Width: 885
VWidth: 0
Flags: W
AnchorPoint: "ukaara" 632 0 basechar 0
AnchorPoint: "virama" 436 -120 basechar 0
AnchorPoint: "repha" 456 483 basechar 0
AnchorPoint: "aakaara" 765 591 basechar 0
AnchorPoint: "iikaara" 765 591 basechar 0
AnchorPoint: "ekaara" 264 537 basechar 0
AnchorPoint: "bindu" 436 740 basechar 0
LayerCount: 2
Back
Fore
SplineSet
531 459 m 24
 502 422 472 408 456 363 c 16
 440 316 431 281 431 240 c 0
 431 224 432 206 435 186 c 8
 439 160 462 145 489 144 c 17
 494 144 l 2
 535 144 557 167 597 180 c 1032
639 501 m 24
 632 460 622 438 621 396 c 17
 621 353 l 2
 621 225 628 139 632 0 c 1032
264 330 m 0
 283 300 290 249 290 197 c 0
 290 119 229 77 213 57 c 1024
312 414 m 0
 243 342 240 276 120 258 c 1024
297 405 m 16
 249 411 231 441 231 471 c 0
 231 506 256 547 293 547 c 0
 337 547 375 483 456 483 c 0
 549 483 681 528 765 591 c 1032
EndSplineSet
EndChar

StartChar: ga.0001
Encoding: 101 -1 101
Width: 885
VWidth: 0
Flags: W
AnchorPoint: "ukaara" 624 0 basechar 0
AnchorPoint: "virama" 436 -120 basechar 0
AnchorPoint: "repha" 456 483 basechar 0
AnchorPoint: "aakaara" 765 591 basechar 0
AnchorPoint: "iikaara" 765 591 basechar 0
AnchorPoint: "ekaara" 264 537 basechar 0
AnchorPoint: "bindu" 436 740 basechar 0
LayerCount: 2
Back
Fore
SplineSet
264 330 m 0
 283 300 290 249 290 197 c 0
 290 119 229 77 213 57 c 1024
639 501 m 24
 632 460 622 438 621 396 c 16
 620 356 619 321 619 288 c 0
 619 193 623 114 624 0 c 1032
312 414 m 0
 243 342 240 276 120 258 c 1024
297 405 m 16
 249 411 231 441 231 471 c 0
 231 506 256 547 293 547 c 0
 337 547 375 483 456 483 c 0
 549 483 681 528 765 591 c 1032
EndSplineSet
EndChar

StartChar: gha.0001
Encoding: 102 -1 102
Width: 786
VWidth: 0
Flags: W
AnchorPoint: "ukaara" 614 0 basechar 0
AnchorPoint: "virama" 418 -120 basechar 0
AnchorPoint: "repha" 468 570 basechar 0
AnchorPoint: "aakaara" 666 585 basechar 0
AnchorPoint: "iikaara" 666 585 basechar 0
AnchorPoint: "ekaara" 120 555 basechar 0
AnchorPoint: "bindu" 418 740 basechar 0
LayerCount: 2
Back
Fore
SplineSet
666 585 m 25
 615 549 l 17
 614 0 l 1025
120 555 m 25
 159 462 l 17
 154 489 130 514 130 535 c 0
 130 544 139 559 152 559 c 0
 174 559 188 507 218 507 c 2
 219 507 l 9
 219 507 250 538 306 564 c 9
 265 523 220 514 201 459 c 16
 190 428 187 403 187 378 c 0
 187 341 196 289 204 258 c 0
 212 228 239 213 270 213 c 0
 272 213 274 213 276 213 c 8
 321 213 361 225 378 267 c 24
 419 365 398 432 411 537 c 1048
615 528 m 16
 614 509 614 492 614 474 c 0
 614 423 616 376 616 332 c 0
 616 284 616 274 605 230 c 0
 596 192 562 168 525 168 c 0
 519 168 512 169 506 170 c 8
 450 179 421 220 407 275 c 16
 406 279 401 289 401 348 c 0
 401 404 404 472 414 525 c 8
 419 552 447 552 468 570 c 1048
EndSplineSet
EndChar

StartChar: Ga.0001
Encoding: 103 -1 103
Width: 810
VWidth: 0
Flags: W
AnchorPoint: "ukaara" 428 0 basechar 0
AnchorPoint: "virama" 406 -120 basechar 0
AnchorPoint: "repha" 387 507 basechar 0
AnchorPoint: "aakaara" 690 378 basechar 0
AnchorPoint: "iikaara" 645 585 basechar 0
AnchorPoint: "ekaara" 183 561 basechar 0
AnchorPoint: "bindu" 406 740 basechar 0
LayerCount: 2
Back
Fore
SplineSet
645 585 m 16
 579 579 534 579 534 523 c 2
 534 516 l 1
 537 465 630 408 690 378 c 1024
183 561 m 25
 324 438 l 17
 304 467 295 492 295 510 c 0
 295 535 311 549 339 549 c 0
 352 549 355 546 355 541 c 0
 355 535 349 526 349 519 c 0
 349 512 355 507 380 507 c 2
 387 507 l 1
 478 510 489 552 543 585 c 9
 456 516 410 474 321 408 c 24
 245 351 198 324 120 270 c 25
 182 243 220 236 278 202 c 24
 341 165 380 141 428 90 c 9
 428 0 l 1049
EndSplineSet
EndChar

StartChar: ca.0001
Encoding: 104 -1 104
Width: 672
VWidth: 0
Flags: W
AnchorPoint: "ukaara" 406 0 basechar 0
AnchorPoint: "virama" 334 -120 basechar 0
AnchorPoint: "repha" 387 543 basechar 0
AnchorPoint: "aakaara" 552 606 basechar 0
AnchorPoint: "iikaara" 552 606 basechar 0
AnchorPoint: "ekaara" 198 588 basechar 0
AnchorPoint: "bindu" 384 740 basechar 0
LayerCount: 2
Back
Fore
SplineSet
408 528 m 24
 369 474 357 435 309 390 c 24
 243 329 194 309 120 258 c 25
 182 242 222 246 279 216 c 24
 325 192 338 159 375 123 c 1048
198 588 m 25
 228 519 l 25
 247 547 243 586 276 591 c 16
 279 591 282 592 284 592 c 0
 324 592 341 543 383 543 c 2
 387 543 l 9
 456 547 488 581 552 606 c 25
 501 569 425 573 420 510 c 0
 409 364 405 274 405 145 c 0
 405 102 405 55 406 0 c 1024
EndSplineSet
EndChar

StartChar: cha.0001
Encoding: 105 -1 105
Width: 813
VWidth: 0
Flags: W
AnchorPoint: "ukaara" 394 0 basechar 0
AnchorPoint: "virama" 400 -120 basechar 0
AnchorPoint: "repha" 402 570 basechar 0
AnchorPoint: "aakaara" 546 612 basechar 0
AnchorPoint: "iikaara" 546 612 basechar 0
AnchorPoint: "ekaara" 264 597 basechar 0
AnchorPoint: "bindu" 400 740 basechar 0
LayerCount: 2
Back
Fore
SplineSet
357 327 m 16
 312 351 291 390 242 390 c 2
 237 390 l 9
 181 387 120 366 120 308 c 0
 120 251 163 194 217 194 c 0
 222 194 226 194 231 195 c 8
 375 220 409 357 552 387 c 16
 560 389 569 390 577 390 c 0
 634 390 693 352 693 297 c 0
 693 295 693 293 693 291 c 8
 687 220 608 199 537 195 c 17
 533 195 l 2
 483 195 466 245 423 276 c 1032
264 597 m 25
 294 528 l 25
 308 556 301 589 330 600 c 16
 333 601 336 602 339 602 c 0
 361 602 375 570 400 570 c 2
 402 570 l 9
 460 573 490 596 546 612 c 25
 489 572 404 573 399 510 c 0
 392 415 389 344 389 270 c 0
 389 192 392 112 394 0 c 1024
EndSplineSet
EndChar

StartChar: ja.0001
Encoding: 106 -1 106
Width: 810
VWidth: 0
Flags: W
AnchorPoint: "ukaara" 428 0 basechar 0
AnchorPoint: "virama" 406 -120 basechar 0
AnchorPoint: "repha" 387 507 basechar 0
AnchorPoint: "aakaara" 690 378 basechar 0
AnchorPoint: "iikaara" 645 585 basechar 0
AnchorPoint: "ekaara" 183 561 basechar 0
AnchorPoint: "bindu" 406 740 basechar 0
LayerCount: 2
Back
Fore
SplineSet
645 585 m 16
 579 579 534 579 534 523 c 2
 534 516 l 1
 537 465 630 408 690 378 c 1024
183 561 m 25
 324 438 l 17
 304 467 295 492 295 510 c 0
 295 535 311 549 339 549 c 0
 352 549 355 546 355 541 c 0
 355 535 349 526 349 519 c 0
 349 512 355 507 380 507 c 2
 387 507 l 1
 478 510 489 552 543 585 c 9
 456 516 410 474 321 408 c 24
 245 351 198 324 120 270 c 25
 182 243 220 236 278 202 c 24
 341 165 380 141 428 90 c 9
 428 0 l 1049
351 402 m 24
 394 374 422 362 462 330 c 24
 524 281 554 248 612 195 c 1048
EndSplineSet
EndChar

StartChar: jha.0001
Encoding: 107 -1 107
Width: 663
VWidth: 0
Flags: W
AnchorPoint: "ukaara" 282 0 basechar 0
AnchorPoint: "virama" 316 -120 basechar 0
AnchorPoint: "repha" 249 540 basechar 0
AnchorPoint: "aakaara" 543 411 basechar 0
AnchorPoint: "ekaara" 120 582 basechar 0
AnchorPoint: "iikaara" 408 582 basechar 0
AnchorPoint: "bindu" 316 740 basechar 0
LayerCount: 2
Back
Fore
SplineSet
120 582 m 25
 150 510 l 25
 163 538 153 573 183 582 c 16
 185 583 188 583 190 583 c 0
 214 583 221 540 249 540 c 8
 313 540 346 566 408 582 c 25
 361 547 290 550 288 492 c 0
 285 392 284 341 284 294 c 0
 284 247 285 204 285 120 c 0
 285 97 277 88 266 88 c 0
 239 88 189 137 153 162 c 9
 203 99 232 63 282 0 c 1048
303 351 m 24
 336 340 358 343 387 324 c 24
 431 296 447 269 486 234 c 25
 466 271 435 270 435 330 c 0
 435 408 519 408 543 411 c 1032
EndSplineSet
EndChar

StartChar: Ja.0001
Encoding: 108 -1 108
Width: 834
VWidth: 0
Flags: W
AnchorPoint: "ukaara" 456 0 basechar 0
AnchorPoint: "virama" 442 -120 basechar 0
AnchorPoint: "repha" 420 534 basechar 0
AnchorPoint: "aakaara" 714 405 basechar 0
AnchorPoint: "ekaara" 120 549 basechar 0
AnchorPoint: "iikaara" 579 576 basechar 0
AnchorPoint: "bindu" 442 740 basechar 0
LayerCount: 2
Back
Fore
SplineSet
456 0 m 25
 324 156 l 1041
371 114 m 1
 390.957 99.0244 423.749 82 437 82 c 0
 448 82 456 91 456 114 c 0
 456 198 455 241 455 288 c 0
 455 335 456 386 459 486 c 0
 461 544 532.2 540.9 579 576 c 25
 420 534 l 17
 419 534 l 2
 391 534 378 571 353 571 c 0
 317 571 333.48 530.13 321 504 c 25
 303.45 526.23 298.658 544.007 276 561 c 16
 248 582 228 600 196 600 c 2
 189 600 l 9
 162.09 580.11 146.91 568.89 120 549 c 1048
474 345 m 24
 507 334 529 337 558 318 c 24
 602 290 618 263 657 228 c 25
 637 265 606 264 606 324 c 0
 606 402 690 402 714 405 c 1032
EndSplineSet
EndChar

StartChar: Ta.0001
Encoding: 109 -1 109
Width: 805
VWidth: 0
Flags: W
AnchorPoint: "ukaara" 433 64 basechar 0
AnchorPoint: "virama" 402 -120 basechar 0
AnchorPoint: "repha" 395 531 basechar 0
AnchorPoint: "aakaara" 686 378 basechar 0
AnchorPoint: "iikaara" 641 585 basechar 0
AnchorPoint: "ekaara" 170 585 basechar 0
AnchorPoint: "bindu" 402 740 basechar 0
LayerCount: 2
Back
Fore
SplineSet
170 585 m 25
 218 468 l 17
 227 534 236 570 281 570 c 0
 327 570 315 531 387 531 c 2
 395 531 l 1
 486 534 467 540 539 585 c 1
 455 500 449 475 449 461 c 2
 449 454 l 2
 449 446 446 438 422 417 c 0
 338 344 236 364 173 303 c 0
 137 268 120 236 120 207 c 0
 120 184 131 163 152 144 c 8
 236 67 319 66 433 64 c 17
 443 64 l 2
 542 64 653 92 682 136 c 1024
641 585 m 16
 575 579 530 579 530 523 c 2
 530 516 l 1
 533 465 626 408 686 378 c 1024
EndSplineSet
EndChar

StartChar: Tha.0001
Encoding: 110 -1 110
Width: 822
VWidth: 0
Flags: W
AnchorPoint: "ukaara" 406 58 basechar 0
AnchorPoint: "virama" 406 -120 basechar 0
AnchorPoint: "aakaara" 656 537 basechar 0
AnchorPoint: "repha" 432 585 basechar 0
AnchorPoint: "iikaara" 432 585 basechar 0
AnchorPoint: "ekaara" 366 528 basechar 0
AnchorPoint: "bindu" 406 740 basechar 0
LayerCount: 2
Back
Fore
SplineSet
432 585 m 24
 310 445 120 476 120 222 c 0
 120 82 278 63 406 58 c 0
 417 58 428 57 440 57 c 0
 561 57 697 84 702 201 c 1
 702 211 l 2
 702 374 543 481 426 534 c 1024
EndSplineSet
EndChar

StartChar: Da.0001
Encoding: 111 -1 111
Width: 624
VWidth: 0
Flags: W
AnchorPoint: "ukaara" 363 0 basechar 0
AnchorPoint: "virama" 343 -120 basechar 0
AnchorPoint: "repha" 303 513 basechar 0
AnchorPoint: "aakaara" 504 588 basechar 0
AnchorPoint: "iikaara" 504 588 basechar 0
AnchorPoint: "ekaara" 120 573 basechar 0
AnchorPoint: "bindu" 343 740 basechar 0
LayerCount: 2
Back
Fore
SplineSet
120 573 m 25
 162 477 l 25
 180 510 170 562 216 562 c 0
 249 562 263 513 299 513 c 2
 303 513 l 9
 386 521 426 559 504 588 c 25
 437 514 403 469 333 399 c 24
 276 342 238 315 177 261 c 25
 300 351 l 2
 326 370 347 408 360 408 c 0
 370 408 376 385 376 312 c 0
 376 296 376 278 375 258 c 0
 370 60 378 66 345 39 c 0
 336 31 326 28 316 28 c 0
 277 28 238 82 195 108 c 9
 261 66 281 26 363 0 c 1024
EndSplineSet
EndChar

StartChar: Dha.0001
Encoding: 112 -1 112
Width: 914
VWidth: 0
Flags: W
AnchorPoint: "ukaara" 612 50 basechar 0
AnchorPoint: "virama" 448 -120 basechar 0
AnchorPoint: "repha" 480 531 basechar 0
AnchorPoint: "aakaara" 666 591 basechar 0
AnchorPoint: "iikaara" 666 591 basechar 0
AnchorPoint: "ekaara" 264 579 basechar 0
AnchorPoint: "bindu" 448 740 basechar 0
LayerCount: 2
Back
Fore
SplineSet
264 579 m 25
 315 492 l 25
 331 522 324 569 357 570 c 1
 364 570 l 2
 430 570 431 531 475 531 c 2
 480 531 l 9
 556 536 593 568 666 591 c 25
 586 517 553 461 462 402 c 24
 338 321 253 300 120 234 c 25
 208 218 261 221 345 192 c 24
 395 174 412 141 459 116 c 16
 513 87 543 50 601 50 c 2
 612 50 l 9
 691 57 774 67 792 144 c 16
 794 152 795 160 795 168 c 0
 795 230 735 273 672 300 c 0
 665 303 658 304 652 304 c 0
 617 304 594 262 555 243 c 1032
EndSplineSet
EndChar

StartChar: Na.0001
Encoding: 113 -1 113
Width: 888
VWidth: 0
Flags: W
AnchorPoint: "ukaara" 490 0 basechar 0
AnchorPoint: "virama" 431 -120 basechar 0
AnchorPoint: "repha" 484 591 basechar 0
AnchorPoint: "aakaara" 769 153 basechar 0
AnchorPoint: "iikaara" 691 582 basechar 0
AnchorPoint: "ekaara" 148 417 basechar 0
AnchorPoint: "bindu" 481 740 basechar 0
LayerCount: 2
Back
Fore
SplineSet
175 33 m 16
 134 96 120 155 120 217 c 0
 120 279 134 343 148 417 c 8
 158 469 208 492 262 492 c 0
 313 492 328 437 328 369 c 0
 328 277 301 162 301 129 c 1
 301 129 392 195 430 195 c 0
 481 195 490 0 490 0 c 9
 484 591 l 25
 498 551 478 489 520 489 c 0
 610 489 652 580 691 582 c 1
 662 496 637 421 637 334 c 0
 637 305 640 275 646 243 c 8
 657 185 721 188 769 153 c 1048
EndSplineSet
EndChar

StartChar: ta.0001
Encoding: 114 -1 114
Width: 630
VWidth: 0
Flags: W
AnchorPoint: "ukaara" 353 100 basechar 0
AnchorPoint: "virama" 301 -20 basechar 0
AnchorPoint: "repha" 330 537 basechar 0
AnchorPoint: "aakaara" 510 597 basechar 0
AnchorPoint: "iikaara" 510 597 basechar 0
AnchorPoint: "ekaara" 123 582 basechar 0
AnchorPoint: "bindu" 301 740 basechar 0
LayerCount: 2
Back
Fore
SplineSet
123 582 m 25
 168 489 l 25
 187 524 162 578 217 578 c 0
 256 578 282 537 325 537 c 2
 330 537 l 9
 510 597 l 25
 437 560 384 557 324 501 c 24
 228 411 200 336 120 231 c 17
 194 318 312 497 345 497 c 0
 351 497 354 492 354 480 c 0
 354 216 353 277 353 100 c 1024
EndSplineSet
EndChar

StartChar: tha.0001
Encoding: 115 -1 115
Width: 658
VWidth: 0
Flags: W
AnchorPoint: "ukaara" 458 0 basechar 0
AnchorPoint: "virama" 362 -120 basechar 0
AnchorPoint: "repha" 346 582 basechar 0
AnchorPoint: "aakaara" 538 585 basechar 0
AnchorPoint: "iikaara" 538 585 basechar 0
AnchorPoint: "ekaara" 245 560 basechar 0
AnchorPoint: "bindu" 362 740 basechar 0
LayerCount: 2
Back
Fore
SplineSet
538 585 m 24
 523 562 501 553 499 525 c 0
 477 264 458 209 458 47 c 0
 458 32 458 17 458 0 c 1024
472 537 m 16
 425 554 407 582 354 582 c 2
 346 582 l 1
 262 578 192 549 160 471 c 16
 156 461 154 450 154 440 c 0
 154 393 195 350 244 336 c 0
 275 327 298 321 320 321 c 0
 356 321 391 337 460 384 c 1
 331 276 248 327 163 228 c 16
 135 195 120 156 120 117 c 0
 120 85 130 54 154 27 c 0
 168 12 221 0 275 -0 c 0
 305 0 335 3 358 12 c 0
 415 33 413 58 448 87 c 1048
EndSplineSet
EndChar

StartChar: da.0001
Encoding: 116 -1 116
Width: 723
VWidth: 0
Flags: W
AnchorPoint: "ukaara" 361 50 basechar 0
AnchorPoint: "virama" 373 -70 basechar 0
AnchorPoint: "repha" 369 537 basechar 0
AnchorPoint: "aakaara" 588 582 basechar 0
AnchorPoint: "iikaara" 588 582 basechar 0
AnchorPoint: "ekaara" 195 564 basechar 0
AnchorPoint: "bindu" 373 740 basechar 0
LayerCount: 2
Back
Fore
SplineSet
603 369 m 24
 530 320 470 313 417 243 c 24
 370 181 361 126 361 50 c 1028
195 564 m 25
 237 471 l 25
 250 505 238 542 270 558 c 16
 276 561 282 563 288 563 c 0
 313 563 335 537 365 537 c 2
 369 537 l 9
 456 544 503 564 588 582 c 17
 453 543 453 552 366 441 c 0
 301 358 245 342 199 342 c 0
 170 342 146 348 125 348 c 2
 120 348 l 9
 208 334 260 338 345 312 c 24
 381 301 393 277 423 255 c 1048
EndSplineSet
EndChar

StartChar: dha.0001
Encoding: 117 -1 117
Width: 753
VWidth: 0
Flags: W
AnchorPoint: "ukaara" 581 0 basechar 0
AnchorPoint: "virama" 395 -120 basechar 0
AnchorPoint: "repha" 466 548 basechar 0
AnchorPoint: "aakaara" 634 594 basechar 0
AnchorPoint: "iikaara" 634 594 basechar 0
AnchorPoint: "ekaara" 259 471 basechar 0
AnchorPoint: "bindu" 445 740 basechar 0
LayerCount: 2
Back
Fore
SplineSet
634 594 m 24
 616 569 590 561 589 531 c 0
 583 397 578 289 578 168 c 0
 578 116 579 61 581 0 c 1024
559 540 m 16
 531 545 502 548 473 548 c 0
 399 548 324 528 259 471 c 0
 172 393 120 330 120 224 c 0
 120 207 121 189 124 171 c 8
 139 79 228 45 327 45 c 0
 441 45 467 69 556 84 c 1048
EndSplineSet
EndChar

StartChar: na.0001
Encoding: 118 -1 118
Width: 688
VWidth: 0
Flags: W
AnchorPoint: "ukaara" 412 100 basechar 0
AnchorPoint: "virama" 350 -20 basechar 0
AnchorPoint: "repha" 406 534 basechar 0
AnchorPoint: "aakaara" 568 597 basechar 0
AnchorPoint: "iikaara" 568 597 basechar 0
AnchorPoint: "ekaara" 223 594 basechar 0
AnchorPoint: "bindu" 350 740 basechar 0
LayerCount: 2
Back
Fore
SplineSet
361 444 m 24
 381 411 412 444 412 360 c 0
 412 262 409 231 409 157 c 0
 409 120 410 172 412 100 c 1024
223 594 m 25
 262 510 l 25
 271 540 255 583 286 588 c 16
 289 588 292 589 295 589 c 0
 339 589 358 534 404 534 c 2
 406 534 l 9
 474 536 505 572 568 597 c 25
 505 565 453 546 406 516 c 0
 324 463 341 374 274 303 c 16
 256 284 236 274 213 274 c 0
 168 274 120 309 120 344 c 0
 120 347 120 351 121 354 c 1024
EndSplineSet
EndChar

StartChar: pa.0001
Encoding: 119 -1 119
Width: 714
VWidth: 0
Flags: W
AnchorPoint: "ukaara" 561 0 basechar 0
AnchorPoint: "virama" 403 -120 basechar 0
AnchorPoint: "repha" 240 528 basechar 0
AnchorPoint: "aakaara" 594 597 basechar 0
AnchorPoint: "iikaara" 594 597 basechar 0
AnchorPoint: "ekaara" 120 585 basechar 0
AnchorPoint: "bindu" 403 740 basechar 0
LayerCount: 2
Back
Fore
SplineSet
594 597 m 24
 580 577 558 570 558 546 c 0
 561 333 561 192 561 0 c 1024
120 585 m 25
 159 486 l 17
 154 510 130 536 130 554 c 0
 130 564 143 574 155 574 c 0
 183 574 203 528 238 528 c 2
 240 528 l 9
 285 530 304 559 345 579 c 25
 303 547 253 548 237 498 c 16
 223 453 213 412 213 373 c 0
 213 335 222 299 243 258 c 0
 270 206 320 192 377 192 c 2
 396 192 l 9
 460 195 484 241 540 273 c 1048
EndSplineSet
EndChar

StartChar: ba.0001
Encoding: 121 -1 121
Width: 630
VWidth: 0
Flags: W
AnchorPoint: "ukaara" 363 0 basechar 0
AnchorPoint: "virama" 293 -120 basechar 0
AnchorPoint: "ekaara" 157 588 basechar 0
AnchorPoint: "iikaara" 511 606 basechar 0
AnchorPoint: "aakaara" 511 606 basechar 0
AnchorPoint: "repha" 346 543 basechar 0
AnchorPoint: "bindu" 343 740 basechar 0
LayerCount: 2
Back
Fore
SplineSet
157 588 m 25
 187 519 l 25
 202 550 188 589 230 589 c 0
 274 589 296 543 342 543 c 2
 346 543 l 9
 415 547 447 581 511 606 c 25
 460 569 384 573 379 510 c 0
 367 354 362 262 362 120 c 0
 362 84 362 44 363 0 c 1024
157 588 m 1049
343 507 m 16
 247 354 274 408 199 348 c 0
 155 313 120 274 120 217 c 0
 120 213 121 209 121 204 c 8
 126 153 178 117 220 117 c 0
 280 117 328 162 349 204 c 1024
EndSplineSet
EndChar

StartChar: bha.0001
Encoding: 122 -1 122
Width: 726
VWidth: 0
Flags: W
AnchorPoint: "ukaara" 551 50 basechar 0
AnchorPoint: "virama" 403 -70 basechar 0
AnchorPoint: "repha" 420 531 basechar 0
AnchorPoint: "aakaara" 606 591 basechar 0
AnchorPoint: "iikaara" 606 591 basechar 0
AnchorPoint: "ekaara" 204 579 basechar 0
AnchorPoint: "bindu" 403 740 basechar 0
LayerCount: 2
Back
Fore
SplineSet
333 153 m 16
 313 199 304 235 304 264 c 0
 304 317 335 348 387 375 c 0
 407 385 428 392 448 392 c 0
 468 392 488 385 504 369 c 0
 540 333 551 294 551 248 c 0
 551 218 547 195 547 161 c 0
 547 106 551 88 551 50 c 1024
204 579 m 25
 255 492 l 25
 268 525 255 575 288 576 c 0
 290 576 292 576 294 576 c 0
 361 576 367 531 415 531 c 2
 420 531 l 9
 496 535 533 568 606 591 c 25
 526 517 491 463 402 402 c 24
 300 332 230 314 120 258 c 1048
EndSplineSet
EndChar

StartChar: ma.0001
Encoding: 123 -1 123
Width: 687
VWidth: 0
Flags: W
AnchorPoint: "ukaara" 532 0 basechar 0
AnchorPoint: "virama" 376 -120 basechar 0
AnchorPoint: "repha" 249 528 basechar 0
AnchorPoint: "aakaara" 567 597 basechar 0
AnchorPoint: "iikaara" 567 597 basechar 0
AnchorPoint: "ekaara" 129 585 basechar 0
AnchorPoint: "bindu" 376 740 basechar 0
LayerCount: 2
Back
Fore
SplineSet
567 597 m 24
 553 577 531 570 531 546 c 0
 532 455 533 377 533 302 c 0
 533 203 532 110 532 0 c 1024
129 585 m 25
 168 486 l 17
 163 510 139 536 139 554 c 0
 139 564 152 574 164 574 c 0
 192 574 212 528 247 528 c 2
 249 528 l 9
 354 579 l 25
 312 547 287 531 246 498 c 0
 208 468 196 446 196 426 c 0
 196 391 236 363 236 309 c 0
 236 280 223 272 188 223 c 0
 150 171 146 174 119 142 c 17
 146 187 227 251 302 253 c 0
 308 253 314 253 320 253 c 0
 419 253 424 228 512 166 c 1024
EndSplineSet
EndChar

StartChar: ya.0001
Encoding: 124 -1 124
Width: 725
VWidth: 0
Flags: W
AnchorPoint: "ukaara" 570 0 basechar 0
AnchorPoint: "virama" 414 -120 basechar 0
AnchorPoint: "repha" 281 522 basechar 0
AnchorPoint: "aakaara" 605 597 basechar 0
AnchorPoint: "iikaara" 605 597 basechar 0
AnchorPoint: "ekaara" 161 579 basechar 0
AnchorPoint: "bindu" 414 740 basechar 0
LayerCount: 2
Back
Fore
SplineSet
605 597 m 24
 591 577 569 570 569 546 c 0
 570 455 571 377 571 302 c 0
 571 203 570 110 570 0 c 1024
161 579 m 25
 200 480 l 17
 195 504 171 530 171 548 c 0
 171 558 184 568 196 568 c 0
 224 568 244 522 279 522 c 2
 281 522 l 9
 326 524 345 553 386 573 c 25
 344 541 295 542 278 492 c 16
 273 479 271 468 271 458 c 0
 271 430 288 407 314 363 c 9
 252 348 199 371 155 324 c 16
 131 299 120 270 120 239 c 0
 120 218 125 195 137 174 c 0
 160 131 200 112 246 112 c 0
 254 112 261 113 269 114 c 8
 336 123 346 203 413 210 c 16
 417 210 420 211 423 211 c 0
 475 211 500 168 551 144 c 1032
EndSplineSet
EndChar

StartChar: va.0001
Encoding: 127 -1 127
Width: 594
VWidth: 0
Flags: W
AnchorPoint: "ukaara" 325 0 basechar 0
AnchorPoint: "virama" 256 -120 basechar 0
AnchorPoint: "ekaara" 120 588 basechar 0
AnchorPoint: "iikaara" 474 606 basechar 0
AnchorPoint: "aakaara" 474 606 basechar 0
AnchorPoint: "repha" 309 543 basechar 0
AnchorPoint: "bindu" 306 740 basechar 0
LayerCount: 2
Back
Fore
SplineSet
120 588 m 25
 150 519 l 25
 165 551 149 592 193 592 c 0
 237 592 258 543 305 543 c 2
 309 543 l 9
 378 547 410 581 474 606 c 25
 423 569 347 573 342 510 c 0
 330 351 324 257 324 109 c 0
 324 76 324 40 325 0 c 1024
120 588 m 1049
309 492 m 16
 243 441 207 429 180 402 c 0
 138 360 126 345 126 300 c 24
 126 248 147 202 180 177 c 0
 231 138 264 129 309 99 c 1024
EndSplineSet
EndChar

StartChar: za.0001
Encoding: 128 -1 128
Width: 885
VWidth: 0
Flags: W
AnchorPoint: "ukaara" 610 0 basechar 0
AnchorPoint: "virama" 436 -120 basechar 0
AnchorPoint: "repha" 425 578 basechar 0
AnchorPoint: "aakaara" 765 591 basechar 0
AnchorPoint: "iikaara" 765 591 basechar 0
AnchorPoint: "ekaara" 264 537 basechar 0
AnchorPoint: "bindu" 436 740 basechar 0
LayerCount: 2
Back
Fore
SplineSet
264 330 m 0
 283 300 290 249 290 197 c 0
 290 119 229 77 213 57 c 1024
636 450 m 24
 627 416 614 398 612 363 c 16
 609 310 608 266 608 224 c 0
 608 161 610 104 610 29 c 0
 610 20 610 10 610 0 c 1032
312 414 m 0
 243 342 240 276 120 258 c 1024
297 405 m 16
 249 411 231 441 231 471 c 0
 231 497 244 524 264 537 c 0
 292 555 373 579 445 579 c 0
 512 579 570 559 570 494 c 0
 570 477 567 458 558 435 c 1024
450 348 m 0
 531 363 701 543 765 591 c 1032
EndSplineSet
EndChar

StartChar: Sa.0001
Encoding: 129 -1 129
Width: 714
VWidth: 0
Flags: W
AnchorPoint: "ukaara" 560 0 basechar 0
AnchorPoint: "virama" 403 -120 basechar 0
AnchorPoint: "repha" 240 528 basechar 0
AnchorPoint: "aakaara" 594 597 basechar 0
AnchorPoint: "iikaara" 594 597 basechar 0
AnchorPoint: "ekaara" 120 585 basechar 0
AnchorPoint: "bindu" 403 740 basechar 0
LayerCount: 2
Back
Fore
SplineSet
594 597 m 24
 580 577 558 570 558 546 c 0
 560 418 560 317 560 214 c 0
 560 146 560 77 560 0 c 1024
120 585 m 25
 159 486 l 17
 160 490 160 494 160 498 c 0
 160 512 157 527 157 539 c 0
 157 552 161 561 177 561 c 0
 217 561 213 528 237 528 c 0
 238 528 239 528 240 528 c 8
 285 533 304 559 345 579 c 25
 303 547 253 548 237 498 c 16
 223 453 213 412 213 373 c 0
 213 335 222 299 243 258 c 0
 270 206 320 192 377 192 c 2
 396 192 l 1
 460 195 540 209 540 272 c 0
 540 345 450 341 393 384 c 1048
EndSplineSet
EndChar

StartChar: sa.0001
Encoding: 130 -1 130
Width: 807
VWidth: 0
Flags: W
AnchorPoint: "ukaara" 646 0 basechar 0
AnchorPoint: "virama" 436 -120 basechar 0
AnchorPoint: "repha" 381 540 basechar 0
AnchorPoint: "aakaara" 687 594 basechar 0
AnchorPoint: "iikaara" 687 594 basechar 0
AnchorPoint: "ekaara" 246 579 basechar 0
AnchorPoint: "bindu" 436 740 basechar 0
LayerCount: 2
Back
Fore
SplineSet
687 594 m 24
 672 566 648 554 648 522 c 0
 646 405 646 312 646 213 c 0
 646 147 646 79 646 0 c 1024
360 111 m 0
 309 138 243 175 243 231 c 0
 243 251 251 272 270 297 c 0
 288 321 327 320 372 321 c 1
 385 321 l 2
 473 321 492 289 615 183 c 1024
246 579 m 25
 285 480 l 17
 282 495 280 510 280 522 c 0
 280 549 289 567 315 567 c 0
 343 567 352 540 376 540 c 2
 381 540 l 9
 433 547 456 571 504 591 c 25
 475 569 479 559 429 534 c 0
 303 471 390 450 303 360 c 0
 271 327 185 291 139 291 c 0
 131 291 125 292 120 294 c 1024
EndSplineSet
EndChar

StartChar: ha.0001
Encoding: 131 -1 131
Width: 822
VWidth: 0
Flags: W
AnchorPoint: "ukaara" 375 90 basechar 0
AnchorPoint: "virama" 427 -120 basechar 0
AnchorPoint: "repha" 381 531 basechar 0
AnchorPoint: "aakaara" 579 597 basechar 0
AnchorPoint: "iikaara" 579 597 basechar 0
AnchorPoint: "ekaara" 165 579 basechar 0
AnchorPoint: "bindu" 427 740 basechar 0
LayerCount: 2
Back
Fore
SplineSet
165 579 m 25
 216 492 l 25
 231 525 222 575 255 576 c 0
 257 576 259 576 261 576 c 0
 328 576 331 531 377 531 c 2
 381 531 l 9
 462 536 502 571 579 597 c 25
 489 537 440 501 348 444 c 24
 261 390 209 363 120 312 c 25
 166 289 191 287 237 252 c 0
 276 222 360 144 375 90 c 1
 343 149 329 198 329 235 c 0
 329 296 368 327 435 327 c 0
 630 327 529 220 594 156 c 24
 634 117 660 99 702 63 c 1048
EndSplineSet
EndChar

StartChar: kSa.0001
Encoding: 132 -1 132
Width: 891
VWidth: 0
Flags: W
AnchorPoint: "ukaara" 559 0 basechar 0
AnchorPoint: "repha" 416 516 basechar 0
AnchorPoint: "aakaara" 622 588 basechar 0
AnchorPoint: "iikaara" 622 588 basechar 0
AnchorPoint: "ekaara" 202 582 basechar 0
AnchorPoint: "bindu" 423 740 basechar 0
AnchorPoint: "virama" 423 -120 basechar 0
LayerCount: 2
Back
Fore
SplineSet
559 365 m 0
 560 314 560 272 560 233 c 0
 560 156 559 93 559 0 c 1024
276 384 m 0
 277 328 241 286 241 235 c 0
 241 209 251 181 278 148 c 0
 303 117 333 109 370 109 c 0
 379 109 388 109 397 110 c 8
 457 115 541 107 541 168 c 24
 541 238 454 234 398 276 c 1048
202 582 m 25
 250 489 l 25
 263 526 242 577 291 577 c 0
 340 577 361 516 414 516 c 2
 416 516 l 9
 501 519 542 560 622 588 c 25
 527 539 467 523 379 462 c 24
 269 386 221 325 120 238 c 25
 225 321 322 444 388 450 c 0
 395 451 402 451 409 451 c 0
 552 451 629 317 771 238 c 1032
EndSplineSet
EndChar

StartChar: zeronojoin
Encoding: 133 8204 133
Width: 0
VWidth: 0
Flags: W
LayerCount: 2
Back
Fore
SplineSet
-100 600 m 25
 100 800 l 1049
-100 800 m 25
 100 600 l 1049
0 -200 m 25
 0 700 l 1049
EndSplineSet
EndChar

StartChar: zerojoin
Encoding: 134 8205 134
Width: 0
VWidth: 0
Flags: W
LayerCount: 2
Back
Fore
SplineSet
0 -200 m 25
 0 700 l 1049
EndSplineSet
EndChar

StartChar: dottedcircle
Encoding: 135 9676 135
Width: 794
VWidth: 0
Flags: W
AnchorPoint: "ekaara" 107 600 basechar 0
AnchorPoint: "virama" 397 -100 basechar 0
AnchorPoint: "iikaara" 687 600 basechar 0
AnchorPoint: "aakaara" 687 600 basechar 0
AnchorPoint: "repha" 397 700 basechar 0
AnchorPoint: "bindu" 397 700 basechar 0
AnchorPoint: "ukaara" 397 -100 basechar 0
LayerCount: 2
Back
Fore
SplineSet
397 567 m 24
 412 567 424 555 424 540 c 24
 424 525 412 513 397 513 c 24
 382 513 370 525 370 540 c 24
 370 555 382 567 397 567 c 24
397 67 m 24
 412 67 424 55 424 40 c 24
 424 25 412 13 397 13 c 24
 382 13 370 25 370 40 c 24
 370 55 382 67 397 67 c 24
647 317 m 24
 662 317 674 305 674 290 c 24
 674 275 662 263 647 263 c 24
 632 263 620 275 620 290 c 24
 620 305 632 317 647 317 c 24
147 317 m 24
 162 317 174 305 174 290 c 24
 174 275 162 263 147 263 c 24
 132 263 120 275 120 290 c 24
 120 305 132 317 147 317 c 24
567 487 m 24
 582 487 594 475 594 460 c 24
 594 445 582 433 567 433 c 24
 552 433 540 445 540 460 c 24
 540 475 552 487 567 487 c 24
567 147 m 24
 582 147 594 135 594 120 c 24
 594 105 582 93 567 93 c 24
 552 93 540 105 540 120 c 24
 540 135 552 147 567 147 c 24
227 147 m 24
 242 147 254 135 254 120 c 24
 254 105 242 93 227 93 c 24
 212 93 200 105 200 120 c 24
 200 135 212 147 227 147 c 24
227 487 m 24
 242 487 254 475 254 460 c 24
 254 445 242 433 227 433 c 24
 212 433 200 445 200 460 c 24
 200 475 212 487 227 487 c 24
EndSplineSet
EndChar

StartChar: kya
Encoding: 136 -1 136
Width: 728
VWidth: 0
Flags: W
AnchorPoint: "virama" 327 -155 basechar 0
AnchorPoint: "ukaara" 320 -33 basechar 0
AnchorPoint: "repha" 340 550 basechar 0
AnchorPoint: "aakaara" 494 593 basechar 0
AnchorPoint: "iikaara" 494 593 basechar 0
AnchorPoint: "ekaara" 180 589 basechar 0
AnchorPoint: "bindu" 345 740 basechar 0
LayerCount: 2
Back
Fore
SplineSet
180 589 m 25
 216 533 l 25
 225 553 217 583 239 586 c 17
 246 586 l 2
 283 586 300 550 339 550 c 2
 340 550 l 9
 403 552 434 576 494 593 c 25
 423 564 373 563 312 517 c 24
 224 450 195 390 120 309 c 25
 198 387 269 506 319 510 c 1
 330 510 l 2
 440 510 499 384 608 309 c 1032
533 213 m 0
 533 -30 467 -33 320 -33 c 0
 206 -33 139 31 134 150 c 0
 134 152 134 154 134 156 c 0
 134 167 128 171 122 171 c 0
 112 171 100 161 100 148 c 0
 100 127 133 99 263 99 c 0
 336 99 356 112 356 216 c 2
 356 240 l 2
 356 295 357 354 357 414 c 0
 357 444 357 474 356 505 c 1024
EndSplineSet
LCarets2: 2 0 0
Ligature2: "Letter Conjunction-1" ka virAma ya
EndChar

StartChar: khya
Encoding: 137 -1 137
Width: 782
VWidth: 0
Flags: W
AnchorPoint: "virama" 475 -155 basechar 0
AnchorPoint: "ukaara" 468 -33 basechar 0
AnchorPoint: "repha" 372 530 basechar 0
AnchorPoint: "aakaara" 604 595 basechar 0
AnchorPoint: "iikaara" 604 595 basechar 0
AnchorPoint: "ekaara" 228 562 basechar 0
AnchorPoint: "bindu" 357 740 basechar 0
LayerCount: 2
Back
Fore
SplineSet
428 515 m 24
 406 493 384 485 372 458 c 16
 360 430 353 408 353 383 c 0
 353 373 354 363 356 352 c 8
 359 336 377 327 397 326 c 16
 398 326 399 326 400 326 c 0
 431 326 447 340 478 348 c 1032
228 438 m 0
 242 420 248 389 248 358 c 0
 248 311 236 263 224 251 c 1024
264 488 m 0
 212 445 210 406 120 395 c 1024
253 483 m 16
 217 487 203 505 203 523 c 0
 203 546 224 568 250 568 c 0
 283 568 311 530 372 530 c 0
 442 530 541 557 604 595 c 1032
662 210 m 0
 632 15 588 -15 468 -33 c 16
 456 -35 445 -36 433 -36 c 0
 328 -36 219 38 219 147 c 0
 219 161 224 166 233 166 c 0
 264 166 343 99 411 99 c 0
 484 99 504 112 504 216 c 2
 504 240 l 1
 501 322 496 372 496 446 c 2
 496 478 l 10
 496 503 504 516 509 541 c 1048
EndSplineSet
LCarets2: 2 0 0
Ligature2: "Letter Conjunction-1" kha virAma ya
EndChar

StartChar: gya
Encoding: 138 -1 138
Width: 794
VWidth: 0
Flags: W
AnchorPoint: "virama" 469 -155 basechar 0
AnchorPoint: "ukaara" 462 -33 basechar 0
AnchorPoint: "repha" 372 530 basechar 0
AnchorPoint: "aakaara" 604 595 basechar 0
AnchorPoint: "iikaara" 604 595 basechar 0
AnchorPoint: "ekaara" 228 562 basechar 0
AnchorPoint: "bindu" 357 740 basechar 0
LayerCount: 2
Back
Fore
SplineSet
228 438 m 0
 242 420 248 389 248 358 c 0
 248 311 236 263 224 251 c 1024
264 488 m 0
 212 445 210 406 120 395 c 1024
253 483 m 16
 217 487 203 505 203 523 c 0
 203 546 224 568 250 568 c 0
 283 568 311 530 372 530 c 0
 442 530 541 557 604 595 c 1032
674 201 m 4
 644 6 584 -18 462 -33 c 16
 452 -34 441 -35 431 -35 c 0
 324 -35 213 36 213 147 c 0
 213 161 218 166 227 166 c 0
 258 166 337 99 405 99 c 0
 478 99 498 112 498 216 c 2
 498 240 l 1
 497 308 495 354 495 411 c 0
 495 431 495 453 496 478 c 8
 497 503 504 516 509 541 c 1048
EndSplineSet
LCarets2: 2 0 0
Ligature2: "Letter Conjunction-1" ga virAma ya
EndChar

StartChar: ghya
Encoding: 139 -1 139
Width: 762
VWidth: 0
Flags: W
AnchorPoint: "virama" 462 -155 basechar 0
AnchorPoint: "ukaara" 454 -33 basechar 0
AnchorPoint: "repha" 381 582 basechar 0
AnchorPoint: "aakaara" 530 591 basechar 0
AnchorPoint: "iikaara" 530 591 basechar 0
AnchorPoint: "ekaara" 120 573 basechar 0
AnchorPoint: "bindu" 344 740 basechar 0
LayerCount: 2
Back
Fore
SplineSet
120 573 m 25
 149 517 l 17
 145 533 129 550 129 562 c 0
 129 568 136 575 144 575 c 0
 161 575 172 544 193 544 c 2
 194 544 l 9
 223 545 218 563 260 578 c 9
 229 553 194 552 181 515 c 16
 172 488 169 463 169 439 c 0
 169 403 176 369 178 337 c 0
 180 318 205 310 228 310 c 2
 232 310 l 9
 264 311 296 313 309 343 c 24
 342 423 327 476 338 562 c 1040
491 557 m 16
 490 542 490 528 490 513 c 0
 490 473 492 435 492 400 c 0
 492 363 490 329 482 303 c 0
 475 281 449 266 422 266 c 0
 376 266 347 292 334 330 c 16
 333 332 331 373 331 423 c 0
 331 466 333 516 340 555 c 8
 343 574 365 571 381 582 c 1048
642 195 m 0
 612 0 568 -20 454 -33 c 16
 444 -34 435 -35 425 -35 c 0
 318 -35 206 36 206 147 c 0
 206 161 211 166 220 166 c 0
 251 166 330 99 398 99 c 0
 471 99 490 112 490 215 c 2
 490 240 l 1
 491 569 l 9
 506 577 515 583 530 591 c 1048
EndSplineSet
LCarets2: 2 0 0
Ligature2: "Letter Conjunction-1" gha virAma ya
EndChar

StartChar: cya
Encoding: 140 -1 140
Width: 606
VWidth: 0
Flags: W
AnchorPoint: "virama" 314 -122 basechar 0
AnchorPoint: "ukaara" 307 0 basechar 0
AnchorPoint: "repha" 330 566 basechar 0
AnchorPoint: "aakaara" 454 604 basechar 0
AnchorPoint: "iikaara" 454 604 basechar 0
AnchorPoint: "ekaara" 188 593 basechar 0
AnchorPoint: "bindu" 340 740 basechar 0
LayerCount: 2
Back
Fore
SplineSet
346 557 m 24
 317 525 307 501 271 474 c 24
 222 437 185 426 130 395 c 25
 177 385 206 388 249 370 c 24
 284 355 293 336 321 314 c 1048
486 231 m 0
 456 36 420 16 307 0 c 16
 299 -1 291 -2 283 -2 c 0
 194 -2 125 71 120 180 c 0
 120 182 120 184 120 186 c 0
 120 197 121 202 125 202 c 0
 139 202 181 132 250 132 c 0
 267 132 282 131 294 131 c 0
 332 131 344 140 344 217 c 2
 344 240 l 2
 344 269 343 294 343 317 c 0
 343 399 346 455 355 546 c 0
 359 584 415 582 454 604 c 25
 406 589 380 568 330 566 c 17
 329 566 l 2
 298 566 283 595 253 595 c 0
 251 595 249 595 247 595 c 8
 225 592 225 568 211 551 c 25
 188 593 l 1049
EndSplineSet
LCarets2: 2 0 0
Ligature2: "Letter Conjunction-1" ca virAma ya
EndChar

StartChar: chya
Encoding: 141 -1 141
Width: 682
VWidth: 0
Flags: W
AnchorPoint: "virama" 310 -95 basechar 0
AnchorPoint: "ukaara" 303 27 basechar 0
AnchorPoint: "repha" 344 582 basechar 0
AnchorPoint: "aakaara" 452 607 basechar 0
AnchorPoint: "iikaara" 452 607 basechar 0
AnchorPoint: "ekaara" 241 598 basechar 0
AnchorPoint: "bindu" 343 740 basechar 0
LayerCount: 2
Back
Fore
SplineSet
310 436 m 16
 276 450 261 474 224 474 c 2
 220 474 l 9
 179 472 133 461 133 426 c 0
 133 391 165 356 206 356 c 0
 209 356 213 357 216 357 c 8
 324 372 350 454 457 472 c 16
 463 473 470 473 476 473 c 0
 519 473 562 452 562 419 c 0
 562 372 498 359 445 357 c 17
 441 357 l 2
 403 357 392 388 360 406 c 1032
531 240 m 0
 501 45 424 37 303 27 c 16
 298 27 292 26 287 26 c 0
 195 26 125 94 120 207 c 1
 120 214 l 2
 120 225 122 229 125 229 c 0
 138 229 177 159 246 159 c 0
 319 159 339 172 339 276 c 2
 339 300 l 1
 337 370 335 402 335 434 c 0
 335 462 337 492 342 546 c 0
 346 584 409 583 452 607 c 25
 410 597 387 584 344 582 c 17
 343 582 l 2
 324 582 313 601 297 601 c 0
 271 601 274 574 263 557 c 25
 241 598 l 1049
EndSplineSet
LCarets2: 2 0 0
Ligature2: "Letter Conjunction-1" cha virAma ya
EndChar

StartChar: jya
Encoding: 142 -1 142
Width: 667
VWidth: 0
Flags: W
AnchorPoint: "virama" 322 -155 basechar 0
AnchorPoint: "ukaara" 315 -33 basechar 0
AnchorPoint: "repha" 320 544 basechar 0
AnchorPoint: "aakaara" 548 467 basechar 0
AnchorPoint: "iikaara" 514 591 basechar 0
AnchorPoint: "ekaara" 167 577 basechar 0
AnchorPoint: "bindu" 334 740 basechar 0
LayerCount: 2
Back
Fore
SplineSet
514 591 m 16
 464 587 430 588 430 554 c 0
 430 518 501 486 548 467 c 1024
293 481 m 24
 325 464 346 457 376 438 c 24
 422 409 445 389 489 357 c 1048
532 168 m 0
 502 -27 430 -26 315 -33 c 17
 302 -33 l 2
 207 -33 131 30 126 144 c 0
 126 146 126 148 126 150 c 0
 126 162 128 166 132 166 c 0
 147 166 190 99 258 99 c 0
 331 99 351 112 351 216 c 2
 351 294 l 17
 315 325 284 339 238 361 c 24
 194 382 166 386 120 402 c 25
 179 434 213 451 271 485 c 24
 337 524 372 550 437 591 c 17
 397 571 388 546 320 544 c 0
 318 544 316 544 314 544 c 0
 296 544 291 547 291 551 c 0
 291 555 296 560 296 564 c 0
 296 567 294 569 284 569 c 0
 263 569 251 561 251 546 c 0
 251 535 258 520 273 503 c 9
 167 577 l 1049
EndSplineSet
LCarets2: 2 0 0
Ligature2: "Letter Conjunction-1" ja virAma ya
EndChar

StartChar: jhya
Encoding: 143 -1 143
Width: 624
VWidth: 0
Flags: W
AnchorPoint: "virama" 280 -155 basechar 0
AnchorPoint: "ukaara" 273 -33 basechar 0
AnchorPoint: "repha" 284 564 basechar 0
AnchorPoint: "aakaara" 505 487 basechar 0
AnchorPoint: "ekaara" 187 589 basechar 0
AnchorPoint: "iikaara" 403 589 basechar 0
AnchorPoint: "bindu" 334 740 basechar 0
LayerCount: 2
Back
Fore
SplineSet
325 451 m 24
 350 445 366 445 388 434 c 24
 421 417 433 401 462 380 c 25
 447 402 424 402 424 438 c 0
 424 485 487 485 505 487 c 1032
187 589 m 25
 210 546 l 25
 220 563 216 589 235 589 c 16
 237 589 239 590 240 590 c 0
 257 590 264 564 284 564 c 8
 331 564 357 579 403 589 c 25
 368 568 314 570 313 535 c 0
 311 475 310 444 310 416 c 0
 310 388 311 362 311 312 c 0
 311 298 306 293 297 293 c 0
 277 293 239 322 212 337 c 9
 309 240 l 17
 309 216 l 2
 309 118 291 99 227 99 c 2
 216 99 l 1
 176 100 173 134 140 142 c 16
 139 142 138 143 137 143 c 0
 128 143 120 133 120 123 c 0
 124 16 177 -35 248 -35 c 0
 256 -35 264 -34 273 -33 c 8
 382 -21 432 -21 462 174 c 1024
EndSplineSet
LCarets2: 2 0 0
Ligature2: "Letter Conjunction-1" jha virAma ya
EndChar

StartChar: Jya
Encoding: 144 -1 144
Width: 685
VWidth: 0
Flags: W
AnchorPoint: "virama" 343 -155 basechar 0
AnchorPoint: "ukaara" 336 -33 basechar 0
AnchorPoint: "repha" 345 560 basechar 0
AnchorPoint: "aakaara" 566 483 basechar 0
AnchorPoint: "ekaara" 120 569 basechar 0
AnchorPoint: "iikaara" 464 586 basechar 0
AnchorPoint: "bindu" 362 740 basechar 0
LayerCount: 2
Back
Fore
SplineSet
386 447 m 24
 411 441 426 442 448 431 c 24
 481 414 494 398 523 377 c 25
 508 399 484 398 484 434 c 0
 484 481 548 481 566 483 c 1032
120 569 m 24
 140 581 148 600 172 600 c 16
 174 600 176 600 178 600 c 0
 201 600 216 590 237 577 c 8
 253 567 258 556 271 542 c 25
 277 557 274 583 295 583 c 0
 314 583 324 560 345 560 c 8
 393 560 418 576 464 586 c 25
 429 565 375 567 374 532 c 0
 372 472 372 440 372 412 c 2
 372 308 l 2
 372 294 367 289 358 289 c 0
 338 289 300 319 273 334 c 9
 372 240 l 17
 372 216 l 2
 372 112 352 99 279 99 c 8
 232 99 221 147 176 162 c 16
 175 163 173 163 172 163 c 0
 163 163 154 152 154 142 c 0
 154 28 233 -34 321 -34 c 0
 326 -34 331 -33 336 -33 c 8
 443 -33 492 -27 522 168 c 1024
EndSplineSet
LCarets2: 2 0 0
Ligature2: "Letter Conjunction-1" Ja virAma ya
EndChar

StartChar: Tya
Encoding: 145 -1 145
Width: 664
VWidth: 0
Flags: W
AnchorPoint: "virama" 325 -117 basechar 0
AnchorPoint: "ukaara" 318 5 basechar 0
AnchorPoint: "repha" 326 559 basechar 0
AnchorPoint: "aakaara" 544 467 basechar 0
AnchorPoint: "iikaara" 510 591 basechar 0
AnchorPoint: "ekaara" 157 591 basechar 0
AnchorPoint: "bindu" 331 740 basechar 0
LayerCount: 2
Back
Fore
SplineSet
513 204 m 0
 483 9 426 12 318 5 c 16
 314 5 310 5 306 5 c 0
 217 5 152 66 147 180 c 1
 147 189 l 2
 147 199 147 203 150 203 c 0
 160 203 193 138 261 137 c 1
 265 137 l 2
 368 137 398 177 398 289 c 2
 398 306 l 1
 348 289 307 281 271 281 c 0
 222 281 183 296 144 326 c 0
 130 337 122 350 122 365 c 0
 122 382 133 402 159 422 c 0
 206 459 283 446 346 490 c 0
 364 503 366 507 366 512 c 0
 366 521 360 530 434 591 c 1
 380 564 394 561 326 559 c 1
 319 559 l 2
 266 559 275 582 240 582 c 0
 206 582 200 561 193 521 c 9
 157 591 l 1049
510 591 m 16
 460 587 427 587 427 554 c 0
 427 518 497 486 544 467 c 1024
EndSplineSet
LCarets2: 2 0 0
Ligature2: "Letter Conjunction-1" Ta virAma ya
EndChar

StartChar: Thya
Encoding: 146 -1 146
Width: 676
VWidth: 0
Flags: W
AnchorPoint: "virama" 306 -120 basechar 0
AnchorPoint: "ukaara" 299 2 basechar 0
AnchorPoint: "aakaara" 517 562 basechar 0
AnchorPoint: "repha" 354 591 basechar 0
AnchorPoint: "iikaara" 354 591 basechar 0
AnchorPoint: "ekaara" 305 557 basechar 0
AnchorPoint: "bindu" 335 740 basechar 0
LayerCount: 2
Back
Fore
SplineSet
354 591 m 24
 264 507 120 526 120 374 c 0
 120 290 238 278 335 275 c 1
 361 275 l 2
 452 275 553 291 557 361 c 0
 557 363 557 365 557 367 c 0
 557 465 438 529 350 560 c 1024
335 275 m 17
 335 251 l 2
 335 147 315 134 242 134 c 0
 173 134 140 205 130 205 c 0
 128 205 127 200 127 191 c 2
 127 183 l 1
 132 68 197 2 289 2 c 2
 299 2 l 9
 409 7 469 6 499 201 c 1024
EndSplineSet
LCarets2: 2 0 0
Ligature2: "Letter Conjunction-1" Tha virAma ya
EndChar

StartChar: Dya
Encoding: 147 -1 147
Width: 597
VWidth: 0
Flags: W
AnchorPoint: "virama" 284 -155 basechar 0
AnchorPoint: "ukaara" 277 -33 basechar 0
AnchorPoint: "repha" 268 548 basechar 0
AnchorPoint: "aakaara" 419 593 basechar 0
AnchorPoint: "iikaara" 419 593 basechar 0
AnchorPoint: "ekaara" 131 584 basechar 0
AnchorPoint: "bindu" 298 740 basechar 0
LayerCount: 2
Back
Fore
SplineSet
477 216 m 0
 447 21 399 -6 277 -33 c 16
 267 -35 258 -36 249 -36 c 0
 176 -36 124 32 120 138 c 1
 120 151 l 2
 120 158 121 161 122 161 c 0
 129 161 153 99 220 99 c 0
 293 99 313 112 313 216 c 2
 313 240 l 1
 256 256 187 305 187 305 c 18
 219 289 250 257 279 257 c 0
 286 257 293 259 300 263 c 0
 325 279 318 276 322 395 c 1
 322 425 l 2
 322 471 319 485 311 485 c 0
 301 485 286 462 266 451 c 2
 174 397 l 25
 220 429 247 444 291 479 c 24
 343 521 369 549 419 593 c 25
 360 575 329 552 268 548 c 17
 266 548 l 2
 240 548 227 578 202 578 c 0
 200 578 198 577 196 577 c 8
 173 572 176 546 163 526 c 25
 131 584 l 1049
EndSplineSet
LCarets2: 2 0 0
Ligature2: "Letter Conjunction-1" Da virAma ya
EndChar

StartChar: Dhya
Encoding: 148 -1 148
Width: 746
VWidth: 0
Flags: W
AnchorPoint: "virama" 460 -125 basechar 0
AnchorPoint: "ukaara" 453 -3 basechar 0
AnchorPoint: "repha" 390 559 basechar 0
AnchorPoint: "aakaara" 530 595 basechar 0
AnchorPoint: "iikaara" 530 595 basechar 0
AnchorPoint: "ekaara" 228 587 basechar 0
AnchorPoint: "bindu" 366 740 basechar 0
LayerCount: 2
Back
Fore
SplineSet
228 587 m 25
 266 535 l 25
 278 553 273 581 298 582 c 0
 300 582 302 582 304 582 c 0
 352 582 353 559 386 559 c 2
 390 559 l 9
 447 562 476 581 530 595 c 25
 470 551 444 517 376 481 c 24
 283 432 220 419 120 380 c 25
 186 370 226 373 289 355 c 24
 327 344 339 325 374 310 c 16
 415 293 437 270 481 270 c 2
 489 270 l 9
 548 274 610 280 624 326 c 16
 625 331 626 335 626 340 c 0
 626 377 581 404 534 420 c 0
 529 422 524 423 519 423 c 0
 493 423 475 397 446 386 c 1032
489 270 m 17
 489 246 l 2
 489 142 469 129 396 129 c 0
 328 129 249 196 218 196 c 0
 209 196 204 191 204 177 c 0
 204 64 319 -4 428 -4 c 0
 436 -4 445 -4 453 -3 c 8
 560 7 593 18 623 213 c 1024
EndSplineSet
Ligature2: "Letter Conjunction-1" Dha virAma ya
EndChar

StartChar: Nya
Encoding: 149 -1 149
Width: 726
VWidth: 0
Flags: W
AnchorPoint: "virama" 368 -155 basechar 0
AnchorPoint: "ukaara" 361 -33 basechar 0
AnchorPoint: "repha" 393 595 basechar 0
AnchorPoint: "aakaara" 606 332 basechar 0
AnchorPoint: "iikaara" 548 589 basechar 0
AnchorPoint: "ekaara" 141 490 basechar 0
AnchorPoint: "bindu" 403 740 basechar 0
LayerCount: 2
Back
Fore
SplineSet
161 260 m 16
 131 298 120 333 120 370 c 0
 120 407 131 446 141 490 c 8
 148 521 185 535 226 535 c 0
 264 535 275 502 275 461 c 0
 275 406 255 337 255 317 c 1
 255 317 324 357 352 357 c 0
 390 357 397 240 397 240 c 9
 393 595 l 25
 404 571 388 533 420 533 c 0
 488 533 519 588 548 589 c 1
 526 538 508 493 508 440 c 0
 508 423 510 405 514 386 c 8
 522 351 570 353 606 332 c 1048
397 240 m 17
 397 216 l 2
 397 112 377 99 304 99 c 0
 236 99 191 166 175 166 c 0
 171 166 169 162 169 150 c 0
 169 148 169 146 169 144 c 0
 174 33 248 -34 340 -34 c 0
 347 -34 354 -34 361 -33 c 8
 476 -21 532 -9 562 186 c 1024
EndSplineSet
LCarets2: 2 0 0
Ligature2: "Letter Conjunction-1" Na virAma ya
EndChar

StartChar: tya
Encoding: 150 -1 150
Width: 574
VWidth: 0
Flags: W
AnchorPoint: "virama" 276 -122 basechar 0
AnchorPoint: "ukaara" 269 0 basechar 0
AnchorPoint: "repha" 285 562 basechar 0
AnchorPoint: "aakaara" 420 598 basechar 0
AnchorPoint: "iikaara" 420 598 basechar 0
AnchorPoint: "ekaara" 130 589 basechar 0
AnchorPoint: "bindu" 264 740 basechar 0
LayerCount: 2
Back
Fore
SplineSet
455 210 m 0
 425 15 380 0 269 0 c 0
 188 0 126 25 121 144 c 0
 121 152 120 159 120 163 c 0
 120 170 120 172 122 172 c 0
 128 172 150 132 212 132 c 0
 285 132 305 145 305 249 c 2
 305 273 l 2
 305 379 303 370 303 528 c 0
 303 533 301 536 299 536 c 0
 280 536 192 378 134 324 c 5
 292 522 207 470 281 541 c 24
 324 582 366 576 420 598 c 25
 367 584 339 565 285 562 c 16
 284 562 283 562 282 562 c 0
 249 562 230 587 201 587 c 0
 164 587 176 558 164 533 c 25
 130 589 l 1049
EndSplineSet
LCarets2: 2 0 0
Ligature2: "Letter Conjunction-1" ta virAma ya
EndChar

StartChar: thya
Encoding: 151 -1 151
Width: 677
VWidth: 0
Flags: W
AnchorPoint: "virama" 376 -155 basechar 0
AnchorPoint: "ukaara" 369 -33 basechar 0
AnchorPoint: "repha" 321 589 basechar 0
AnchorPoint: "aakaara" 465 591 basechar 0
AnchorPoint: "iikaara" 465 591 basechar 0
AnchorPoint: "ekaara" 245 576 basechar 0
AnchorPoint: "bindu" 333 740 basechar 0
LayerCount: 2
Back
Fore
SplineSet
416 562 m 16
 381 572 368 589 328 589 c 2
 321 589 l 1
 258 586 206 570 182 523 c 16
 179 517 177 511 177 505 c 0
 177 477 208 450 245 442 c 0
 269 437 286 433 303 433 c 0
 330 433 356 442 407 470 c 1
 310 405 248 437 184 377 c 16
 163 357 151 333 151 310 c 0
 151 291 159 272 177 256 c 0
 187 247 227 240 268 240 c 0
 290 240 313 242 330 247 c 0
 373 260 372 274 398 292 c 1048
557 183 m 0
 527 -12 480 -23 369 -33 c 16
 361 -34 352 -34 344 -34 c 0
 235 -34 120 34 120 147 c 0
 120 161 125 166 134 166 c 0
 165 166 244 99 312 99 c 0
 385 99 405 112 405 216 c 2
 405 268 l 2
 405 366 419 398 436 555 c 0
 438 572 454 577 465 591 c 1048
EndSplineSet
Ligature2: "Letter Conjunction-1" tha virAma ya
EndChar

StartChar: dya
Encoding: 152 -1 152
Width: 602
VWidth: 0
Flags: W
AnchorPoint: "virama" 274 -95 basechar 0
AnchorPoint: "ukaara" 267 27 basechar 0
AnchorPoint: "repha" 307 562 basechar 0
AnchorPoint: "aakaara" 471 589 basechar 0
AnchorPoint: "iikaara" 471 589 basechar 0
AnchorPoint: "ekaara" 176 578 basechar 0
AnchorPoint: "bindu" 310 740 basechar 0
LayerCount: 2
Back
Fore
SplineSet
176 578 m 25
 208 523 l 25
 220 546 210 578 246 578 c 0
 265 578 282 562 304 562 c 0
 305 562 306 562 307 562 c 8
 372 566 407 578 471 589 c 17
 370 566 369 572 304 505 c 0
 222 421 162 418 122 416 c 9
 179 407 216 417 268 393 c 24
 306 375 313 345 342 314 c 1048
473 237 m 0
 443 42 380 47 267 27 c 16
 257 25 248 24 239 24 c 0
 174 24 126 70 122 174 c 0
 122 184 121 191 121 195 c 0
 121 200 122 201 123 201 c 0
 128 201 147 159 210 159 c 0
 288 159 300 195 301 240 c 1
 301 286 318 285 338 307 c 24
 389 361 426 383 482 432 c 1048
EndSplineSet
LCarets2: 2 0 0
Ligature2: "Letter Conjunction-1" da virAma ya
EndChar

StartChar: dhya
Encoding: 153 -1 153
Width: 672
VWidth: 0
Flags: W
AnchorPoint: "virama" 403 -155 basechar 0
AnchorPoint: "ukaara" 396 -33 basechar 0
AnchorPoint: "repha" 346 569 basechar 0
AnchorPoint: "aakaara" 472 596 basechar 0
AnchorPoint: "iikaara" 472 596 basechar 0
AnchorPoint: "ekaara" 222 521 basechar 0
AnchorPoint: "bindu" 343 740 basechar 0
LayerCount: 2
Back
Fore
SplineSet
416 564 m 16
 396 567 377 569 359 569 c 0
 310 569 267 556 222 521 c 0
 160 472 120 421 120 346 c 0
 120 341 121 335 121 330 c 8
 125 271 167 240 242 240 c 0
 328 240 346 265 413 280 c 1048
553 168 m 0
 523 -27 494 -18 396 -33 c 16
 379 -36 361 -37 343 -37 c 0
 245 -37 139 5 139 108 c 0
 139 128 126 134 118 134 c 0
 114 134 111 132 111 130 c 0
 111 121 153 99 339 99 c 0
 412 99 432 112 432 216 c 2
 432 240 l 1
 431 277 430 310 430 342 c 0
 430 414 433 479 438 559 c 0
 439 577 459 581 472 596 c 1048
EndSplineSet
LCarets2: 2 0 0
Ligature2: "Letter Conjunction-1" dha virAma ya
EndChar

StartChar: nya
Encoding: 154 -1 154
Width: 622
VWidth: 0
Flags: W
AnchorPoint: "virama" 314 -122 basechar 0
AnchorPoint: "ukaara" 307 0 basechar 0
AnchorPoint: "repha" 335 560 basechar 0
AnchorPoint: "aakaara" 456 598 basechar 0
AnchorPoint: "iikaara" 456 598 basechar 0
AnchorPoint: "ekaara" 198 596 basechar 0
AnchorPoint: "bindu" 293 740 basechar 0
LayerCount: 2
Back
Fore
SplineSet
198 596 m 25
 227 546 l 25
 234 564 226 590 245 593 c 16
 247 593 249 593 251 593 c 0
 283 593 300 560 334 560 c 2
 335 560 l 9
 385 561 409 583 456 598 c 25
 409 579 370 568 335 550 c 0
 273 518 288 420 234 352 c 16
 223 339 209 334 194 334 c 0
 163 334 118 353 118 377 c 0
 118 379 118 381 119 383 c 1024
502 210 m 0
 472 15 418 15 307 0 c 16
 298 -1 290 -2 281 -2 c 0
 202 -2 138 52 133 159 c 1
 133 167 l 2
 133 179 134 184 138 184 c 0
 150 184 185 132 250 132 c 0
 323 132 343 145 343 249 c 2
 343 273 l 1
 339 403 339 368 339 456 c 0
 339 506 316 486 301 506 c 1048
EndSplineSet
LCarets2: 2 0 0
Ligature2: "Letter Conjunction-1" na virAma ya
EndChar

StartChar: pya
Encoding: 155 -1 155
Width: 706
VWidth: 0
Flags: W
AnchorPoint: "virama" 422 -155 basechar 0
AnchorPoint: "ukaara" 415 -33 basechar 0
AnchorPoint: "repha" 210 557 basechar 0
AnchorPoint: "aakaara" 476 598 basechar 0
AnchorPoint: "iikaara" 476 598 basechar 0
AnchorPoint: "ekaara" 120 591 basechar 0
AnchorPoint: "bindu" 332 740 basechar 0
LayerCount: 2
Back
Fore
SplineSet
120 591 m 25
 149 532 l 17
 145 547 129 562 129 573 c 0
 129 581 139 584 147 584 c 0
 168 584 183 557 209 557 c 2
 210 557 l 9
 243 558 258 575 289 587 c 25
 257 568 218 574 208 539 c 16
 198 502 192 470 192 439 c 0
 192 405 199 371 218 334 c 4
 236 300 270 293 308 293 c 0
 316 293 325 294 333 294 c 12
 379 296 399 324 441 343 c 1052
586 186 m 0
 556 -9 523 -21 415 -33 c 16
 407 -34 398 -34 390 -34 c 0
 292 -34 196 33 196 145 c 0
 196 159 199 164 206 164 c 0
 229 164 290 99 358 99 c 0
 431 99 451 112 451 216 c 2
 451 240 l 2
 451 355 450 440 448 568 c 0
 448 583 465 586 476 598 c 1048
EndSplineSet
LCarets2: 2 0 0
Ligature2: "Letter Conjunction-1" pa virAma ya
EndChar

StartChar: phya
Encoding: 156 -1 156
Width: 707
VWidth: 0
Flags: W
AnchorPoint: "virama" 284 -155 basechar 0
AnchorPoint: "ukaara" 277 -33 basechar 0
AnchorPoint: "repha" 371 548 basechar 0
AnchorPoint: "aakaara" 551 591 basechar 0
AnchorPoint: "iikaara" 551 591 basechar 0
AnchorPoint: "ekaara" 166 564 basechar 0
AnchorPoint: "bindu" 376 740 basechar 0
LayerCount: 2
Back
Fore
SplineSet
166 564 m 25
 202 494 l 17
 206 500 207 506 207 512 c 0
 207 519 205 526 205 532 c 0
 205 545 211 555 245 560 c 0
 257 562 267 562 275 562 c 0
 314 562 313 546 349 546 c 0
 355 546 362 547 371 548 c 0
 443 557 481 574 551 591 c 25
 454 557 390 553 304 503 c 16
 231 461 153 435 153 364 c 0
 153 292 254 285 313 240 c 1
 304 263 300 284 300 303 c 0
 300 383 374 424 479 424 c 0
 547 424 587 409 587 366 c 0
 587 303 544 297 504 283 c 1024
313 240 m 17
 313 216 l 2
 313 112 293 99 220 99 c 0
 156 99 131 144 123 144 c 0
 121 144 120 140 120 130 c 2
 120 117 l 1
 125 7 183 -34 258 -34 c 0
 264 -34 271 -34 277 -33 c 8
 383 -24 450 -48 480 147 c 1024
EndSplineSet
Ligature2: "Letter Conjunction-1" pha virAma ya
EndChar

StartChar: bya
Encoding: 157 -1 157
Width: 576
VWidth: 0
Flags: W
AnchorPoint: "virama" 292 -155 basechar 0
AnchorPoint: "ukaara" 285 -33 basechar 0
AnchorPoint: "ekaara" 166 593 basechar 0
AnchorPoint: "iikaara" 432 604 basechar 0
AnchorPoint: "aakaara" 432 604 basechar 0
AnchorPoint: "repha" 308 566 basechar 0
AnchorPoint: "bindu" 318 740 basechar 0
LayerCount: 2
Back
Fore
SplineSet
166 593 m 1049
306 544 m 16,13,14
 234 452 262 466 206 430 c 0,15,16
 173 408 144 370 144 323 c 0,0,0
 144 320 144 317 144 314 c 8,17,18
 147 279 187 262 218 262 c 0,19,20
 263 262 299 289 315 314 c 1024
166 593 m 1049
456 180 m 0,23,24
 426 -15 391 -21 285 -33 c 16,6,7
 278 -34 271 -34 265 -34 c 0,0,0
 182 -34 125 31 120 141 c 1,4,5
 120 151 l 2,0,0
 120 160 121 164 123 164 c 0,0,0
 132 164 160 99 228 99 c 0,2,3
 301 99 321 112 321 216 c 2,0,0
 321 240 l 2,0,1
 321 265 320 287 320 307 c 0,0,0
 320 395 324 451 333 546 c 0,9,10
 337 584 393 582 432 604 c 25,7,8
 384 589 358 568 308 566 c 16,5,6
 307 566 306 566 305 566 c 0,0,0
 272 566 254 594 222 594 c 0,0,0
 220 594 217 593 214 593 c 8,3,4
 195 591 199 567 189 551 c 25,1,2
 166 593 l 1049,0,-1
EndSplineSet
LCarets2: 2 0 0
Ligature2: "Letter Conjunction-1" ba virAma ya
EndChar

StartChar: bhya
Encoding: 158 -1 158
Width: 709
VWidth: 0
Flags: W
AnchorPoint: "virama" 414 -155 basechar 0
AnchorPoint: "ukaara" 407 -33 basechar 0
AnchorPoint: "repha" 345 559 basechar 0
AnchorPoint: "aakaara" 484 595 basechar 0
AnchorPoint: "iikaara" 484 595 basechar 0
AnchorPoint: "ekaara" 183 587 basechar 0
AnchorPoint: "bindu" 332 740 basechar 0
LayerCount: 2
Back
Fore
SplineSet
183 587 m 25
 221 535 l 25
 231 555 221 585 246 586 c 1
 251 586 l 2
 300 586 306 559 341 559 c 2
 345 559 l 9
 401 561 430 581 484 595 c 25
 424 535 402 487 331 440 c 24
 257 391 201 388 119 354 c 1048
589 183 m 0
 559 -12 517 -23 407 -33 c 16
 400 -34 393 -34 386 -34 c 0
 281 -34 175 36 175 150 c 0
 175 163 179 169 186 169 c 0
 212 169 281 99 350 99 c 0
 423 99 443 112 443 216 c 2
 443 240 l 2
 443 263 440 282 440 304 c 0
 440 316 442 331 442 344 c 0
 442 386 415 435 366 435 c 0
 351 435 335 431 320 424 c 0
 280 408 257 389 257 357 c 0
 257 340 264 318 279 291 c 1032
EndSplineSet
LCarets2: 2 0 0
Ligature2: "Letter Conjunction-1" bha virAma ya
EndChar

StartChar: mya
Encoding: 159 -1 159
Width: 680
VWidth: 0
Flags: W
AnchorPoint: "virama" 400 -155 basechar 0
AnchorPoint: "ukaara" 393 -33 basechar 0
AnchorPoint: "repha" 217 557 basechar 0
AnchorPoint: "aakaara" 455 598 basechar 0
AnchorPoint: "iikaara" 455 598 basechar 0
AnchorPoint: "ekaara" 127 591 basechar 0
AnchorPoint: "bindu" 312 740 basechar 0
LayerCount: 2
Back
Fore
SplineSet
127 591 m 25
 156 532 l 17
 152 547 134 562 134 573 c 0
 134 580 145 584 153 584 c 0
 174 584 190 557 216 557 c 2
 217 557 l 9
 251 558 265 575 296 587 c 25
 264 568 245 559 214 539 c 0
 186 521 176 508 176 496 c 0
 176 475 207 459 207 426 c 0
 207 409 199 386 172 357 c 0
 144 326 140 327 120 308 c 17
 140 335 201 374 257 375 c 0
 262 375 267 375 272 375 c 0
 345 375 349 361 415 323 c 1024
560 177 m 0
 530 -18 497 -25 393 -33 c 16
 386 -34 379 -34 372 -34 c 0
 261 -34 144 33 144 147 c 0
 144 161 149 166 158 166 c 0
 189 166 268 99 336 99 c 0
 409 99 429 112 429 216 c 2
 429 399 l 2
 429 451 429 504 428 568 c 0
 428 583 444 586 455 598 c 1048
EndSplineSet
Ligature2: "Letter Conjunction-1" ma virAma ya
EndChar

StartChar: lya
Encoding: 160 -1 160
Width: 721
VWidth: 0
Flags: W
AnchorPoint: "virama" 428 -155 basechar 0
AnchorPoint: "ukaara" 421 -33 basechar 0
AnchorPoint: "aakaara" 538 596 basechar 0
AnchorPoint: "repha" 421 567 basechar 0
AnchorPoint: "iikaara" 538 596 basechar 0
AnchorPoint: "ekaara" 271 600 basechar 0
AnchorPoint: "bindu" 430 740 basechar 0
LayerCount: 2
Back
Fore
SplineSet
602 186 m 0
 572 -9 531 -22 421 -33 c 16
 412 -34 403 -34 394 -34 c 0
 285 -34 172 35 172 147 c 0
 172 161 177 166 186 166 c 0
 217 166 296 99 364 99 c 0
 437 99 457 112 457 216 c 2
 457 240 l 1
 384 248 259 270 169 299 c 0
 145 307 120 329 120 351 c 0
 120 356 121 361 124 366 c 8
 160 426 204 450 271 469 c 16
 277 471 282 471 288 471 c 0
 320 471 348 447 348 410 c 0
 348 395 337 386 293 377 c 9
 457 332 l 17
 456 386 445 426 445 470 c 0
 445 491 448 512 455 537 c 8
 467 575 506 573 538 596 c 25
 492 585 485 568 421 567 c 0
 377 567 365 598 331 598 c 0
 329 598 327 598 325 598 c 8
 305 596 310 571 300 553 c 25
 271 600 l 1049
EndSplineSet
LCarets2: 2 0 0
Ligature2: "Letter Conjunction-1" la virAma ya
EndChar

StartChar: vya
Encoding: 161 -1 161
Width: 567
VWidth: 0
Flags: W
AnchorPoint: "virama" 276 -155 basechar 0
AnchorPoint: "ukaara" 269 -33 basechar 0
AnchorPoint: "ekaara" 152 593 basechar 0
AnchorPoint: "iikaara" 417 604 basechar 0
AnchorPoint: "aakaara" 417 604 basechar 0
AnchorPoint: "repha" 293 566 basechar 0
AnchorPoint: "bindu" 304 740 basechar 0
LayerCount: 2
Back
Fore
SplineSet
152 593 m 1049
293 535 m 16,13,14
 243 504 217 497 197 481 c 0,15,16
 165 456 156 435 156 400 c 24,17,18
 156 359 171 319 196 304 c 0,19,20
 234 281 260 264 294 246 c 1024
152 593 m 1049
152 593 m 25,0,-1
 174 551 l 25,1,2
 184 568 179 595 199 595 c 18,3,4
 206 595 l 2,0,0
 238 595 256 566 290 566 c 0,0,0
 291 566 292 566 293 566 c 8,5,6
 344 566 369 589 417 604 c 25,7,8
 378 581 322 584 318 546 c 0,9,10
 309 448 305 391 305 299 c 2,0,0
 305 216 l 2,0,0
 305 112 285 99 212 99 c 8,2,3
 172 99 169 146 134 166 c 24,0,0
 127 170 121 158 121 150 c 16,4,5
 126 37 172 -34 255 -34 c 0,0,0
 259 -34 264 -33 269 -33 c 8,6,7
 378 -33 418 -15 448 180 c 1024,23,24
EndSplineSet
LCarets2: 2 0 0
Ligature2: "Letter Conjunction-1" va virAma ya
EndChar

StartChar: zya
Encoding: 162 -1 162
Width: 746
VWidth: 0
Flags: W
AnchorPoint: "virama" 458 -155 basechar 0
AnchorPoint: "ukaara" 452 -33 basechar 0
AnchorPoint: "repha" 349 587 basechar 0
AnchorPoint: "aakaara" 604 595 basechar 0
AnchorPoint: "iikaara" 604 595 basechar 0
AnchorPoint: "ekaara" 228 562 basechar 0
AnchorPoint: "bindu" 357 740 basechar 0
LayerCount: 2
Back
Fore
SplineSet
228 438 m 0
 242 420 248 389 248 358 c 0
 248 311 236 263 224 251 c 1024
264 488 m 0
 212 445 210 406 120 395 c 1024
253 483 m 16
 217 487 203 505 203 523 c 0
 203 539 213 555 228 562 c 0
 249 573 310 587 364 587 c 0
 414 587 457 575 457 536 c 0
 457 526 454 515 448 501 c 1024
368 449 m 0
 429 458 556 566 604 595 c 1032
626 186 m 0
 596 -9 561 -22 452 -33 c 16
 443 -34 434 -34 425 -34 c 0
 316 -34 202 35 202 147 c 0
 202 161 207 166 216 166 c 0
 247 166 326 99 394 99 c 0
 467 99 488 112 488 217 c 2
 488 260 l 2
 488 306 486 342 486 381 c 0
 486 404 487 429 489 458 c 8
 491 479 500 490 507 510 c 1048
EndSplineSet
Ligature2: "Letter Conjunction-1" za virAma ya
EndChar

StartChar: Sya
Encoding: 163 -1 163
Width: 706
VWidth: 0
Flags: W
AnchorPoint: "virama" 421 -155 basechar 0
AnchorPoint: "ukaara" 414 -33 basechar 0
AnchorPoint: "repha" 210 557 basechar 0
AnchorPoint: "aakaara" 476 598 basechar 0
AnchorPoint: "iikaara" 476 598 basechar 0
AnchorPoint: "ekaara" 120 591 basechar 0
AnchorPoint: "bindu" 332 740 basechar 0
LayerCount: 2
Back
Fore
SplineSet
120 591 m 25
 149 532 l 17
 150 534 150 537 150 540 c 0
 150 548 148 556 148 563 c 0
 148 571 151 577 163 577 c 0
 194 577 191 557 208 557 c 2
 210 557 l 9
 243 560 258 575 289 587 c 25
 257 568 218 574 208 539 c 16
 196 498 188 463 188 428 c 0
 188 396 195 364 212 328 c 0
 228 293 263 287 300 287 c 0
 309 287 318 288 327 288 c 0
 373 290 435 291 435 336 c 0
 435 387 368 377 325 403 c 1048
586 180 m 0
 556 -15 520 -24 414 -33 c 16
 406 -34 399 -34 391 -34 c 0
 281 -34 165 34 165 147 c 0
 165 161 170 166 179 166 c 0
 210 166 289 99 357 99 c 0
 430 99 450 112 450 216 c 2
 450 240 l 2
 450 355 450 440 448 568 c 0
 448 583 465 586 476 598 c 1048
EndSplineSet
LCarets2: 2 0 0
Ligature2: "Letter Conjunction-1" Sa virAma ya
EndChar

StartChar: sya
Encoding: 164 -1 164
Width: 782
VWidth: 0
Flags: W
AnchorPoint: "virama" 486 -155 basechar 0
AnchorPoint: "ukaara" 478 -33 basechar 0
AnchorPoint: "repha" 316 564 basechar 0
AnchorPoint: "aakaara" 545 596 basechar 0
AnchorPoint: "iikaara" 545 596 basechar 0
AnchorPoint: "ekaara" 214 587 basechar 0
AnchorPoint: "bindu" 357 740 basechar 0
LayerCount: 2
Back
Fore
SplineSet
301 269 m 4
 262 285 213 306 213 340 c 0
 213 352 219 365 233 380 c 4
 247 394 276 394 310 395 c 5
 320 395 l 2
 385 395 400 376 492 312 c 1028
214 587 m 25
 244 528 l 17
 242 537 240 546 240 553 c 0
 240 569 247 580 266 580 c 0
 287 580 295 564 313 564 c 0
 314 564 315 564 316 564 c 8
 354 568 372 583 408 595 c 25
 386 582 390 575 352 560 c 0
 258 522 323 472 258 418 c 4
 234 398 171 377 136 377 c 0
 130 377 125 378 121 379 c 1028
662 192 m 0
 632 -3 591 -21 478 -33 c 16
 469 -34 459 -35 450 -35 c 0
 343 -35 230 35 230 147 c 0
 230 161 235 166 244 166 c 0
 275 166 354 99 422 99 c 0
 495 99 514 112 514 215 c 2
 514 240 l 2
 514 359 514 436 516 553 c 0
 516 572 534 579 545 596 c 1048
EndSplineSet
LCarets2: 2 0 0
Ligature2: "Letter Conjunction-1" sa virAma ya
EndChar

StartChar: hya
Encoding: 165 -1 165
Width: 693
VWidth: 0
Flags: W
AnchorPoint: "virama" 299 -101 basechar 0
AnchorPoint: "ukaara" 292 21 basechar 0
AnchorPoint: "repha" 333 559 basechar 0
AnchorPoint: "aakaara" 481 598 basechar 0
AnchorPoint: "iikaara" 481 598 basechar 0
AnchorPoint: "ekaara" 171 587 basechar 0
AnchorPoint: "bindu" 367 740 basechar 0
LayerCount: 2
Back
Fore
SplineSet
171 587 m 25
 209 535 l 25
 220 555 213 585 238 586 c 1
 243 586 l 2
 292 586 295 559 329 559 c 2
 333 559 l 9
 394 562 423 583 481 598 c 25
 413 562 377 540 308 506 c 24
 243 473 204 458 137 427 c 25
 171 413 190 412 225 391 c 0
 254 373 317 326 328 294 c 1
 304 330 293 359 293 381 c 0
 293 418 323 436 373 436 c 0
 519 436 443 372 492 334 c 24
 522 311 541 300 573 278 c 1048
328 294 m 17
 328 270 l 2
 328 166 308 153 235 153 c 0
 167 153 134 218 124 218 c 0
 121 218 120 213 120 203 c 2
 120 195 l 1
 125 81 191 21 281 21 c 2
 292 21 l 9
 398 26 456 18 486 213 c 1024
EndSplineSet
Ligature2: "Letter Conjunction-1" ha virAma ya
EndChar

StartChar: kSya
Encoding: 166 -1 166
Width: 728
VWidth: 0
Flags: W
AnchorPoint: "virama" 420 -155 basechar 0
AnchorPoint: "ukaara" 413 -33 basechar 0
AnchorPoint: "repha" 342 550 basechar 0
AnchorPoint: "aakaara" 496 593 basechar 0
AnchorPoint: "iikaara" 496 593 basechar 0
AnchorPoint: "ekaara" 182 589 basechar 0
AnchorPoint: "bindu" 347 740 basechar 0
LayerCount: 2
Back
Fore
SplineSet
231 429 m 0
 232 398 213 377 213 352 c 0
 213 336 220 319 244 296 c 0
 263 277 286 272 314 272 c 0
 320 272 326 273 333 273 c 0
 340 273 348 274 356 274 c 2
 370 274 l 2
 406 274 441 275 441 308 c 8
 441 357 376 348 334 373 c 1048
182 589 m 25
 218 533 l 25
 227 553 219 583 241 586 c 17
 248 586 l 2
 285 586 302 550 341 550 c 2
 342 550 l 9
 405 552 436 576 496 593 c 25
 425 564 376 563 314 517 c 24
 226 452 196 394 121 315 c 25
 199 391 271 506 321 510 c 0
 325 510 329 510 333 510 c 0
 443 510 501 388 609 315 c 1032
592 192 m 0
 562 -3 524 -20 413 -33 c 16
 404 -34 395 -35 386 -35 c 0
 284 -35 181 35 181 147 c 0
 181 161 185 166 193 166 c 0
 220 166 288 99 356 99 c 0
 429 99 449 112 449 216 c 2
 449 240 l 2
 449 323 449 346 447 438 c 1024
EndSplineSet
LCarets2: 4 0 0 0 0
Ligature2: "Letter Conjunction-1" kSa virAma ya
EndChar

StartChar: vattu
Encoding: 167 -1 167
Width: 0
VWidth: 0
GlyphClass: 4
Flags: W
AnchorPoint: "ukaaramark" -120 0 basemark 0
AnchorPoint: "viramamark" -300 -200 basemark 0
AnchorPoint: "ukaara" -120 150 mark 0
LayerCount: 2
Back
Fore
SplineSet
-552 75 m 8
 -449 33 -386 19 -288 -33 c 24
 -217 -71 -186 -106 -120 -153 c 25
 -120 150 l 1049
EndSplineSet
LCarets2: 1 0
Ligature2: "raphala-1" ra virAma
EndChar

StartChar: kra
Encoding: 168 -1 168
Width: 783
VWidth: 0
Flags: W
AnchorPoint: "virama" 410 -100 basechar 0
AnchorPoint: "ukaara" 410 132 basechar 0
AnchorPoint: "repha" 395 550 basechar 0
AnchorPoint: "aakaara" 549 593 basechar 0
AnchorPoint: "iikaara" 549 593 basechar 0
AnchorPoint: "ekaara" 234 589 basechar 0
AnchorPoint: "bindu" 400 740 basechar 0
LayerCount: 2
Back
Fore
SplineSet
234 589 m 25
 270 533 l 25
 279 553 272 583 294 586 c 17
 301 586 l 2
 338 586 355 550 394 550 c 2
 395 550 l 9
 458 552 489 576 549 593 c 25
 478 564 430 561 367 517 c 24
 282 458 250 405 175 333 c 25
 253 402 324 506 374 510 c 1
 387 510 l 2
 497 510 554 399 663 333 c 1032
120 219 m 8
 186 183 228 171 288 126 c 24
 343 85 362 49 410 0 c 25
 410 240 l 18
 410 295 411 354 411 414 c 0
 411 444 411 474 410 505 c 1024
EndSplineSet
Ligature2: "raphala Conjunction-1" ka virAma ra
LCarets2: 2 0 0
Ligature2: "ravattu Conjunction-1" ka vattu
EndChar

StartChar: khra
Encoding: 169 -1 169
Width: 723
VWidth: 0
Flags: W
AnchorPoint: "virama" 354 -60 basechar 0
AnchorPoint: "ukaara" 504 132 basechar 0
AnchorPoint: "repha" 372 530 basechar 0
AnchorPoint: "aakaara" 604 595 basechar 0
AnchorPoint: "iikaara" 604 595 basechar 0
AnchorPoint: "ekaara" 228 562 basechar 0
AnchorPoint: "bindu" 357 740 basechar 0
LayerCount: 2
Back
Fore
SplineSet
428 515 m 24
 406 493 384 485 372 458 c 16
 360 430 353 408 353 383 c 0
 353 373 354 363 356 352 c 8
 359 336 377 327 397 326 c 16
 398 326 399 326 400 326 c 0
 431 326 447 340 478 348 c 1032
228 438 m 0
 242 420 248 389 248 358 c 0
 248 311 236 263 224 251 c 1024
264 488 m 0
 212 445 210 406 120 395 c 1024
253 483 m 16
 217 487 203 505 203 523 c 0
 203 546 224 568 250 568 c 0
 283 568 311 530 372 530 c 0
 442 530 541 557 604 595 c 1032
152 153 m 8
 225 130 268 123 338 93 c 24
 406 63 439 36 504 0 c 25
 504 240 l 17
 501 322 496 372 496 446 c 2
 496 478 l 10
 496 503 504 516 509 541 c 1048
EndSplineSet
Ligature2: "raphala Conjunction-1" kha virAma ra
LCarets2: 2 0 0
Ligature2: "ravattu Conjunction-1" kha vattu
EndChar

StartChar: gra
Encoding: 170 -1 170
Width: 723
VWidth: 0
Flags: W
AnchorPoint: "virama" 348 -60 basechar 0
AnchorPoint: "ukaara" 498 132 basechar 0
AnchorPoint: "repha" 372 530 basechar 0
AnchorPoint: "aakaara" 604 595 basechar 0
AnchorPoint: "iikaara" 604 595 basechar 0
AnchorPoint: "ekaara" 228 562 basechar 0
AnchorPoint: "bindu" 357 740 basechar 0
LayerCount: 2
Back
Fore
SplineSet
228 438 m 0
 242 420 248 389 248 358 c 0
 248 311 236 263 224 251 c 1024
264 488 m 0
 212 445 210 406 120 395 c 1024
253 483 m 16
 217 487 203 505 203 523 c 0
 203 546 224 568 250 568 c 0
 283 568 311 530 372 530 c 0
 442 530 541 557 604 595 c 1032
149 162 m 8
 225 135 271 127 344 93 c 24
 408 63 438 36 498 0 c 25
 498 240 l 17
 497 308 495 354 495 411 c 0
 495 431 495 453 496 478 c 8
 497 503 504 516 509 541 c 1048
EndSplineSet
Ligature2: "raphala Conjunction-1" ga virAma ra
LCarets2: 2 0 0
Ligature2: "ravattu Conjunction-1" ga vattu
EndChar

StartChar: ghra
Encoding: 171 -1 171
Width: 649
VWidth: 0
Flags: W
AnchorPoint: "virama" 340 -60 basechar 0
AnchorPoint: "ukaara" 490 132 basechar 0
AnchorPoint: "repha" 381 582 basechar 0
AnchorPoint: "aakaara" 530 591 basechar 0
AnchorPoint: "iikaara" 530 591 basechar 0
AnchorPoint: "ekaara" 120 573 basechar 0
AnchorPoint: "bindu" 344 740 basechar 0
LayerCount: 2
Back
Fore
SplineSet
120 573 m 25
 149 517 l 17
 145 533 129 550 129 562 c 0
 129 568 136 575 144 575 c 0
 161 575 172 544 193 544 c 2
 194 544 l 9
 223 545 218 563 260 578 c 9
 229 553 195 552 181 515 c 16
 172 490 169 468 169 446 c 0
 169 417 174 389 176 358 c 0
 178 339 203 331 226 331 c 2
 230 331 l 9
 262 332 292 335 306 364 c 24
 339 435 326 485 338 562 c 1040
491 557 m 16
 490 540 490 524 490 508 c 0
 490 480 491 454 491 429 c 0
 491 389 489 354 480 324 c 0
 473 302 447 287 420 287 c 0
 374 287 344 313 331 351 c 16
 331 353 329 381 329 418 c 0
 329 460 331 514 340 555 c 8
 344 574 365 571 381 582 c 1048
132 168 m 8
 205 143 249 138 318 105 c 24
 389 72 423 41 490 0 c 25
 490 240 l 17
 491 569 l 9
 506 577 515 583 530 591 c 1048
EndSplineSet
Ligature2: "raphala Conjunction-1" gha virAma ra
LCarets2: 2 0 0
Ligature2: "ravattu Conjunction-1" gha vattu
EndChar

StartChar: cra
Encoding: 172 -1 172
Width: 587
VWidth: 0
Flags: W
AnchorPoint: "virama" 358 -100 basechar 0
AnchorPoint: "ukaara" 358 132 basechar 0
AnchorPoint: "repha" 344 566 basechar 0
AnchorPoint: "aakaara" 468 604 basechar 0
AnchorPoint: "iikaara" 468 604 basechar 0
AnchorPoint: "ekaara" 202 593 basechar 0
AnchorPoint: "bindu" 354 740 basechar 0
LayerCount: 2
Back
Fore
SplineSet
360 557 m 24
 331 525 316 504 285 474 c 24
 232 424 200 399 145 351 c 25
 192 328 220 319 264 293 c 24
 295 275 308 259 336 237 c 1048
120 153 m 8
 163 130 188 119 229 93 c 24
 281 59 308 36 358 0 c 25
 358 240 l 17
 357 274 357 303 357 329 c 0
 357 405 360 459 368 546 c 0
 372 584 429 582 468 604 c 25
 420 589 394 568 344 566 c 17
 343 566 l 2
 312 566 296 595 266 595 c 0
 264 595 262 595 260 595 c 8
 238 592 238 568 224 551 c 25
 202 593 l 1049
EndSplineSet
Ligature2: "raphala Conjunction-1" ca virAma ra
LCarets2: 2 0 0
Ligature2: "ravattu Conjunction-1" ca vattu
EndChar

StartChar: chra
Encoding: 173 -1 173
Width: 696
VWidth: 0
Flags: W
AnchorPoint: "virama" 347 -100 basechar 0
AnchorPoint: "ukaara" 348 132 basechar 0
AnchorPoint: "repha" 354 582 basechar 0
AnchorPoint: "aakaara" 462 607 basechar 0
AnchorPoint: "iikaara" 462 607 basechar 0
AnchorPoint: "ekaara" 250 598 basechar 0
AnchorPoint: "bindu" 352 740 basechar 0
LayerCount: 2
Back
Fore
SplineSet
323 397 m 16
 289 411 272 435 237 435 c 2
 233 435 l 9
 192 433 145 427 145 385 c 0
 145 330 170 263 221 263 c 0
 224 263 227 264 230 264 c 8
 343 280 356 414 469 433 c 16
 473 434 478 434 482 434 c 0
 533 434 576 382 576 329 c 2
 576 322 l 9
 573 271 510 266 459 264 c 16
 458 264 457 264 456 264 c 0
 421 264 406 295 374 313 c 1032
120 147 m 8
 167 125 196 118 240 90 c 24
 286 60 306 35 348 0 c 25
 348 240 l 17
 346 310 344 360 344 408 c 0
 344 450 346 492 351 546 c 0
 355 584 419 583 462 607 c 25
 420 597 397 584 354 582 c 17
 353 582 l 2
 334 582 323 601 307 601 c 0
 281 601 283 574 272 557 c 25
 250 598 l 1049
EndSplineSet
Ligature2: "raphala Conjunction-1" cha virAma ra
LCarets2: 2 0 0
Ligature2: "ravattu Conjunction-1" cha vattu
EndChar

StartChar: jra
Encoding: 174 -1 174
Width: 730
VWidth: 0
Flags: W
AnchorPoint: "virama" 414 -100 basechar 0
AnchorPoint: "ukaara" 414 132 basechar 0
AnchorPoint: "repha" 383 544 basechar 0
AnchorPoint: "aakaara" 610 467 basechar 0
AnchorPoint: "iikaara" 577 591 basechar 0
AnchorPoint: "ekaara" 230 577 basechar 0
AnchorPoint: "bindu" 398 740 basechar 0
LayerCount: 2
Back
Fore
SplineSet
577 591 m 16
 527 587 494 587 494 554 c 0
 494 518 563 486 610 467 c 1024
343 472 m 24
 375 455 396 448 426 429 c 24
 472 400 495 380 539 348 c 1048
120 153 m 8
 184 130 224 125 285 93 c 24
 340 64 364 36 414 0 c 25
 414 261 l 17
 378 292 347 304 302 328 c 24
 256 352 227 362 180 384 c 25
 334 485 l 25
 500 591 l 17
 460 571 451 546 383 544 c 0
 381 544 379 544 377 544 c 0
 359 544 354 547 354 551 c 0
 354 555 359 560 359 564 c 0
 359 567 357 569 347 569 c 0
 326 569 314 561 314 546 c 0
 314 535 321 520 336 503 c 9
 230 577 l 1049
EndSplineSet
Ligature2: "raphala Conjunction-1" ja virAma ra
LCarets2: 2 0 0
Ligature2: "ravattu Conjunction-1" ja vattu
EndChar

StartChar: jhra
Encoding: 175 -1 175
Width: 669
VWidth: 0
Flags: W
AnchorPoint: "virama" 353 -100 basechar 0
AnchorPoint: "ukaara" 354 132 basechar 0
AnchorPoint: "repha" 329 564 basechar 0
AnchorPoint: "aakaara" 549 487 basechar 0
AnchorPoint: "ekaara" 232 589 basechar 0
AnchorPoint: "iikaara" 448 589 basechar 0
AnchorPoint: "bindu" 379 740 basechar 0
LayerCount: 2
Back
Fore
SplineSet
369 451 m 24
 394 445 410 445 432 434 c 24
 465 417 477 401 506 380 c 25
 491 402 468 402 468 438 c 0
 468 485 531 485 549 487 c 1032
120 171 m 8
 170 145 203 138 249 105 c 24
 296 71 313 41 354 0 c 25
 354 216 l 25
 257 313 l 17
 284 298 322 269 342 269 c 0
 351 269 356 274 356 288 c 2
 356 404 l 2
 356 438 356 475 358 535 c 0
 359 570 413 568 448 589 c 25
 401 579 377 564 329 564 c 16
 309 564 302 590 284 590 c 0
 283 590 281 589 279 589 c 8
 260 584 264 563 254 546 c 25
 232 589 l 1049
EndSplineSet
Ligature2: "raphala Conjunction-1" jha virAma ra
LCarets2: 2 0 0
Ligature2: "ravattu Conjunction-1" jha vattu
EndChar

StartChar: Jra
Encoding: 176 -1 176
Width: 727
VWidth: 0
Flags: W
AnchorPoint: "virama" 414 -100 basechar 0
AnchorPoint: "ukaara" 414 132 basechar 0
AnchorPoint: "repha" 387 560 basechar 0
AnchorPoint: "aakaara" 608 483 basechar 0
AnchorPoint: "ekaara" 162 569 basechar 0
AnchorPoint: "iikaara" 506 586 basechar 0
AnchorPoint: "bindu" 404 740 basechar 0
LayerCount: 2
Back
Fore
SplineSet
428 447 m 24
 453 441 468 442 490 431 c 24
 523 414 536 398 565 377 c 25
 550 399 526 398 526 434 c 0
 526 481 590 481 608 483 c 1032
120 153 m 8
 184 130 224 125 285 93 c 24
 340 64 364 36 414 0 c 25
 414 219 l 25
 316 313 l 17
 343 298 380 268 400 268 c 0
 408 268 414 273 414 287 c 2
 414 402 l 2
 414 436 414 472 416 532 c 0
 417 567 471 565 506 586 c 25
 459 576 435 561 387 560 c 16
 366 560 356 583 337 583 c 0
 314 583 321 558 313 542 c 25
 300 555 295 568 279 577 c 16
 258 590 243 600 220 600 c 0
 218 600 216 600 214 600 c 8
 191 599 182 581 162 569 c 1048
EndSplineSet
Ligature2: "raphala Conjunction-1" Ja virAma ra
LCarets2: 2 0 0
Ligature2: "ravattu Conjunction-1" Ja vattu
EndChar

StartChar: Tra
Encoding: 177 -1 177
Width: 724
VWidth: 0
Flags: W
AnchorPoint: "virama" 486 -100 basechar 0
AnchorPoint: "ukaara" 486 132 basechar 0
AnchorPoint: "repha" 386 559 basechar 0
AnchorPoint: "aakaara" 604 467 basechar 0
AnchorPoint: "iikaara" 570 591 basechar 0
AnchorPoint: "ekaara" 217 591 basechar 0
AnchorPoint: "bindu" 391 740 basechar 0
LayerCount: 2
Back
Fore
SplineSet
120 153 m 8
 184 130 222 119 285 93 c 24
 365 60 408 36 486 0 c 25
 486 290 l 17
 435 265 382 248 330 248 c 0
 287 248 243 260 203 288 c 0
 185 301 176 321 176 342 c 0
 176 370 191 400 219 422 c 0
 266 459 343 446 406 490 c 0
 424 503 426 507 426 512 c 0
 426 521 420 530 494 591 c 1
 440 564 454 561 386 559 c 1
 379 559 l 2
 326 559 335 582 300 582 c 0
 266 582 260 561 253 521 c 9
 217 591 l 1049
570 591 m 16
 520 587 487 587 487 554 c 0
 487 518 557 486 604 467 c 1024
EndSplineSet
Ligature2: "raphala Conjunction-1" Ta virAma ra
LCarets2: 2 0 0
Ligature2: "ravattu Conjunction-1" Ta vattu
EndChar

StartChar: Thra
Encoding: 178 -1 178
Width: 754
VWidth: 0
Flags: W
AnchorPoint: "virama" 414 -100 basechar 0
AnchorPoint: "ukaara" 414 132 basechar 0
AnchorPoint: "aakaara" 594 562 basechar 0
AnchorPoint: "repha" 432 591 basechar 0
AnchorPoint: "iikaara" 432 591 basechar 0
AnchorPoint: "ekaara" 382 557 basechar 0
AnchorPoint: "bindu" 412 740 basechar 0
LayerCount: 2
Back
Fore
SplineSet
432 591 m 24
 341 507 198 526 198 374 c 0
 198 289 307 211 414 207 c 0
 417 207 420 207 423 207 c 0
 525 207 630 259 634 361 c 1
 634 366 l 2
 634 474 516 529 427 560 c 1024
120 153 m 8
 184 130 224 125 285 93 c 24
 340 64 364 36 414 0 c 25
 414 207 l 1049
EndSplineSet
Ligature2: "raphala Conjunction-1" Tha virAma ra
LCarets2: 2 0 0
Ligature2: "ravattu Conjunction-1" Tha vattu
EndChar

StartChar: Dra
Encoding: 179 -1 179
Width: 583
VWidth: 0
Flags: W
AnchorPoint: "virama" 358 -100 basechar 0
AnchorPoint: "ukaara" 358 132 basechar 0
AnchorPoint: "repha" 313 548 basechar 0
AnchorPoint: "aakaara" 464 593 basechar 0
AnchorPoint: "iikaara" 464 593 basechar 0
AnchorPoint: "ekaara" 176 584 basechar 0
AnchorPoint: "bindu" 343 740 basechar 0
LayerCount: 2
Back
Fore
SplineSet
120 150 m 8
 163 129 190 122 231 96 c 24
 284 63 308 37 358 0 c 25
 357 210 l 17
 300 226 231 275 231 275 c 18
 263 259 294 227 323 227 c 0
 330 227 337 229 344 233 c 0
 369 249 363 276 367 395 c 1
 367 425 l 2
 367 471 364 485 356 485 c 0
 346 485 331 462 311 451 c 2
 218 397 l 25
 264 429 292 444 336 479 c 24
 388 521 414 549 464 593 c 25
 405 575 374 552 313 548 c 17
 311 548 l 2
 285 548 272 578 247 578 c 0
 245 578 243 577 241 577 c 8
 218 572 220 546 207 526 c 25
 176 584 l 1049
EndSplineSet
Ligature2: "raphala Conjunction-1" Da virAma ra
LCarets2: 2 0 0
Ligature2: "ravattu Conjunction-1" Da vattu
EndChar

StartChar: Dhra
Encoding: 180 -1 180
Width: 745
VWidth: 0
Flags: W
AnchorPoint: "virama" 488 -100 basechar 0
AnchorPoint: "ukaara" 488 132 basechar 0
AnchorPoint: "repha" 390 559 basechar 0
AnchorPoint: "aakaara" 530 595 basechar 0
AnchorPoint: "iikaara" 530 595 basechar 0
AnchorPoint: "ekaara" 228 587 basechar 0
AnchorPoint: "bindu" 366 740 basechar 0
LayerCount: 2
Back
Fore
SplineSet
228 587 m 25
 266 535 l 25
 278 553 273 581 298 582 c 0
 300 582 302 582 304 582 c 0
 352 582 354 559 386 559 c 2
 390 559 l 9
 446 562 476 581 530 595 c 25
 470 551 442 515 376 481 c 24
 281 431 220 419 120 380 c 25
 181 361 216 354 276 331 c 24
 311 317 327 300 362 285 c 16
 405 266 430 239 472 239 c 0
 477 239 482 239 488 240 c 8
 550 250 608 265 624 326 c 16
 625 331 626 335 626 340 c 0
 626 380 577 406 534 420 c 0
 529 422 524 423 519 423 c 0
 493 423 475 397 446 386 c 1032
146 177 m 8
 221 150 267 145 338 108 c 24
 402 75 430 42 488 0 c 25
 488 240 l 1049
EndSplineSet
Ligature2: "raphala Conjunction-1" Dha virAma ra
LCarets2: 2 0 0
Ligature2: "ravattu Conjunction-1" Dha vattu
EndChar

StartChar: Nra
Encoding: 181 -1 181
Width: 743
VWidth: 0
Flags: W
AnchorPoint: "virama" 414 -100 basechar 0
AnchorPoint: "ukaara" 414 132 basechar 0
AnchorPoint: "repha" 410 595 basechar 0
AnchorPoint: "aakaara" 623 332 basechar 0
AnchorPoint: "iikaara" 565 589 basechar 0
AnchorPoint: "ekaara" 158 490 basechar 0
AnchorPoint: "bindu" 420 740 basechar 0
LayerCount: 2
Back
Fore
SplineSet
178 260 m 0
 154 296 144 339 144 386 c 0
 144 419 149 454 158 490 c 8
 167 527 202 535 243 535 c 0
 281 535 292 494 292 445 c 0
 292 378 272 295 272 275 c 1
 272 275 341 273 369 273 c 0
 407 273 414 198 414 198 c 9
 410 595 l 25
 421 571 404 533 436 533 c 0
 504 533 536 588 565 589 c 1
 543 538 525 493 525 440 c 0
 525 423 527 405 531 386 c 8
 540 345 587 353 623 332 c 1048
120 153 m 8
 184 130 224 125 285 93 c 24
 340 64 364 36 414 0 c 25
 414 198 l 1049
EndSplineSet
Ligature2: "raphala Conjunction-1" Na virAma ra
LCarets2: 2 0 0
Ligature2: "ravattu Conjunction-1" Na vattu
EndChar

StartChar: tra
Encoding: 182 -1 182
Width: 598
VWidth: 0
Flags: W
AnchorPoint: "virama" 360 -100 basechar 0
AnchorPoint: "ukaara" 361 132 basechar 0
AnchorPoint: "repha" 344 562 basechar 0
AnchorPoint: "aakaara" 479 598 basechar 0
AnchorPoint: "iikaara" 479 598 basechar 0
AnchorPoint: "ekaara" 188 589 basechar 0
AnchorPoint: "bindu" 322 740 basechar 0
LayerCount: 2
Back
Fore
SplineSet
120 186 m 8
 162 160 189 150 228 120 c 24
 283 77 309 47 361 0 c 25
 361 240 l 18
 361 346 362 370 362 528 c 0
 362 533 361 536 359 536 c 0
 341 536 256 378 198 324 c 9
 253 408 267 471 339 541 c 24
 381 582 425 576 479 598 c 25
 426 584 398 565 344 562 c 16
 343 562 342 562 341 562 c 0
 308 562 288 587 259 587 c 0
 222 587 234 558 222 533 c 25
 188 589 l 1049
EndSplineSet
Ligature2: "raphala Conjunction-1" ta virAma ra
LCarets2: 1 0
Ligature2: "ravattu Conjunction-1" ta vattu
EndChar

StartChar: thra
Encoding: 183 -1 183
Width: 571
VWidth: 0
Flags: W
AnchorPoint: "virama" 240 -60 basechar 0
AnchorPoint: "ukaara" 391 132 basechar 0
AnchorPoint: "repha" 307 589 basechar 0
AnchorPoint: "aakaara" 451 591 basechar 0
AnchorPoint: "iikaara" 451 591 basechar 0
AnchorPoint: "ekaara" 231 576 basechar 0
AnchorPoint: "bindu" 319 740 basechar 0
LayerCount: 2
Back
Fore
SplineSet
402 562 m 16
 367 572 354 589 314 589 c 2
 307 589 l 1
 244 586 192 570 168 523 c 16
 165 517 163 510 163 504 c 0
 163 476 193 450 230 442 c 0
 254 437 271 433 288 433 c 0
 315 433 341 442 392 470 c 1
 295 405 234 437 170 377 c 16
 149 357 137 333 137 310 c 0
 137 291 145 272 163 256 c 0
 173 247 213 240 254 240 c 0
 276 240 299 242 316 247 c 0
 359 260 358 274 384 292 c 1048
120 129 m 0
 186 117 213 107 267 81 c 24
 319 56 343 32 391 0 c 25
 391 268 l 2
 391 366 405 398 422 555 c 0
 424 572 440 577 451 591 c 1048
EndSplineSet
Ligature2: "raphala Conjunction-1" tha virAma ra
LCarets2: 1 0
Ligature2: "ravattu Conjunction-1" tha vattu
EndChar

StartChar: dra
Encoding: 184 -1 184
Width: 648
VWidth: 0
Flags: W
AnchorPoint: "virama" 342 -100 basechar 0
AnchorPoint: "ukaara" 343 132 basechar 0
AnchorPoint: "repha" 349 562 basechar 0
AnchorPoint: "aakaara" 513 589 basechar 0
AnchorPoint: "iikaara" 513 589 basechar 0
AnchorPoint: "ekaara" 218 578 basechar 0
AnchorPoint: "bindu" 352 740 basechar 0
LayerCount: 2
Back
Fore
SplineSet
218 578 m 25
 250 523 l 25
 262 546 253 578 289 578 c 0
 308 578 324 562 346 562 c 0
 347 562 348 562 349 562 c 8
 414 566 449 578 513 589 c 17
 412 566 412 572 347 505 c 0
 265 421 205 398 165 396 c 9
 220 382 257 386 307 359 c 24
 344 339 351 311 380 280 c 1048
120 156 m 8
 166 130 194 120 237 90 c 24
 281 59 302 35 343 0 c 25
 342 207 l 18
 342 253 356 252 376 273 c 24
 430 330 469 354 528 405 c 1048
EndSplineSet
Ligature2: "raphala Conjunction-1" da virAma ra
LCarets2: 1 0
Ligature2: "ravattu Conjunction-1" da vattu
EndChar

StartChar: dhra
Encoding: 185 -1 185
Width: 612
VWidth: 0
Flags: W
AnchorPoint: "virama" 302 -60 basechar 0
AnchorPoint: "ukaara" 452 132 basechar 0
AnchorPoint: "repha" 366 569 basechar 0
AnchorPoint: "aakaara" 492 596 basechar 0
AnchorPoint: "iikaara" 492 596 basechar 0
AnchorPoint: "ekaara" 242 521 basechar 0
AnchorPoint: "bindu" 363 740 basechar 0
LayerCount: 2
Back
Fore
SplineSet
436 564 m 16
 416 567 397 569 379 569 c 0
 330 569 287 556 242 521 c 0
 180 472 140 421 140 346 c 0
 140 341 141 335 141 330 c 8
 145 271 188 240 263 240 c 0
 349 240 367 265 434 280 c 1048
120 135 m 8
 186 117 225 116 288 90 c 24
 356 62 388 35 452 0 c 25
 452 240 l 17
 451 277 450 310 450 342 c 0
 450 414 453 479 458 559 c 0
 459 577 479 581 492 596 c 1048
EndSplineSet
Ligature2: "raphala Conjunction-1" dha virAma ra
LCarets2: 2 0 0
Ligature2: "ravattu Conjunction-1" dha vattu
EndChar

StartChar: nra
Encoding: 186 -1 186
Width: 623
VWidth: 0
Flags: W
AnchorPoint: "virama" 386 -100 basechar 0
AnchorPoint: "ukaara" 386 132 basechar 0
AnchorPoint: "repha" 382 560 basechar 0
AnchorPoint: "aakaara" 504 598 basechar 0
AnchorPoint: "iikaara" 504 598 basechar 0
AnchorPoint: "ekaara" 245 596 basechar 0
AnchorPoint: "bindu" 340 740 basechar 0
LayerCount: 2
Back
Fore
SplineSet
245 596 m 25
 274 546 l 25
 281 564 273 590 292 593 c 16
 294 593 296 593 298 593 c 0
 330 593 347 560 381 560 c 2
 382 560 l 9
 432 561 457 583 504 598 c 25
 457 579 417 568 382 550 c 0
 320 518 332 408 276 333 c 16
 266 319 252 315 237 315 c 0
 205 315 160 334 160 358 c 0
 160 360 160 362 161 364 c 1024
120 162 m 8
 169 140 200 133 246 105 c 24
 304 69 331 41 386 0 c 25
 386 240 l 17
 385 283 384 312 384 334 c 0
 384 378 386 397 386 456 c 0
 386 506 363 486 348 506 c 1048
EndSplineSet
Ligature2: "raphala Conjunction-1" na virAma ra
LCarets2: 2 0 0
Ligature2: "ravattu Conjunction-1" na vattu
EndChar

StartChar: pra
Encoding: 187 -1 187
Width: 595
VWidth: 0
Flags: W
AnchorPoint: "virama" 300 -60 basechar 0
AnchorPoint: "ukaara" 451 132 basechar 0
AnchorPoint: "repha" 210 557 basechar 0
AnchorPoint: "aakaara" 476 598 basechar 0
AnchorPoint: "iikaara" 476 598 basechar 0
AnchorPoint: "ekaara" 120 591 basechar 0
AnchorPoint: "bindu" 332 740 basechar 0
LayerCount: 2
Back
Fore
SplineSet
120 591 m 25
 149 532 l 17
 145 547 129 562 129 573 c 0
 129 581 139 584 147 584 c 0
 168 584 183 557 209 557 c 2
 210 557 l 9
 243 558 258 575 289 587 c 25
 257 568 219 574 208 539 c 16
 196 502 189 470 189 438 c 0
 189 406 196 374 214 340 c 0
 231 306 265 299 303 299 c 0
 311 299 320 300 328 300 c 8
 374 302 394 330 436 349 c 1048
139 159 m 8
 210 133 255 127 322 93 c 24
 377 65 401 36 451 0 c 25
 451 240 l 18
 451 355 450 440 448 568 c 0
 448 583 465 586 476 598 c 1048
EndSplineSet
Ligature2: "raphala Conjunction-1" pa virAma ra
LCarets2: 1 0
Ligature2: "ravattu Conjunction-1" pa vattu
EndChar

StartChar: phra
Encoding: 188 -1 188
Width: 710
VWidth: 0
Flags: W
AnchorPoint: "virama" 338 -100 basechar 0
AnchorPoint: "ukaara" 339 132 basechar 0
AnchorPoint: "repha" 374 548 basechar 0
AnchorPoint: "aakaara" 554 591 basechar 0
AnchorPoint: "iikaara" 554 591 basechar 0
AnchorPoint: "ekaara" 169 564 basechar 0
AnchorPoint: "bindu" 379 740 basechar 0
LayerCount: 2
Back
Fore
SplineSet
169 564 m 25
 205 494 l 17
 209 500 210 506 210 512 c 0
 210 519 208 526 208 532 c 0
 208 545 214 555 248 560 c 0
 260 562 270 562 278 562 c 0
 317 562 316 546 352 546 c 0
 358 546 365 547 374 548 c 0
 446 557 484 574 554 591 c 25
 457 557 395 554 306 503 c 16
 239 465 155 443 155 372 c 0
 155 368 156 365 156 361 c 8
 166 266 282 245 340 200 c 1
 330 228 325 254 325 279 c 0
 325 363 382 424 482 424 c 0
 550 424 590 369 590 326 c 0
 590 263 547 257 507 243 c 1024
120 135 m 8
 157 117 181 112 216 90 c 24
 267 59 291 35 339 0 c 25
 340 200 l 1049
EndSplineSet
Ligature2: "raphala Conjunction-1" pha virAma ra
LCarets2: 1 0
Ligature2: "ravattu Conjunction-1" pha vattu
EndChar

StartChar: bra
Encoding: 189 -1 189
Width: 569
VWidth: 0
Flags: W
AnchorPoint: "virama" 338 -100 basechar 0
AnchorPoint: "ukaara" 338 132 basechar 0
AnchorPoint: "ekaara" 184 593 basechar 0
AnchorPoint: "iikaara" 450 604 basechar 0
AnchorPoint: "aakaara" 450 604 basechar 0
AnchorPoint: "repha" 326 566 basechar 0
AnchorPoint: "bindu" 336 740 basechar 0
LayerCount: 2
Back
Fore
SplineSet
184 593 m 1049
324 544 m 16,13,14
 252 452 272 485 216 449 c 0,15,16
 184 428 159 375 159 321 c 0,0,0
 159 315 159 310 160 304 c 8,17,18
 163 269 203 252 234 252 c 0,19,20
 279 252 315 279 331 304 c 1024
184 593 m 1049
120 144 m 8,0,1
 162 123 189 116 228 90 c 24,2,3
 274 59 295 35 338 0 c 25,4,-1
 338 240 l 18,5,6
 338 265 337 287 337 307 c 0,0,0
 337 395 341 451 350 546 c 0,9,10
 354 584 411 582 450 604 c 25,7,8
 402 589 376 568 326 566 c 16,5,6
 325 566 324 566 323 566 c 0,0,0
 290 566 271 594 239 594 c 0,0,0
 237 594 234 593 231 593 c 8,3,4
 212 591 216 567 206 551 c 25,1,2
 184 593 l 1049,0,-1
EndSplineSet
Ligature2: "raphala Conjunction-1" ba virAma ra
LCarets2: 2 0 0
Ligature2: "ravattu Conjunction-1" ba vattu
EndChar

StartChar: bhra
Encoding: 190 -1 190
Width: 606
VWidth: 0
Flags: W
AnchorPoint: "virama" 344 -60 basechar 0
AnchorPoint: "ukaara" 445 132 basechar 0
AnchorPoint: "repha" 347 559 basechar 0
AnchorPoint: "aakaara" 486 595 basechar 0
AnchorPoint: "iikaara" 486 595 basechar 0
AnchorPoint: "ekaara" 185 587 basechar 0
AnchorPoint: "bindu" 334 740 basechar 0
LayerCount: 2
Back
Fore
SplineSet
185 587 m 25
 223 535 l 25
 233 555 223 585 248 586 c 1
 253 586 l 2
 302 586 308 559 343 559 c 2
 347 559 l 9
 403 561 432 581 486 595 c 25
 428 530 408 478 337 428 c 24
 264 377 207 376 125 342 c 1048
120 162 m 8
 196 135 243 129 316 93 c 24
 372 65 395 36 445 0 c 25
 445 240 l 18
 445 256 444 266 444 277 c 0
 444 291 448 314 448 332 c 0
 448 374 421 423 372 423 c 0
 357 423 341 419 326 412 c 0
 286 396 263 377 263 345 c 0
 263 328 270 306 285 279 c 1032
EndSplineSet
Ligature2: "raphala Conjunction-1" bha virAma ra
LCarets2: 1 0
Ligature2: "ravattu Conjunction-1" bha vattu
EndChar

StartChar: mra
Encoding: 191 -1 191
Width: 600
VWidth: 0
Flags: W
AnchorPoint: "virama" 304 -60 basechar 0
AnchorPoint: "ukaara" 454 132 basechar 0
AnchorPoint: "repha" 242 557 basechar 0
AnchorPoint: "aakaara" 480 598 basechar 0
AnchorPoint: "iikaara" 480 598 basechar 0
AnchorPoint: "ekaara" 152 591 basechar 0
AnchorPoint: "bindu" 337 740 basechar 0
LayerCount: 2
Back
Fore
SplineSet
152 591 m 25
 181 532 l 17
 177 547 161 562 161 573 c 0
 161 581 171 584 179 584 c 0
 200 584 215 557 241 557 c 2
 242 557 l 9
 275 558 289 575 320 587 c 25
 288 568 271 559 240 539 c 0
 210 520 201 503 201 487 c 0
 201 460 226 434 226 397 c 0
 226 375 217 350 189 319 c 0
 161 288 157 290 137 271 c 17
 157 298 218 336 274 337 c 0
 279 337 284 337 289 337 c 0
 362 337 366 323 432 285 c 1024
120 153 m 8
 200 130 249 128 325 93 c 24
 381 67 404 36 454 0 c 25
 454 399 l 2
 454 451 454 504 453 568 c 0
 453 583 469 586 480 598 c 1048
EndSplineSet
Ligature2: "raphala Conjunction-1" ma virAma ra
LCarets2: 1 0
Ligature2: "ravattu Conjunction-1" ma vattu
EndChar

StartChar: yra
Encoding: 192 -1 192
Width: 606
VWidth: 0
Flags: W
AnchorPoint: "virama" 310 -60 basechar 0
AnchorPoint: "ukaara" 460 132 basechar 0
AnchorPoint: "repha" 243 553 basechar 0
AnchorPoint: "aakaara" 486 598 basechar 0
AnchorPoint: "iikaara" 486 598 basechar 0
AnchorPoint: "ekaara" 153 587 basechar 0
AnchorPoint: "bindu" 343 740 basechar 0
LayerCount: 2
Back
Fore
SplineSet
153 587 m 25
 182 528 l 17
 178 543 162 558 162 569 c 0
 162 577 172 580 180 580 c 0
 201 580 216 553 242 553 c 2
 243 553 l 9
 276 554 291 572 322 584 c 25
 290 565 253 570 241 535 c 16
 237 524 235 513 235 503 c 0
 235 476 248 451 268 425 c 9
 221 416 184 432 148 401 c 16
 132 387 123 368 123 349 c 0
 123 336 127 323 135 311 c 0
 154 283 181 274 213 274 c 0
 220 274 227 274 234 275 c 8
 281 280 294 329 342 333 c 17
 350 333 l 2
 388 333 409 307 446 293 c 1032
120 138 m 0
 198 129 226 124 288 99 c 24
 360 70 393 39 460 0 c 25
 460 399 l 2
 460 451 460 504 459 568 c 0
 459 583 475 586 486 598 c 1048
EndSplineSet
Ligature2: "raphala Conjunction-1" ya virAma ra
LCarets2: 1 0
Ligature2: "ravattu Conjunction-1" ya vattu
EndChar

StartChar: lra
Encoding: 193 -1 193
Width: 659
VWidth: 0
Flags: W
AnchorPoint: "virama" 308 -60 basechar 0
AnchorPoint: "ukaara" 458 132 basechar 0
AnchorPoint: "aakaara" 540 596 basechar 0
AnchorPoint: "repha" 422 567 basechar 0
AnchorPoint: "iikaara" 540 596 basechar 0
AnchorPoint: "ekaara" 272 600 basechar 0
AnchorPoint: "bindu" 431 740 basechar 0
LayerCount: 2
Back
Fore
SplineSet
120 129 m 8
 188 109 228 103 294 78 c 24
 360 53 394 30 458 0 c 25
 458 180 l 25
 457 196 l 1
 384 204 261 242 171 271 c 0
 147 279 122 301 122 323 c 0
 122 328 123 333 126 338 c 8
 162 398 205 422 272 441 c 16
 278 443 283 443 289 443 c 0
 321 443 350 418 350 381 c 0
 350 367 339 358 295 349 c 9
 459 304 l 17
 458 366 446 411 446 462 c 0
 446 485 448 509 456 537 c 8
 467 575 508 573 540 596 c 25
 494 585 486 568 422 567 c 0
 378 567 366 598 332 598 c 0
 330 598 328 598 326 598 c 8
 306 596 311 571 301 553 c 25
 272 600 l 1049
EndSplineSet
Ligature2: "raphala Conjunction-1" la virAma ra
LCarets2: 2 0 0
Ligature2: "ravattu Conjunction-1" la vattu
EndChar

StartChar: vra
Encoding: 194 -1 194
Width: 579
VWidth: 0
Flags: W
AnchorPoint: "virama" 347 -100 basechar 0
AnchorPoint: "ukaara" 348 132 basechar 0
AnchorPoint: "ekaara" 194 593 basechar 0
AnchorPoint: "iikaara" 460 604 basechar 0
AnchorPoint: "aakaara" 460 604 basechar 0
AnchorPoint: "repha" 336 566 basechar 0
AnchorPoint: "bindu" 346 740 basechar 0
LayerCount: 2
Back
Fore
SplineSet
194 593 m 1049
336 535 m 16,13,14
 286 504 259 497 239 481 c 0,15,16
 207 456 191 433 189 393 c 17,17,18
 189 386 l 2,0,0
 189 342 207 297 231 283 c 0,19,20
 269 260 298 236 332 218 c 1024
194 593 m 1049
120 158 m 8,0,1
 167 132 196 122 240 92 c 24,2,3
 285 61 306 36 348 0 c 25,4,-1
 348 240 l 18,5,6
 348 265 347 287 347 307 c 0,0,0
 347 395 351 451 360 546 c 0,9,10
 364 584 421 582 460 604 c 25,7,8
 412 589 386 568 336 566 c 16,5,6
 335 566 334 566 333 566 c 0,0,0
 299 566 280 595 248 595 c 2,0,0
 241 595 l 9,3,4
 222 593 226 568 216 551 c 25,1,2
 194 593 l 1049,0,-1
EndSplineSet
Ligature2: "raphala Conjunction-1" va virAma ra
LCarets2: 2 0 0
Ligature2: "ravattu Conjunction-1" va vattu
EndChar

StartChar: zra
Encoding: 195 -1 195
Width: 723
VWidth: 0
Flags: W
AnchorPoint: "virama" 337 -60 basechar 0
AnchorPoint: "ukaara" 488 132 basechar 0
AnchorPoint: "repha" 349 587 basechar 0
AnchorPoint: "aakaara" 604 595 basechar 0
AnchorPoint: "iikaara" 604 595 basechar 0
AnchorPoint: "ekaara" 228 562 basechar 0
AnchorPoint: "bindu" 357 740 basechar 0
LayerCount: 2
Back
Fore
SplineSet
228 438 m 0
 242 420 248 389 248 358 c 0
 248 311 236 263 224 251 c 1024
264 488 m 0
 212 445 210 406 120 395 c 1024
253 483 m 16
 217 487 203 505 203 523 c 0
 203 539 213 555 228 562 c 0
 249 573 310 587 364 587 c 0
 414 587 457 575 457 536 c 0
 457 526 454 515 448 501 c 1024
368 449 m 0
 429 458 556 566 604 595 c 1032
149 138 m 0
 233 120 249 115 309 90 c 24
 381 61 418 35 488 0 c 25
 488 260 l 2
 488 306 486 342 486 381 c 0
 486 404 487 429 489 458 c 8
 491 479 500 490 507 510 c 1048
EndSplineSet
Ligature2: "raphala Conjunction-1" za virAma ra
LCarets2: 1 0
Ligature2: "ravattu Conjunction-1" za vattu
EndChar

StartChar: Sra
Encoding: 196 -1 196
Width: 595
VWidth: 0
Flags: W
AnchorPoint: "virama" 300 -60 basechar 0
AnchorPoint: "ukaara" 450 132 basechar 0
AnchorPoint: "repha" 210 557 basechar 0
AnchorPoint: "aakaara" 476 598 basechar 0
AnchorPoint: "iikaara" 476 598 basechar 0
AnchorPoint: "ekaara" 120 591 basechar 0
AnchorPoint: "bindu" 332 740 basechar 0
LayerCount: 2
Back
Fore
SplineSet
120 591 m 25
 149 532 l 17
 150 534 150 537 150 540 c 0
 150 548 148 556 148 563 c 0
 148 571 151 577 163 577 c 0
 194 577 191 557 208 557 c 2
 210 557 l 9
 243 560 258 575 289 587 c 25
 257 568 219 574 208 539 c 16
 197 507 191 479 191 451 c 0
 191 422 198 392 214 360 c 8
 238 311 278 287 332 286 c 16
 333 286 334 286 335 286 c 0
 384 286 431 307 440 355 c 0
 441 358 441 360 441 363 c 0
 441 400 389 407 360 438 c 1032
134 172 m 8
 203 149 246 147 310 112 c 24
 371 79 395 44 450 0 c 25
 450 240 l 18
 450 355 450 440 448 568 c 0
 448 583 465 586 476 598 c 1048
EndSplineSet
Ligature2: "raphala Conjunction-1" Sa virAma ra
LCarets2: 1 0
Ligature2: "ravattu Conjunction-1" Sa vattu
EndChar

StartChar: sra
Encoding: 197 -1 197
Width: 663
VWidth: 0
Flags: W
AnchorPoint: "virama" 362 -60 basechar 0
AnchorPoint: "ukaara" 513 132 basechar 0
AnchorPoint: "repha" 314 564 basechar 0
AnchorPoint: "aakaara" 544 596 basechar 0
AnchorPoint: "iikaara" 544 596 basechar 0
AnchorPoint: "ekaara" 213 587 basechar 0
AnchorPoint: "bindu" 355 740 basechar 0
LayerCount: 2
Back
Fore
SplineSet
300 267 m 0
 261 283 212 304 212 338 c 0
 212 350 218 363 232 378 c 0
 246 392 275 392 309 393 c 1
 319 393 l 2
 384 393 399 374 491 310 c 1024
213 587 m 25
 242 528 l 17
 240 537 238 546 238 553 c 0
 238 569 245 580 264 580 c 0
 285 580 293 564 311 564 c 0
 312 564 313 564 314 564 c 8
 352 568 370 583 406 595 c 25
 384 582 388 575 350 560 c 0
 256 522 322 470 257 416 c 0
 233 396 170 375 135 375 c 0
 129 375 124 376 120 377 c 1024
149 158 m 8
 222 135 266 129 337 98 c 24
 409 67 445 38 513 0 c 25
 513 397 l 2
 513 446 513 495 514 553 c 0
 514 572 533 579 544 596 c 1048
EndSplineSet
Ligature2: "raphala Conjunction-1" sa virAma ra
LCarets2: 1 0
Ligature2: "ravattu Conjunction-1" sa vattu
EndChar

StartChar: hra
Encoding: 198 -1 198
Width: 726
VWidth: 0
Flags: W
AnchorPoint: "virama" 354 -100 basechar 0
AnchorPoint: "ukaara" 354 132 basechar 0
AnchorPoint: "repha" 356 559 basechar 0
AnchorPoint: "aakaara" 504 598 basechar 0
AnchorPoint: "iikaara" 504 598 basechar 0
AnchorPoint: "ekaara" 194 587 basechar 0
AnchorPoint: "bindu" 390 740 basechar 0
LayerCount: 2
Back
Fore
SplineSet
194 587 m 25
 232 535 l 25
 243 555 236 585 261 586 c 1
 266 586 l 2
 315 586 319 559 353 559 c 0
 354 559 355 559 356 559 c 8
 416 562 446 583 504 598 c 25
 436 553 400 526 330 484 c 24
 266 445 228 428 162 392 c 25
 200 366 231 355 260 326 c 0
 288 298 343 236 354 204 c 1
 331 238 321 271 321 300 c 0
 321 352 354 390 406 390 c 0
 552 390 470 269 525 202 c 24
 549 172 574 168 606 146 c 1048
120 190 m 8
 173 154 206 138 256 98 c 24
 298 64 316 38 354 0 c 25
 354 204 l 1049
EndSplineSet
Ligature2: "raphala Conjunction-1" ha virAma ra
LCarets2: 1 0
Ligature2: "ravattu Conjunction-1" ha vattu
EndChar

StartChar: kSra
Encoding: 199 -1 199
Width: 728
VWidth: 0
Flags: W
AnchorPoint: "virama" 299 -60 basechar 0
AnchorPoint: "ukaara" 449 132 basechar 0
AnchorPoint: "repha" 342 550 basechar 0
AnchorPoint: "aakaara" 496 593 basechar 0
AnchorPoint: "iikaara" 496 593 basechar 0
AnchorPoint: "ekaara" 182 589 basechar 0
AnchorPoint: "bindu" 347 740 basechar 0
LayerCount: 2
Back
Fore
SplineSet
237 429 m 0
 238 396 211 368 211 335 c 0
 211 319 217 301 238 281 c 0
 257 262 280 257 308 257 c 0
 314 257 320 258 327 258 c 0
 334 258 342 259 350 259 c 2
 364 259 l 2
 400 259 435 260 435 293 c 8
 435 342 370 333 328 358 c 1048
182 589 m 25
 218 533 l 25
 227 553 219 583 241 586 c 17
 248 586 l 2
 285 586 302 550 341 550 c 2
 342 550 l 9
 405 552 436 576 496 593 c 25
 425 564 375 564 314 517 c 24
 225 447 196 385 121 300 c 25
 199 382 271 506 321 510 c 1
 332 510 l 2
 443 510 501 379 609 300 c 1032
123 160 m 8
 200 134 247 129 320 93 c 24
 376 66 399 36 449 0 c 25
 449 240 l 18
 449 302 451 332 451 382 c 0
 451 399 450 418 450 441 c 1024
EndSplineSet
Ligature2: "raphala Conjunction-1" kSa virAma ra
LCarets2: 2 0 0
Ligature2: "ravattu Conjunction-1" kSa vattu
EndChar

StartChar: kla
Encoding: 200 -1 200
Width: 736
VWidth: 0
Flags: W
AnchorPoint: "virama" 355 -140 basechar 0
AnchorPoint: "ukaara" 363 174 basechar 0
AnchorPoint: "repha" 348 550 basechar 0
AnchorPoint: "aakaara" 503 593 basechar 0
AnchorPoint: "iikaara" 503 593 basechar 0
AnchorPoint: "ekaara" 188 589 basechar 0
AnchorPoint: "bindu" 353 740 basechar 0
LayerCount: 2
Back
Fore
SplineSet
188 589 m 25
 224 533 l 25
 233 553 225 583 247 586 c 17
 254 586 l 2
 291 586 308 550 347 550 c 2
 348 550 l 9
 411 552 443 576 503 593 c 25
 432 564 383 562 320 517 c 24
 234 455 203 399 128 324 c 25
 206 397 277 506 327 510 c 0
 331 510 335 510 339 510 c 0
 449 510 507 394 616 324 c 1032
574 -57 m 0
 411 -3 348 2 305 2 c 2
 282 2 l 2
 253 2 227 4 169 29 c 0
 128 47 120 88 120 132 c 2
 120 140 l 9
 121 182 140 209 175 231 c 16
 191 241 208 248 225 248 c 0
 259 248 279 213 279 181 c 0
 279 159 273 136 273 116 c 9
 361 84 l 25
 364 240 l 17
 364 295 365 354 365 414 c 0
 365 444 365 474 364 505 c 1024
EndSplineSet
LCarets2: 2 0 0
Ligature2: "Letter Conjunction-1" ka virAma la
EndChar

StartChar: khla
Encoding: 201 -1 201
Width: 723
VWidth: 0
Flags: W
AnchorPoint: "virama" 366 -140 basechar 0
AnchorPoint: "ukaara" 504 174 basechar 0
AnchorPoint: "repha" 372 530 basechar 0
AnchorPoint: "aakaara" 604 595 basechar 0
AnchorPoint: "iikaara" 604 595 basechar 0
AnchorPoint: "ekaara" 228 562 basechar 0
AnchorPoint: "bindu" 357 740 basechar 0
LayerCount: 2
Back
Fore
SplineSet
428 515 m 24
 406 493 384 485 372 458 c 16
 360 430 353 408 353 383 c 0
 353 373 354 363 356 352 c 8
 359 336 377 327 397 326 c 16
 398 326 399 326 400 326 c 0
 431 326 447 340 478 348 c 1032
228 438 m 0
 242 421 247 400 247 379 c 0
 247 345 233 312 221 300 c 1024
264 488 m 0
 212 445 210 406 120 395 c 1024
253 483 m 16
 217 487 203 505 203 523 c 0
 203 546 224 568 250 568 c 0
 283 568 311 530 372 530 c 0
 442 530 541 557 604 595 c 1032
593 -60 m 0
 276 46 348 -18 200 37 c 16
 175 46 149 67 149 91 c 0
 149 95 150 100 152 104 c 8
 174 156 212 176 266 193 c 16
 281 198 296 201 310 201 c 0
 333 201 355 193 374 175 c 0
 381 169 383 162 383 155 c 0
 383 139 370 121 369 96 c 9
 502 39 l 25
 504 240 l 17
 501 322 496 372 496 446 c 2
 496 478 l 10
 496 503 504 516 509 541 c 1048
EndSplineSet
LCarets2: 2 0 0
Ligature2: "Letter Conjunction-1" kha virAma la
EndChar

StartChar: gla
Encoding: 202 -1 202
Width: 723
VWidth: 0
Flags: W
AnchorPoint: "virama" 360 -140 basechar 0
AnchorPoint: "ukaara" 498 174 basechar 0
AnchorPoint: "repha" 372 530 basechar 0
AnchorPoint: "aakaara" 604 595 basechar 0
AnchorPoint: "iikaara" 604 595 basechar 0
AnchorPoint: "ekaara" 228 562 basechar 0
AnchorPoint: "bindu" 357 740 basechar 0
LayerCount: 2
Back
Fore
SplineSet
228 438 m 0
 239 424 244 408 244 391 c 0
 244 354 223 317 209 303 c 1024
264 488 m 0
 212 445 210 406 120 395 c 1024
253 483 m 16
 217 487 203 505 203 523 c 0
 203 546 224 568 250 568 c 0
 283 568 311 530 372 530 c 0
 442 530 541 557 604 595 c 1032
587 -60 m 0
 270 46 342 -18 194 37 c 16
 169 46 143 67 143 91 c 0
 143 95 144 100 146 104 c 8
 168 156 206 176 260 193 c 16
 276 198 291 201 305 201 c 0
 328 201 349 193 368 175 c 0
 373 170 375 166 375 162 c 0
 375 148 353 135 353 102 c 9
 496 39 l 25
 498 240 l 17
 497 308 495 354 495 411 c 0
 495 431 495 453 496 478 c 8
 497 503 504 516 509 541 c 1048
EndSplineSet
LCarets2: 2 0 0
Ligature2: "Letter Conjunction-1" ga virAma la
EndChar

StartChar: ghla
Encoding: 203 -1 203
Width: 699
VWidth: 0
Flags: W
AnchorPoint: "virama" 352 -140 basechar 0
AnchorPoint: "ukaara" 490 174 basechar 0
AnchorPoint: "repha" 381 582 basechar 0
AnchorPoint: "aakaara" 530 591 basechar 0
AnchorPoint: "iikaara" 530 591 basechar 0
AnchorPoint: "ekaara" 120 573 basechar 0
AnchorPoint: "bindu" 344 740 basechar 0
LayerCount: 2
Back
Fore
SplineSet
120 573 m 25
 149 517 l 17
 145 533 129 550 129 562 c 0
 129 568 136 575 144 575 c 0
 161 575 172 544 193 544 c 2
 194 544 l 9
 223 545 218 563 260 578 c 9
 229 553 195 552 181 515 c 16
 172 490 169 466 169 444 c 0
 169 414 174 386 176 355 c 0
 178 336 203 328 226 328 c 2
 230 328 l 9
 262 329 292 332 306 361 c 24
 339 433 326 483 338 562 c 1040
491 557 m 16
 490 540 490 524 490 508 c 0
 490 480 491 453 491 427 c 0
 491 387 489 351 480 321 c 0
 473 299 447 284 420 284 c 0
 374 284 344 310 331 348 c 16
 331 350 329 378 329 416 c 0
 329 459 331 513 340 555 c 8
 344 574 365 571 381 582 c 1048
579 -60 m 0
 262 46 334 -18 186 37 c 16
 161 46 135 67 135 91 c 0
 135 95 136 100 138 104 c 8
 160 156 198 176 252 193 c 16
 267 198 281 200 294 200 c 0
 318 200 339 192 360 175 c 0
 367 169 370 163 370 156 c 0
 370 143 361 127 358 106 c 9
 488 39 l 25
 490 240 l 17
 491 569 l 9
 506 577 515 583 530 591 c 1048
EndSplineSet
LCarets2: 2 0 0
Ligature2: "Letter Conjunction-1" gha virAma la
EndChar

StartChar: cla
Encoding: 204 -1 204
Width: 612
VWidth: 0
Flags: W
AnchorPoint: "virama" 244 -140 basechar 0
AnchorPoint: "ukaara" 382 174 basechar 0
AnchorPoint: "repha" 368 566 basechar 0
AnchorPoint: "aakaara" 492 604 basechar 0
AnchorPoint: "iikaara" 492 604 basechar 0
AnchorPoint: "ekaara" 227 593 basechar 0
AnchorPoint: "bindu" 379 740 basechar 0
LayerCount: 2
Back
Fore
SplineSet
384 557 m 24
 355 525 342 504 310 474 c 24
 257 424 222 401 166 354 c 25
 213 344 242 348 286 329 c 24
 319 315 330 295 358 273 c 1048
471 -60 m 0
 154 46 282 -24 169 24 c 16
 142 36 121 56 121 84 c 2
 121 91 l 9
 127 135 150 164 191 181 c 16
 206 187 220 190 234 190 c 0
 257 190 280 181 299 163 c 0
 306 157 308 150 308 143 c 0
 308 126 295 106 291 88 c 9
 380 39 l 25
 383 240 l 17
 382 274 382 303 382 329 c 0
 382 405 385 459 393 546 c 0
 397 584 453 582 492 604 c 25
 444 589 418 568 368 566 c 17
 367 566 l 2
 336 566 321 595 291 595 c 0
 289 595 287 595 285 595 c 8
 263 592 263 568 249 551 c 25
 227 593 l 1049
EndSplineSet
LCarets2: 2 0 0
Ligature2: "Letter Conjunction-1" ca virAma la
EndChar

StartChar: chla
Encoding: 205 -1 205
Width: 707
VWidth: 0
Flags: W
AnchorPoint: "virama" 367 -140 basechar 0
AnchorPoint: "ukaara" 362 174 basechar 0
AnchorPoint: "repha" 369 582 basechar 0
AnchorPoint: "aakaara" 477 607 basechar 0
AnchorPoint: "iikaara" 477 607 basechar 0
AnchorPoint: "ekaara" 265 598 basechar 0
AnchorPoint: "bindu" 367 740 basechar 0
LayerCount: 2
Back
Fore
SplineSet
337 414 m 16
 303 428 286 452 251 452 c 2
 247 452 l 9
 208 450 160 444 159 405 c 16
 159 403 159 401 159 399 c 0
 159 346 184 283 233 283 c 0
 236 283 238 284 241 284 c 8
 355 300 370 431 483 450 c 16
 487 451 492 451 496 451 c 0
 546 451 587 400 587 349 c 2
 587 341 l 9
 583 290 521 286 470 284 c 16
 469 284 468 284 467 284 c 0
 432 284 417 314 385 332 c 1032
452 -60 m 0
 135 46 273 -17 168 33 c 16
 141 46 120 65 120 94 c 0
 120 96 120 98 120 100 c 8
 124 143 145 173 185 190 c 16
 200 197 216 200 231 200 c 0
 254 200 276 191 293 172 c 0
 299 165 302 158 302 151 c 0
 302 133 284 114 275 86 c 9
 360 39 l 25
 363 240 l 17
 361 306 360 352 360 398 c 0
 360 444 361 488 367 546 c 0
 371 584 434 583 477 607 c 25
 435 597 412 584 369 582 c 17
 368 582 l 2
 349 582 338 601 322 601 c 0
 296 601 299 574 288 557 c 25
 265 598 l 1049
EndSplineSet
LCarets2: 2 0 0
Ligature2: "Letter Conjunction-1" cha virAma la
EndChar

StartChar: jla
Encoding: 206 -1 206
Width: 697
VWidth: 0
Flags: W
AnchorPoint: "virama" 242 -140 basechar 0
AnchorPoint: "ukaara" 380 174 basechar 0
AnchorPoint: "repha" 350 544 basechar 0
AnchorPoint: "aakaara" 577 467 basechar 0
AnchorPoint: "iikaara" 544 591 basechar 0
AnchorPoint: "ekaara" 197 577 basechar 0
AnchorPoint: "bindu" 364 740 basechar 0
LayerCount: 2
Back
Fore
SplineSet
544 591 m 16
 494 587 460 588 460 554 c 0
 460 518 530 486 577 467 c 1024
312 472 m 24
 344 455 365 448 395 429 c 24
 441 400 463 380 507 348 c 1048
470 -60 m 0
 153 46 280 -16 168 36 c 16
 141 49 120 68 120 96 c 2
 120 103 l 9
 125 144 149 170 188 184 c 16
 203 190 217 193 231 193 c 0
 254 193 277 184 296 166 c 0
 304 158 308 151 308 143 c 0
 308 131 299 116 286 92 c 9
 378 39 l 25
 381 240 l 25
 381 267 l 17
 345 298 315 312 269 334 c 24
 225 355 196 359 150 375 c 25
 209 418 241 444 301 485 c 24
 365 528 402 550 467 591 c 17
 427 571 418 546 350 544 c 0
 348 544 346 544 344 544 c 0
 326 544 321 547 321 551 c 0
 321 555 326 560 326 564 c 0
 326 567 324 569 314 569 c 0
 293 569 281 561 281 546 c 0
 281 535 288 520 303 503 c 9
 197 577 l 1049
EndSplineSet
LCarets2: 2 0 0
Ligature2: "Letter Conjunction-1" ja virAma la
EndChar

StartChar: jhla
Encoding: 207 -1 207
Width: 684
VWidth: 0
Flags: W
AnchorPoint: "virama" 283 -144 basechar 0
AnchorPoint: "ukaara" 368 174 basechar 0
AnchorPoint: "repha" 344 564 basechar 0
AnchorPoint: "aakaara" 565 487 basechar 0
AnchorPoint: "ekaara" 247 589 basechar 0
AnchorPoint: "iikaara" 463 589 basechar 0
AnchorPoint: "bindu" 394 740 basechar 0
LayerCount: 2
Back
Fore
SplineSet
385 451 m 24
 410 445 426 445 448 434 c 24
 481 417 493 401 522 380 c 25
 507 402 484 402 484 438 c 0
 484 485 547 485 565 487 c 1032
458 -60 m 0
 141 46 275 -20 168 30 c 16
 141 42 120 62 120 91 c 0
 120 93 120 95 120 97 c 8
 124 140 143 172 183 189 c 16
 198 195 213 199 227 199 c 0
 251 199 272 190 291 171 c 0
 299 163 302 155 302 146 c 0
 302 131 293 115 280 92 c 9
 366 39 l 25
 369 240 l 25
 272 337 l 17
 299 322 337 293 357 293 c 0
 366 293 371 298 371 312 c 0
 371 362 370 388 370 416 c 0
 370 444 371 475 373 535 c 0
 374 570 428 568 463 589 c 25
 416 579 392 564 344 564 c 16
 324 564 317 590 300 590 c 0
 299 590 297 589 295 589 c 8
 276 584 280 563 270 546 c 25
 247 589 l 1049
EndSplineSet
LCarets2: 2 0 0
Ligature2: "Letter Conjunction-1" jha virAma la
EndChar

StartChar: Jla
Encoding: 208 -1 208
Width: 700
VWidth: 0
Flags: W
AnchorPoint: "virama" 296 -141 basechar 0
AnchorPoint: "ukaara" 387 174 basechar 0
AnchorPoint: "repha" 360 560 basechar 0
AnchorPoint: "aakaara" 581 483 basechar 0
AnchorPoint: "ekaara" 135 569 basechar 0
AnchorPoint: "iikaara" 480 586 basechar 0
AnchorPoint: "bindu" 377 740 basechar 0
LayerCount: 2
Back
Fore
SplineSet
401 447 m 24
 426 441 442 442 464 431 c 24
 497 414 509 398 538 377 c 25
 523 399 500 398 500 434 c 0
 500 481 563 481 581 483 c 1032
476 -60 m 0
 159 46 283 -16 169 36 c 16
 143 48 120 67 120 95 c 0
 120 98 121 100 121 103 c 8
 129 148 154 175 196 192 c 16
 211 198 226 202 241 202 c 0
 271 202 318 179 318 142 c 0
 318 126 308 108 293 88 c 9
 385 39 l 25
 387 240 l 25
 288 334 l 17
 315 319 353 289 373 289 c 0
 382 289 387 294 387 308 c 2
 387 384 l 2
 387 423 387 451 390 532 c 0
 391 567 445 565 480 586 c 25
 433 576 408 561 360 560 c 16
 339 560 329 583 310 583 c 0
 287 583 294 558 286 542 c 25
 273 555 268 568 252 577 c 16
 231 590 216 600 193 600 c 0
 191 600 189 600 187 600 c 8
 164 599 155 581 135 569 c 1048
EndSplineSet
LCarets2: 2 0 0
Ligature2: "Letter Conjunction-1" Ja virAma la
EndChar

StartChar: Tla
Encoding: 209 -1 209
Width: 697
VWidth: 0
Flags: W
AnchorPoint: "virama" 368 -138 basechar 0
AnchorPoint: "ukaara" 483 176 basechar 0
AnchorPoint: "repha" 359 559 basechar 0
AnchorPoint: "aakaara" 578 467 basechar 0
AnchorPoint: "iikaara" 544 591 basechar 0
AnchorPoint: "ekaara" 191 591 basechar 0
AnchorPoint: "bindu" 365 740 basechar 0
LayerCount: 2
Back
Fore
SplineSet
541 -57 m 0
 380 -3 323 4 287 4 c 0
 275 4 265 3 255 3 c 0
 236 3 214 6 169 21 c 0
 144 29 118 51 118 74 c 0
 118 79 119 83 121 88 c 8
 147 142 188 162 246 180 c 16
 261 185 276 187 289 187 c 0
 312 187 333 180 354 162 c 0
 361 156 364 151 364 145 c 0
 364 136 356 124 342 99 c 9
 480 72 l 25
 480 297 l 17
 422 275 374 266 333 266 c 0
 267 266 219 290 177 326 c 0
 164 338 156 350 156 365 c 0
 156 382 167 402 193 422 c 0
 240 459 317 446 380 490 c 0
 398 502 400 507 400 512 c 2
 400 517 l 2
 400 526 406 541 467 591 c 1
 413 564 427 561 359 559 c 1
 352 559 l 2
 299 559 309 582 274 582 c 0
 240 582 234 561 227 521 c 9
 191 591 l 1049
544 591 m 16
 494 587 461 587 461 554 c 0
 461 518 531 486 578 467 c 1024
EndSplineSet
LCarets2: 2 0 0
Ligature2: "Letter Conjunction-1" Ta virAma la
EndChar

StartChar: Thla
Encoding: 210 -1 210
Width: 698
VWidth: 0
Flags: W
AnchorPoint: "virama" 356 -144 basechar 0
AnchorPoint: "ukaara" 356 170 basechar 0
AnchorPoint: "aakaara" 539 562 basechar 0
AnchorPoint: "repha" 376 591 basechar 0
AnchorPoint: "iikaara" 376 591 basechar 0
AnchorPoint: "ekaara" 326 557 basechar 0
AnchorPoint: "bindu" 356 740 basechar 0
LayerCount: 2
Back
Fore
SplineSet
376 591 m 24
 286 507 142 526 142 374 c 0
 142 290 258 252 355 249 c 1
 374 249 l 2
 467 249 573 270 578 361 c 1
 578 369 l 2
 578 476 459 529 371 560 c 1024
355 249 m 25
 355 61 l 25
 274 90 l 17
 287 106 292 117 292 127 c 0
 292 139 285 147 274 156 c 0
 252 173 230 182 206 182 c 0
 160 182 120 152 120 112 c 0
 120 108 120 104 121 100 c 8
 129 56 154 29 196 12 c 16
 235 -4 250 -7 264 -7 c 0
 272 -7 281 -5 292 -5 c 0
 320 -5 373 -13 529 -65 c 1024
EndSplineSet
LCarets2: 2 0 0
Ligature2: "Letter Conjunction-1" Tha virAma la
EndChar

StartChar: Dla
Encoding: 211 -1 211
Width: 575
VWidth: 0
Flags: W
AnchorPoint: "virama" 334 -140 basechar 0
AnchorPoint: "ukaara" 349 174 basechar 0
AnchorPoint: "repha" 304 548 basechar 0
AnchorPoint: "aakaara" 455 593 basechar 0
AnchorPoint: "iikaara" 455 593 basechar 0
AnchorPoint: "ekaara" 167 584 basechar 0
AnchorPoint: "bindu" 334 740 basechar 0
LayerCount: 2
Back
Fore
SplineSet
438 -60 m 0
 121 46 267 -15 168 36 c 24
 139 51 122 71 120 103 c 17
 120 114 l 2
 120 147 128 177 159 192 c 0
 173 199 187 202 201 202 c 0
 225 202 247 192 267 174 c 0
 278 165 283 154 283 142 c 0
 283 129 277 114 266 96 c 9
 347 39 l 25
 349 240 l 17
 287 256 223 305 223 305 c 18
 255 289 286 257 315 257 c 0
 322 257 329 259 336 263 c 0
 361 279 354 276 358 395 c 1
 358 425 l 2
 358 471 355 485 347 485 c 0
 337 485 322 462 302 451 c 2
 210 397 l 25
 256 429 283 444 327 479 c 24
 379 521 405 549 455 593 c 25
 396 575 365 552 304 548 c 17
 302 548 l 2
 276 548 263 578 238 578 c 0
 236 578 234 577 232 577 c 8
 209 572 212 546 199 526 c 25
 167 584 l 1049
EndSplineSet
LCarets2: 2 0 0
Ligature2: "Letter Conjunction-1" Da virAma la
EndChar

StartChar: Dhla
Encoding: 212 -1 212
Width: 746
VWidth: 0
Flags: W
AnchorPoint: "virama" 351 -110 basechar 0
AnchorPoint: "ukaara" 489 204 basechar 0
AnchorPoint: "repha" 390 559 basechar 0
AnchorPoint: "aakaara" 530 595 basechar 0
AnchorPoint: "iikaara" 530 595 basechar 0
AnchorPoint: "ekaara" 228 587 basechar 0
AnchorPoint: "bindu" 366 740 basechar 0
LayerCount: 2
Back
Fore
SplineSet
228 587 m 25
 266 535 l 25
 278 553 273 581 298 582 c 0
 300 582 302 582 304 582 c 0
 352 582 353 559 386 559 c 2
 390 559 l 9
 447 562 476 581 530 595 c 25
 470 551 444 517 376 481 c 24
 283 432 220 419 120 380 c 25
 186 370 226 373 289 355 c 24
 327 344 339 325 374 310 c 16
 415 293 437 270 481 270 c 2
 489 270 l 9
 548 274 610 280 624 326 c 16
 625 331 626 335 626 340 c 0
 626 377 581 404 534 420 c 0
 529 422 524 423 519 423 c 0
 493 423 475 397 446 386 c 1032
489 270 m 25
 487 69 l 25
 362 128 l 17
 368 148 374 163 374 176 c 0
 374 211 322 230 294 230 c 0
 280 230 266 228 251 223 c 8
 197 206 159 186 137 134 c 16
 135 130 134 125 134 121 c 0
 134 97 160 76 185 67 c 8
 333 12 261 76 578 -30 c 1024
EndSplineSet
LCarets2: 2 0 0
Ligature2: "Letter Conjunction-1" Dha virAma la
EndChar

StartChar: Nla
Encoding: 213 -1 213
Width: 726
VWidth: 0
Flags: W
AnchorPoint: "virama" 353 -140 basechar 0
AnchorPoint: "ukaara" 397 174 basechar 0
AnchorPoint: "repha" 393 595 basechar 0
AnchorPoint: "aakaara" 606 332 basechar 0
AnchorPoint: "iikaara" 548 589 basechar 0
AnchorPoint: "ekaara" 141 490 basechar 0
AnchorPoint: "bindu" 403 740 basechar 0
LayerCount: 2
Back
Fore
SplineSet
161 260 m 16
 131 298 120 333 120 370 c 0
 120 407 131 446 141 490 c 8
 148 521 185 535 226 535 c 0
 264 535 275 502 275 461 c 0
 275 406 255 337 255 317 c 1
 255 317 324 357 352 357 c 0
 390 357 397 240 397 240 c 9
 393 595 l 25
 404 571 388 533 420 533 c 0
 488 533 519 588 548 589 c 1
 526 538 508 493 508 440 c 0
 508 423 510 405 514 386 c 8
 522 351 570 353 606 332 c 1048
397 240 m 25
 397 78 l 25
 317 106 l 17
 327 125 333 138 333 149 c 0
 333 158 329 165 320 172 c 0
 299 189 277 198 253 198 c 0
 192 198 154 154 154 99 c 0
 154 69 173 46 202 36 c 9
 337 -16 245 52 562 -54 c 1024
EndSplineSet
LCarets2: 2 0 0
Ligature2: "Letter Conjunction-1" Na virAma la
EndChar

StartChar: tla
Encoding: 214 -1 214
Width: 586
VWidth: 0
Flags: W
AnchorPoint: "virama" 274 -144 basechar 0
AnchorPoint: "ukaara" 352 201 basechar 0
AnchorPoint: "repha" 332 562 basechar 0
AnchorPoint: "aakaara" 467 598 basechar 0
AnchorPoint: "iikaara" 467 598 basechar 0
AnchorPoint: "ekaara" 177 589 basechar 0
AnchorPoint: "bindu" 310 740 basechar 0
LayerCount: 2
Back
Fore
SplineSet
438 -60 m 0
 121 46 267 -17 168 33 c 17
 140 46 120 66 120 96 c 0
 120 148 134 190 177 216 c 16
 191 224 206 228 221 228 c 0
 251 228 296 206 296 169 c 0
 296 148 283 127 268 112 c 9
 351 66 l 25
 352 267 l 18
 352 373 350 370 350 528 c 0
 350 534 349 536 346 536 c 0
 325 536 234 393 177 339 c 9
 236 418 254 476 327 541 c 24
 371 580 413 576 467 598 c 25
 414 584 386 565 332 562 c 16
 331 562 330 562 329 562 c 0
 296 562 276 587 247 587 c 0
 210 587 222 558 210 533 c 25
 177 589 l 1049
EndSplineSet
LCarets2: 2 0 0
Ligature2: "Letter Conjunction-1" ta virAma la
EndChar

StartChar: thla
Encoding: 215 -1 215
Width: 571
VWidth: 0
Flags: W
AnchorPoint: "virama" 253 -140 basechar 0
AnchorPoint: "ukaara" 391 174 basechar 0
AnchorPoint: "repha" 307 589 basechar 0
AnchorPoint: "aakaara" 451 591 basechar 0
AnchorPoint: "iikaara" 451 591 basechar 0
AnchorPoint: "ekaara" 231 576 basechar 0
AnchorPoint: "bindu" 319 740 basechar 0
LayerCount: 2
Back
Fore
SplineSet
402 562 m 16
 367 572 354 589 314 589 c 2
 307 589 l 1
 244 586 196 577 168 523 c 16
 165 517 164 511 164 505 c 0
 164 458 239 432 289 432 c 0
 316 432 342 442 393 470 c 1
 296 405 242 438 170 377 c 16
 153 363 141 344 141 324 c 0
 141 309 148 294 165 279 c 0
 175 270 215 263 256 263 c 0
 278 263 301 265 318 270 c 0
 361 283 358 283 384 292 c 1048
447 -57 m 0
 240 18 284 -32 189 12 c 16
 153 28 120 50 120 89 c 2
 120 94 l 9
 122 134 160 149 198 159 c 16
 212 163 226 165 238 165 c 0
 262 165 283 157 306 141 c 0
 316 134 321 128 321 118 c 0
 321 109 316 97 305 82 c 9
 389 39 l 25
 391 240 l 17
 391 268 l 2
 391 366 405 398 422 555 c 0
 424 572 440 577 451 591 c 1048
EndSplineSet
LCarets2: 2 0 0
Ligature2: "Letter Conjunction-1" tha virAma la
EndChar

StartChar: dla
Encoding: 216 -1 216
Width: 666
VWidth: 0
Flags: W
AnchorPoint: "virama" 367 -141 basechar 0
AnchorPoint: "ukaara" 358 174 basechar 0
AnchorPoint: "repha" 364 562 basechar 0
AnchorPoint: "aakaara" 528 589 basechar 0
AnchorPoint: "iikaara" 528 589 basechar 0
AnchorPoint: "ekaara" 234 578 basechar 0
AnchorPoint: "bindu" 367 740 basechar 0
LayerCount: 2
Back
Fore
SplineSet
234 578 m 25
 265 523 l 25
 277 546 268 578 304 578 c 0
 323 578 339 562 361 562 c 0
 362 562 363 562 364 562 c 8
 429 566 464 578 528 589 c 17
 427 566 427 572 362 505 c 0
 280 421 218 427 178 425 c 9
 232 407 267 408 316 379 c 24
 352 358 361 331 390 300 c 1048
519 -60 m 0
 202 46 299 -23 171 36 c 24
 135 52 120 84 120 123 c 24
 120 167 132 204 171 225 c 16
 185 233 201 236 215 236 c 0
 247 236 295 210 295 173 c 0
 295 158 286 141 269 118 c 9
 357 69 l 25
 357 222 l 18
 357 268 365 272 386 293 c 24
 441 347 483 363 546 408 c 1048
EndSplineSet
LCarets2: 2 0 0
Ligature2: "Letter Conjunction-1" da virAma la
EndChar

StartChar: dhla
Encoding: 217 -1 217
Width: 683
VWidth: 0
Flags: W
AnchorPoint: "virama" 337 -140 basechar 0
AnchorPoint: "ukaara" 475 174 basechar 0
AnchorPoint: "repha" 389 569 basechar 0
AnchorPoint: "aakaara" 515 596 basechar 0
AnchorPoint: "iikaara" 515 596 basechar 0
AnchorPoint: "ekaara" 265 548 basechar 0
AnchorPoint: "bindu" 386 740 basechar 0
LayerCount: 2
Back
Fore
SplineSet
459 564 m 16
 422 570 389 577 357 577 c 0
 326 577 296 570 265 548 c 0
 201 503 163 449 163 374 c 0
 163 368 164 363 164 357 c 8
 168 299 209 269 284 269 c 0
 370 269 388 294 455 309 c 1048
564 -60 m 0
 353 18 329 -31 188 18 c 16
 157 29 120 51 120 79 c 0
 120 84 121 89 124 94 c 8
 149 145 200 144 255 158 c 16
 267 161 278 163 288 163 c 0
 304 163 318 158 332 147 c 0
 342 139 349 134 349 123 c 0
 349 116 346 105 338 90 c 9
 473 39 l 25
 475 240 l 17
 474 277 473 310 473 342 c 0
 473 414 476 479 481 559 c 0
 482 577 502 581 515 596 c 1048
EndSplineSet
LCarets2: 2 0 0
Ligature2: "Letter Conjunction-1" dha virAma la
EndChar

StartChar: nla
Encoding: 218 -1 218
Width: 611
VWidth: 0
Flags: W
AnchorPoint: "virama" 328 -140 basechar 0
AnchorPoint: "ukaara" 374 174 basechar 0
AnchorPoint: "repha" 370 560 basechar 0
AnchorPoint: "aakaara" 492 598 basechar 0
AnchorPoint: "iikaara" 492 598 basechar 0
AnchorPoint: "ekaara" 233 596 basechar 0
AnchorPoint: "bindu" 328 740 basechar 0
LayerCount: 2
Back
Fore
SplineSet
463 -60 m 0
 146 46 277 -14 168 39 c 16
 140 53 120 73 120 104 c 0
 120 158 157 202 218 202 c 0
 242 202 263 193 283 175 c 0
 291 167 295 159 295 149 c 0
 295 133 286 116 276 100 c 9
 372 60 l 25
 375 240 l 17
 374 283 373 312 373 334 c 0
 373 378 375 397 375 456 c 0
 375 506 351 486 336 506 c 1048
233 596 m 25
 262 546 l 25
 269 564 261 590 280 593 c 16
 282 593 284 593 286 593 c 0
 318 593 335 560 369 560 c 2
 370 560 l 9
 420 561 445 583 492 598 c 25
 445 579 405 568 370 550 c 0
 308 518 307 421 246 354 c 16
 234 341 220 336 205 336 c 0
 175 336 130 355 130 379 c 0
 130 381 130 383 131 385 c 1024
EndSplineSet
LCarets2: 2 0 0
Ligature2: "Letter Conjunction-1" na virAma la
EndChar

StartChar: pla
Encoding: 219 -1 219
Width: 659
VWidth: 0
Flags: W
AnchorPoint: "virama" 312 -140 basechar 0
AnchorPoint: "ukaara" 450 174 basechar 0
AnchorPoint: "repha" 210 557 basechar 0
AnchorPoint: "aakaara" 476 598 basechar 0
AnchorPoint: "iikaara" 476 598 basechar 0
AnchorPoint: "ekaara" 120 591 basechar 0
AnchorPoint: "bindu" 332 740 basechar 0
LayerCount: 2
Back
Fore
SplineSet
120 591 m 25
 149 532 l 17
 145 547 129 562 129 573 c 0
 129 581 139 584 147 584 c 0
 168 584 183 557 209 557 c 2
 210 557 l 9
 243 558 258 575 289 587 c 25
 257 568 220 574 208 539 c 16
 196 506 188 475 188 446 c 0
 188 420 195 395 210 367 c 0
 229 333 264 326 302 326 c 0
 310 326 317 327 325 327 c 8
 371 329 391 357 433 376 c 1048
540 -60 m 0
 223 46 310 -18 172 36 c 16
 146 47 123 66 123 92 c 0
 123 96 123 99 124 103 c 8
 136 151 166 176 212 193 c 16
 227 198 240 201 254 201 c 0
 285 201 336 180 336 142 c 0
 336 129 331 115 320 100 c 9
 448 39 l 25
 451 240 l 17
 451 355 450 440 448 568 c 0
 448 583 465 586 476 598 c 1048
EndSplineSet
LCarets2: 2 0 0
Ligature2: "Letter Conjunction-1" pa virAma la
EndChar

StartChar: phla
Encoding: 220 -1 220
Width: 742
VWidth: 0
Flags: W
AnchorPoint: "virama" 312 -140 basechar 0
AnchorPoint: "ukaara" 348 174 basechar 0
AnchorPoint: "repha" 407 548 basechar 0
AnchorPoint: "aakaara" 587 591 basechar 0
AnchorPoint: "iikaara" 587 591 basechar 0
AnchorPoint: "ekaara" 202 564 basechar 0
AnchorPoint: "bindu" 412 740 basechar 0
LayerCount: 2
Back
Fore
SplineSet
202 564 m 25
 238 494 l 17
 242 500 243 506 243 512 c 0
 243 519 241 526 241 532 c 0
 241 545 247 555 281 560 c 0
 293 562 303 562 311 562 c 0
 350 562 349 546 385 546 c 0
 391 546 398 547 407 548 c 0
 479 557 517 574 587 591 c 25
 490 557 425 553 339 503 c 16
 266 461 189 435 189 364 c 0
 189 292 289 286 348 240 c 1
 340 263 336 283 336 302 c 0
 336 382 409 424 515 424 c 0
 583 424 623 409 623 366 c 0
 623 303 580 297 540 283 c 1024
348 240 m 25
 348 75 l 25
 258 108 l 17
 271 125 279 139 279 152 c 0
 279 160 276 168 268 175 c 0
 248 193 225 203 201 203 c 0
 155 203 120 169 120 129 c 0
 120 122 121 114 123 106 c 8
 135 64 165 45 206 30 c 24
 344 -19 256 52 573 -54 c 1024
EndSplineSet
LCarets2: 2 0 0
Ligature2: "Letter Conjunction-1" pha virAma la
EndChar

StartChar: bla
Encoding: 221 -1 221
Width: 583
VWidth: 0
Flags: W
AnchorPoint: "virama" 214 -140 basechar 0
AnchorPoint: "ukaara" 352 174 basechar 0
AnchorPoint: "ekaara" 198 593 basechar 0
AnchorPoint: "iikaara" 463 604 basechar 0
AnchorPoint: "aakaara" 463 604 basechar 0
AnchorPoint: "repha" 340 566 basechar 0
AnchorPoint: "bindu" 350 740 basechar 0
LayerCount: 2
Back
Fore
SplineSet
198 593 m 1049
337 544 m 16,13,14
 265 452 285 485 229 449 c 0,15,16
 198 428 176 383 176 334 c 0,0,0
 176 328 176 322 177 316 c 8,17,18
 181 281 220 264 251 264 c 0,19,20
 296 264 332 291 348 316 c 1024
198 593 m 1049
441 -60 m 0,23,24
 124 46 270 -24 169 23 c 24,11,12
 140 37 124 58 121 90 c 16,9,10
 121 96 120 101 120 106 c 0,0,0
 120 135 128 161 155 174 c 0,7,8
 169 181 183 184 196 184 c 0,0,0
 220 184 243 174 263 156 c 0,5,6
 272 148 277 138 277 127 c 0,0,0
 277 113 269 99 256 84 c 9,3,4
 350 39 l 25,2,-1
 352 240 l 18,0,1
 352 265 351 287 351 307 c 0,0,0
 351 395 355 451 364 546 c 0,9,10
 368 584 424 582 463 604 c 25,7,8
 415 589 390 568 340 566 c 16,5,6
 339 566 338 566 337 566 c 0,0,0
 304 566 285 594 253 594 c 0,0,0
 251 594 248 593 245 593 c 8,3,4
 226 591 230 567 220 551 c 25,1,2
 198 593 l 1049,0,-1
EndSplineSet
LCarets2: 2 0 0
Ligature2: "Letter Conjunction-1" ba virAma la
EndChar

StartChar: bhla
Encoding: 222 -1 222
Width: 651
VWidth: 0
Flags: W
AnchorPoint: "virama" 304 -140 basechar 0
AnchorPoint: "ukaara" 442 174 basechar 0
AnchorPoint: "repha" 344 559 basechar 0
AnchorPoint: "aakaara" 484 595 basechar 0
AnchorPoint: "iikaara" 484 595 basechar 0
AnchorPoint: "ekaara" 182 587 basechar 0
AnchorPoint: "bindu" 332 740 basechar 0
LayerCount: 2
Back
Fore
SplineSet
182 587 m 25
 221 535 l 25
 231 555 221 585 246 586 c 1
 251 586 l 2
 300 586 305 559 340 559 c 2
 344 559 l 9
 400 561 430 581 484 595 c 25
 425 535 403 487 332 440 c 24
 258 391 202 388 120 354 c 1048
532 -60 m 0
 215 46 315 -25 185 25 c 16
 160 34 134 55 134 79 c 0
 134 83 135 88 137 92 c 8
 159 144 197 164 251 181 c 16
 267 186 283 189 298 189 c 0
 321 189 341 182 359 163 c 0
 366 155 370 147 370 139 c 0
 370 125 359 109 338 90 c 9
 440 39 l 25
 443 240 l 18
 443 262 440 280 440 301 c 0
 440 314 443 330 443 344 c 0
 443 386 415 435 366 435 c 0
 351 435 335 431 320 424 c 0
 281 408 258 390 258 358 c 0
 258 340 265 318 280 291 c 1032
EndSplineSet
LCarets2: 2 0 0
Ligature2: "Letter Conjunction-1" bha virAma la
EndChar

StartChar: mla
Encoding: 223 -1 223
Width: 683
VWidth: 0
Flags: W
AnchorPoint: "virama" 337 -140 basechar 0
AnchorPoint: "ukaara" 475 174 basechar 0
AnchorPoint: "repha" 263 557 basechar 0
AnchorPoint: "aakaara" 501 598 basechar 0
AnchorPoint: "iikaara" 501 598 basechar 0
AnchorPoint: "ekaara" 173 591 basechar 0
AnchorPoint: "bindu" 358 740 basechar 0
LayerCount: 2
Back
Fore
SplineSet
173 591 m 25
 202 532 l 17
 198 547 181 562 181 573 c 0
 181 580 192 584 200 584 c 0
 221 584 236 557 262 557 c 2
 263 557 l 9
 297 558 311 575 342 587 c 25
 310 568 292 559 261 539 c 0
 232 521 223 508 223 496 c 0
 223 475 253 458 253 426 c 0
 253 409 244 386 218 357 c 0
 190 326 186 327 166 308 c 17
 186 335 247 374 303 375 c 0
 308 375 313 375 318 375 c 0
 391 375 395 361 461 323 c 1024
564 -60 m 0
 247 46 319 -18 171 37 c 16
 146 46 120 66 120 90 c 0
 120 94 121 99 123 104 c 8
 146 160 183 185 240 207 c 16
 256 213 271 216 286 216 c 0
 318 216 364 191 364 154 c 0
 364 139 356 122 338 104 c 9
 473 39 l 25
 475 240 l 17
 475 399 l 2
 475 451 475 504 474 568 c 0
 474 583 490 586 501 598 c 1048
EndSplineSet
LCarets2: 2 0 0
Ligature2: "Letter Conjunction-1" ma virAma la
EndChar

StartChar: yla
Encoding: 224 -1 224
Width: 684
VWidth: 0
Flags: W
AnchorPoint: "virama" 337 -140 basechar 0
AnchorPoint: "ukaara" 475 174 basechar 0
AnchorPoint: "repha" 259 553 basechar 0
AnchorPoint: "aakaara" 502 598 basechar 0
AnchorPoint: "iikaara" 502 598 basechar 0
AnchorPoint: "ekaara" 169 587 basechar 0
AnchorPoint: "bindu" 358 740 basechar 0
LayerCount: 2
Back
Fore
SplineSet
169 587 m 25
 198 528 l 17
 194 543 176 558 176 569 c 0
 176 576 187 580 195 580 c 0
 216 580 232 553 258 553 c 2
 259 553 l 9
 293 554 306 572 337 584 c 25
 305 565 269 565 256 535 c 16
 253 527 251 520 251 514 c 0
 251 497 263 484 283 458 c 9
 236 449 197 462 164 434 c 16
 146 419 138 401 138 383 c 0
 138 370 142 357 151 344 c 0
 168 318 198 307 233 307 c 0
 239 307 244 307 250 308 c 8
 300 313 308 362 358 366 c 17
 366 366 l 2
 404 366 424 340 461 326 c 1032
564 -60 m 0
 247 46 319 -18 171 37 c 16
 146 46 120 67 120 91 c 0
 120 95 121 100 123 104 c 8
 145 156 183 176 237 193 c 16
 252 198 267 201 281 201 c 0
 304 201 326 193 345 175 c 0
 354 166 359 157 359 147 c 0
 359 134 350 119 332 102 c 9
 473 39 l 25
 475 240 l 18
 475 317 476 380 476 452 c 0
 476 488 476 525 475 568 c 0
 475 583 491 586 502 598 c 1048
EndSplineSet
LCarets2: 2 0 0
Ligature2: "Letter Conjunction-1" ya virAma la
EndChar

StartChar: vla
Encoding: 225 -1 225
Width: 581
VWidth: 0
Flags: W
AnchorPoint: "virama" 278 -161 basechar 0
AnchorPoint: "ukaara" 349 174 basechar 0
AnchorPoint: "ekaara" 196 593 basechar 0
AnchorPoint: "iikaara" 462 604 basechar 0
AnchorPoint: "aakaara" 462 604 basechar 0
AnchorPoint: "repha" 338 566 basechar 0
AnchorPoint: "bindu" 348 740 basechar 0
LayerCount: 2
Back
Fore
SplineSet
196 593 m 1049
338 535 m 16,13,14
 288 504 261 497 241 481 c 0,15,16
 209 456 201 435 201 399 c 24,17,18
 201 361 218 329 240 309 c 0,19,20
 273 279 299 264 333 246 c 1024
196 593 m 1049
439 -60 m 0,23,24
 281 -7 238 1 222 1 c 0,0,0
 216 1 213 -1 210 -1 c 0,0,0
 205 -1 197 2 168 15 c 0,11,12
 140 27 120 48 120 78 c 0,0,0
 120 122 140 155 178 172 c 16,7,8
 193 178 207 182 221 182 c 0,0,0
 244 182 267 173 286 154 c 0,5,6
 296 145 301 135 301 124 c 0,0,0
 301 110 293 95 276 78 c 9,3,4
 347 39 l 25,2,-1
 350 240 l 17,0,1
 350 299 l 2,0,0
 350 391 354 448 363 546 c 0,9,10
 367 584 423 582 462 604 c 25,7,8
 414 589 388 568 338 566 c 16,5,6
 337 566 336 566 335 566 c 0,0,0
 301 566 282 595 250 595 c 2,0,0
 243 595 l 9,3,4
 224 593 229 568 219 551 c 25,1,2
 196 593 l 1049,0,-1
EndSplineSet
LCarets2: 2 0 0
Ligature2: "Letter Conjunction-1" va virAma la
EndChar

StartChar: zla
Encoding: 226 -1 226
Width: 723
VWidth: 0
Flags: W
AnchorPoint: "virama" 349 -140 basechar 0
AnchorPoint: "ukaara" 487 174 basechar 0
AnchorPoint: "repha" 349 587 basechar 0
AnchorPoint: "aakaara" 604 595 basechar 0
AnchorPoint: "iikaara" 604 595 basechar 0
AnchorPoint: "ekaara" 228 562 basechar 0
AnchorPoint: "bindu" 357 740 basechar 0
LayerCount: 2
Back
Fore
SplineSet
228 438 m 0
 240 423 244 404 244 384 c 0
 244 343 225 298 212 285 c 1024
264 488 m 0
 212 445 210 406 120 395 c 1024
253 483 m 16
 217 487 203 505 203 523 c 0
 203 539 213 555 228 562 c 0
 249 573 310 587 364 587 c 0
 414 587 457 575 457 536 c 0
 457 526 454 515 448 501 c 1024
368 449 m 0
 429 458 556 566 604 595 c 1032
576 -60 m 0
 259 46 331 -18 183 37 c 16
 158 46 132 67 132 91 c 0
 132 95 133 100 135 104 c 8
 157 156 195 176 249 193 c 16
 264 198 278 200 292 200 c 0
 315 200 337 193 357 175 c 0
 367 166 374 158 374 147 c 0
 374 136 367 123 351 106 c 9
 485 39 l 25
 488 240 l 17
 488 260 l 2
 488 306 486 342 486 381 c 0
 486 404 487 429 489 458 c 8
 491 479 500 490 507 510 c 1048
EndSplineSet
LCarets2: 2 0 0
Ligature2: "Letter Conjunction-1" za virAma la
EndChar

StartChar: Sla
Encoding: 227 -1 227
Width: 658
VWidth: 0
Flags: W
AnchorPoint: "virama" 312 -140 basechar 0
AnchorPoint: "ukaara" 450 174 basechar 0
AnchorPoint: "repha" 210 557 basechar 0
AnchorPoint: "aakaara" 476 598 basechar 0
AnchorPoint: "iikaara" 476 598 basechar 0
AnchorPoint: "ekaara" 120 591 basechar 0
AnchorPoint: "bindu" 332 740 basechar 0
LayerCount: 2
Back
Fore
SplineSet
120 591 m 25
 149 532 l 17
 150 534 150 537 150 540 c 0
 150 548 148 556 148 563 c 0
 148 571 151 577 163 577 c 0
 194 577 191 557 208 557 c 2
 210 557 l 9
 243 560 258 575 289 587 c 25
 257 568 219 574 208 539 c 16
 197 505 190 476 190 447 c 0
 190 418 197 389 214 358 c 0
 233 324 266 317 303 317 c 0
 311 317 320 318 328 318 c 0
 374 320 436 321 436 366 c 0
 436 417 369 407 326 433 c 1048
539 -60 m 0
 222 46 315 -14 181 42 c 16
 154 53 132 74 132 100 c 0
 132 103 132 106 133 109 c 8
 142 153 170 178 212 193 c 16
 227 198 242 201 256 201 c 0
 279 201 301 193 320 175 c 0
 329 167 334 159 334 149 c 0
 334 137 326 122 308 104 c 9
 448 39 l 25
 450 240 l 17
 450 355 450 440 448 568 c 0
 448 583 465 586 476 598 c 1048
EndSplineSet
LCarets2: 2 0 0
Ligature2: "Letter Conjunction-1" Sa virAma la
EndChar

StartChar: sla
Encoding: 228 -1 228
Width: 723
VWidth: 0
Flags: W
AnchorPoint: "virama" 376 -140 basechar 0
AnchorPoint: "ukaara" 514 174 basechar 0
AnchorPoint: "repha" 316 564 basechar 0
AnchorPoint: "aakaara" 546 596 basechar 0
AnchorPoint: "iikaara" 546 596 basechar 0
AnchorPoint: "ekaara" 215 587 basechar 0
AnchorPoint: "bindu" 357 740 basechar 0
LayerCount: 2
Back
Fore
SplineSet
300 278 m 0
 261 294 212 315 212 349 c 0
 212 361 218 374 232 389 c 0
 246 403 275 403 309 404 c 1
 319 404 l 2
 384 404 399 385 491 321 c 1024
215 587 m 25
 244 528 l 17
 242 537 240 546 240 553 c 0
 240 569 247 580 266 580 c 0
 287 580 295 564 313 564 c 0
 314 564 315 564 316 564 c 8
 354 568 372 583 408 595 c 25
 386 582 390 575 352 560 c 0
 258 522 322 481 257 427 c 0
 233 407 170 386 135 386 c 0
 129 386 124 387 120 388 c 1024
604 -60 m 0
 287 46 358 -18 210 37 c 16
 185 46 159 67 159 91 c 0
 159 95 160 100 162 104 c 8
 184 156 222 176 276 193 c 16
 291 198 306 201 320 201 c 0
 343 201 364 193 384 175 c 0
 393 167 397 159 397 150 c 0
 397 138 389 123 373 106 c 9
 512 39 l 25
 515 240 l 17
 515 397 l 2
 515 446 515 495 516 553 c 0
 516 572 535 579 546 596 c 1048
EndSplineSet
LCarets2: 2 0 0
Ligature2: "Letter Conjunction-1" sa virAma la
EndChar

StartChar: hla
Encoding: 229 -1 229
Width: 722
VWidth: 0
Flags: W
AnchorPoint: "virama" 330 -104 basechar 0
AnchorPoint: "ukaara" 357 228 basechar 0
AnchorPoint: "repha" 362 559 basechar 0
AnchorPoint: "aakaara" 510 598 basechar 0
AnchorPoint: "iikaara" 510 598 basechar 0
AnchorPoint: "ekaara" 200 587 basechar 0
AnchorPoint: "bindu" 396 740 basechar 0
LayerCount: 2
Back
Fore
SplineSet
200 587 m 25
 238 535 l 25
 249 555 242 585 267 586 c 1
 272 586 l 2
 321 586 324 559 358 559 c 2
 362 559 l 9
 423 562 452 583 510 598 c 25
 442 562 406 540 337 506 c 24
 272 473 233 458 166 427 c 25
 200 413 219 412 254 391 c 0
 283 373 346 326 357 294 c 1
 333 330 322 359 322 381 c 0
 322 418 352 436 402 436 c 0
 548 436 472 372 521 334 c 24
 551 311 570 300 602 278 c 1048
357 294 m 25
 358 98 l 25
 270 134 l 17
 293 152 302 167 302 181 c 0
 302 191 297 201 288 211 c 0
 270 230 246 242 222 242 c 0
 208 242 193 238 180 229 c 8
 135 201 120 155 120 100 c 0
 120 74 140 56 166 49 c 0
 205 39 232 36 253 36 c 0
 279 36 297 40 326 40 c 0
 370 40 437 30 581 -18 c 1024
EndSplineSet
LCarets2: 2 0 0
Ligature2: "Letter Conjunction-1" ha virAma la
EndChar

StartChar: kSla
Encoding: 230 -1 230
Width: 728
VWidth: 0
Flags: W
AnchorPoint: "virama" 310 -140 basechar 0
AnchorPoint: "ukaara" 448 174 basechar 0
AnchorPoint: "repha" 342 550 basechar 0
AnchorPoint: "aakaara" 496 593 basechar 0
AnchorPoint: "iikaara" 496 593 basechar 0
AnchorPoint: "ekaara" 181 589 basechar 0
AnchorPoint: "bindu" 347 740 basechar 0
LayerCount: 2
Back
Fore
SplineSet
238 456 m 0
 239 422 211 393 211 359 c 0
 211 342 218 325 238 305 c 0
 257 286 281 281 309 281 c 0
 315 281 321 282 328 282 c 0
 335 282 343 283 351 283 c 2
 365 283 l 2
 401 283 436 284 436 317 c 8
 436 366 370 357 328 382 c 1048
181 589 m 25
 217 533 l 25
 226 553 218 583 240 586 c 17
 247 586 l 2
 284 586 302 550 341 550 c 2
 342 550 l 9
 405 552 436 576 496 593 c 25
 425 564 379 558 314 517 c 24
 231 466 196 421 120 359 c 25
 198 418 270 506 320 510 c 0
 325 510 330 511 335 511 c 0
 443 511 501 416 608 359 c 1032
538 -60 m 0
 376 -6 321 0 288 0 c 2
 262 -0 l 2
 244 0 224 2 179 20 c 0
 147 32 121 56 121 87 c 0
 121 91 122 96 123 101 c 8
 135 148 172 165 218 179 c 16
 233 183 247 186 261 186 c 0
 284 186 306 179 326 161 c 0
 336 152 342 142 342 131 c 0
 342 119 335 105 319 90 c 9
 446 39 l 25
 449 240 l 18
 449 295 450 334 450 380 c 0
 450 403 450 428 449 459 c 1024
EndSplineSet
LCarets2: 4 0 0 0 0
Ligature2: "Letter Conjunction-1" kSa virAma la
EndChar

StartChar: kva
Encoding: 231 -1 231
Width: 800
VWidth: 0
Flags: W
AnchorPoint: "virama" 355 -140 basechar 0
AnchorPoint: "repha" 395 550 basechar 0
AnchorPoint: "aakaara" 549 593 basechar 0
AnchorPoint: "iikaara" 549 593 basechar 0
AnchorPoint: "ekaara" 234 589 basechar 0
AnchorPoint: "bindu" 400 740 basechar 0
LayerCount: 2
Back
Fore
SplineSet
234 589 m 25
 270 533 l 25
 279 553 272 583 294 586 c 17
 301 586 l 2
 338 586 355 550 394 550 c 2
 395 550 l 9
 458 552 489 576 549 593 c 25
 478 564 429 563 367 517 c 24
 276 450 244 390 166 308 c 25
 247 387 324 506 374 510 c 1
 385 510 l 2
 495 510 549 384 654 308 c 1032
511 -124 m 24
 472 -95 411 -88 410 -50 c 0
 409 -6 409 27 409 57 c 0
 409 116 410 161 410 240 c 0
 410 295 411 354 411 414 c 0
 411 444 411 474 410 505 c 1024
400 290 m 16
 347 259 350 268 328 252 c 0
 294 227 250 200 250 150 c 0
 250 94 305 47 332 32 c 0
 373 9 362 11 398 -7 c 1024
EndSplineSet
Substitution2: "Contextual Form 0001-1" kva.0001
LCarets2: 2 0 0
Ligature2: "Letter Conjunction-1" ka virAma va
EndChar

StartChar: khva
Encoding: 232 -1 232
Width: 800
VWidth: 0
Flags: W
AnchorPoint: "virama" 366 -140 basechar 0
AnchorPoint: "repha" 415 530 basechar 0
AnchorPoint: "aakaara" 647 595 basechar 0
AnchorPoint: "iikaara" 647 595 basechar 0
AnchorPoint: "ekaara" 271 562 basechar 0
AnchorPoint: "bindu" 400 740 basechar 0
LayerCount: 2
Back
Fore
SplineSet
471 515 m 24
 449 493 427 485 415 458 c 16
 403 430 396 408 396 383 c 0
 396 373 397 363 399 352 c 8
 402 336 420 327 440 326 c 16
 441 326 442 326 443 326 c 0
 474 326 490 340 521 348 c 1032
271 438 m 0
 285 420 291 391 291 360 c 0
 291 313 278 263 266 251 c 1024
307 488 m 0
 255 445 253 406 163 395 c 1024
296 483 m 16
 260 487 246 505 246 523 c 0
 246 546 267 568 293 568 c 0
 326 568 354 530 415 530 c 0
 485 530 584 557 647 595 c 1032
647 -124 m 24
 608 -95 547 -88 546 -50 c 0
 546 -17 545 10 545 34 c 0
 545 106 547 151 547 240 c 1
 544 322 539 372 539 446 c 2
 539 478 l 10
 539 503 547 516 552 541 c 1048
532 274 m 16
 508 260 501 257 498 257 c 0
 497 257 497 258 496 258 c 0
 495 258 493 257 486 252 c 0
 451 226 398 203 398 147 c 0
 398 90 453 42 480 27 c 0
 521 4 498 11 534 -7 c 1024
EndSplineSet
Substitution2: "Contextual Form 0001-1" khva.0001
LCarets2: 2 0 0
Ligature2: "Letter Conjunction-1" kha virAma va
EndChar

StartChar: gva
Encoding: 233 -1 233
Width: 800
VWidth: 0
Flags: W
AnchorPoint: "virama" 360 -140 basechar 0
AnchorPoint: "repha" 415 530 basechar 0
AnchorPoint: "aakaara" 647 595 basechar 0
AnchorPoint: "iikaara" 647 595 basechar 0
AnchorPoint: "ekaara" 271 562 basechar 0
AnchorPoint: "bindu" 400 740 basechar 0
LayerCount: 2
Back
Fore
SplineSet
271 438 m 0
 285 420 291 391 291 360 c 0
 291 313 278 263 266 251 c 1024
307 488 m 0
 255 445 253 406 163 395 c 1024
296 483 m 16
 260 487 246 505 246 523 c 0
 246 546 267 568 293 568 c 0
 326 568 354 530 415 530 c 0
 485 530 584 557 647 595 c 1032
641 -124 m 24
 602 -95 541 -88 540 -50 c 0
 540 -17 539 10 539 34 c 0
 539 106 541 151 541 240 c 1
 540 308 538 354 538 411 c 0
 538 431 538 453 539 478 c 8
 540 503 547 516 552 541 c 1048
524 306 m 16
 471 275 480 284 458 268 c 0
 424 243 384 212 384 162 c 24
 384 105 431 51 458 36 c 0
 499 13 492 11 528 -7 c 1024
EndSplineSet
Substitution2: "Contextual Form 0001-1" gva.0001
Ligature2: "Letter Conjunction-1" ga virAma va
EndChar

StartChar: ghva
Encoding: 234 -1 234
Width: 800
VWidth: 0
Flags: W
AnchorPoint: "virama" 352 -140 basechar 0
AnchorPoint: "repha" 438 582 basechar 0
AnchorPoint: "aakaara" 586 591 basechar 0
AnchorPoint: "iikaara" 586 591 basechar 0
AnchorPoint: "ekaara" 176 573 basechar 0
AnchorPoint: "bindu" 400 740 basechar 0
LayerCount: 2
Back
Fore
SplineSet
176 573 m 25
 206 517 l 17
 202 534 185 550 185 562 c 0
 185 568 192 575 200 575 c 0
 217 575 229 544 250 544 c 2
 251 544 l 9
 280 545 274 563 316 578 c 9
 285 553 252 551 237 515 c 16
 227 491 224 471 224 451 c 0
 224 428 228 405 230 376 c 0
 232 357 257 349 280 349 c 2
 284 349 l 9
 316 350 346 353 361 382 c 24
 394 446 382 492 395 562 c 1040
548 557 m 24
 543 473 552 401 534 342 c 0
 527 320 501 305 474 305 c 0
 428 305 399 331 386 369 c 16
 386 371 385 389 385 416 c 0
 385 456 387 513 397 555 c 8
 401 573 422 571 438 582 c 1048
647 -124 m 24
 608 -95 547 -88 546 -50 c 0
 546 -17 545 10 545 34 c 0
 545 106 547 151 547 240 c 2
 548 569 l 9
 563 577 571 583 586 591 c 1048
532 274 m 16
 479 243 466 246 444 230 c 0
 411 206 390 187 390 151 c 0
 390 102 421 53 448 38 c 0
 489 15 498 11 534 -7 c 1024
EndSplineSet
Substitution2: "Contextual Form 0001-1" ghva.0001
Ligature2: "Letter Conjunction-1" gha virAma va
EndChar

StartChar: cva
Encoding: 235 -1 235
Width: 564
VWidth: 0
Flags: W
AnchorPoint: "virama" 244 -140 basechar 0
AnchorPoint: "repha" 320 566 basechar 0
AnchorPoint: "aakaara" 444 604 basechar 0
AnchorPoint: "iikaara" 444 604 basechar 0
AnchorPoint: "ekaara" 178 593 basechar 0
AnchorPoint: "bindu" 330 740 basechar 0
LayerCount: 2
Back
Fore
SplineSet
336 557 m 24
 307 525 294 504 262 474 c 24
 210 425 175 403 120 357 c 25
 167 347 196 351 240 332 c 24
 273 318 284 298 312 276 c 1048
435 -124 m 24
 396 -95 335 -88 334 -50 c 0
 333 -6 333 27 333 57 c 0
 333 116 334 161 334 240 c 0
 334 269 333 294 333 317 c 0
 333 399 336 455 345 546 c 0
 349 584 405 582 444 604 c 25
 396 589 372 568 320 566 c 16
 319 566 318 566 317 566 c 0
 286 566 272 595 242 595 c 2
 237 595 l 9
 212 592 215 568 201 551 c 25
 178 593 l 1049
321 246 m 16
 268 215 284 224 262 208 c 0
 228 183 189 168 189 125 c 0
 189 77 237 45 264 30 c 0
 305 7 286 11 322 -7 c 1024
EndSplineSet
Substitution2: "Contextual Form 0001-1" cva.0001
LCarets2: 2 0 0
Ligature2: "Letter Conjunction-1" ca virAma va
EndChar

StartChar: chva
Encoding: 236 -1 236
Width: 671
VWidth: 0
Flags: W
AnchorPoint: "virama" 367 -140 basechar 0
AnchorPoint: "repha" 332 582 basechar 0
AnchorPoint: "aakaara" 440 607 basechar 0
AnchorPoint: "iikaara" 440 607 basechar 0
AnchorPoint: "ekaara" 228 598 basechar 0
AnchorPoint: "bindu" 330 740 basechar 0
LayerCount: 2
Back
Fore
SplineSet
298 436 m 16
 264 450 247 474 212 474 c 2
 208 474 l 9
 168 472 120 466 120 425 c 0
 120 374 150 317 197 317 c 0
 200 317 202 318 205 318 c 8
 315 333 334 454 444 472 c 16
 448 473 453 473 457 473 c 0
 506 473 551 431 551 382 c 0
 551 380 551 378 551 376 c 8
 548 325 485 320 434 318 c 16
 433 318 432 318 431 318 c 0
 396 318 381 349 349 367 c 1032
426 -124 m 24
 387 -95 326 -88 325 -50 c 0
 325 -17 324 10 324 34 c 0
 324 106 326 151 326 240 c 1
 324 310 322 360 322 408 c 0
 322 450 324 492 329 546 c 0
 333 584 397 583 440 607 c 25
 398 597 376 584 332 582 c 17
 331 582 l 2
 312 582 301 601 285 601 c 0
 257 601 262 573 251 557 c 25
 228 598 l 1049
310 270 m 16
 257 239 258 248 236 232 c 0
 201 206 168 189 168 142 c 0
 168 95 200 51 226 36 c 0
 267 13 277 11 313 -7 c 1024
EndSplineSet
Substitution2: "Contextual Form 0001-1" chva.0001
Ligature2: "Letter Conjunction-1" cha virAma va
EndChar

StartChar: jva
Encoding: 237 -1 237
Width: 667
VWidth: 0
Flags: W
AnchorPoint: "virama" 242 -140 basechar 0
AnchorPoint: "repha" 320 544 basechar 0
AnchorPoint: "aakaara" 548 467 basechar 0
AnchorPoint: "iikaara" 514 591 basechar 0
AnchorPoint: "ekaara" 167 577 basechar 0
AnchorPoint: "bindu" 334 740 basechar 0
LayerCount: 2
Back
Fore
SplineSet
514 591 m 16
 464 587 430 588 430 554 c 0
 430 518 501 486 548 467 c 1024
293 481 m 24
 325 464 346 457 376 438 c 24
 422 409 445 389 489 357 c 1048
451 -124 m 24
 412 -95 351 -88 350 -50 c 0
 350 -17 349 10 349 34 c 0
 349 106 351 151 351 240 c 10
 351 294 l 17
 315 325 285 339 238 361 c 24
 195 381 166 386 120 402 c 25
 179 434 214 451 271 485 c 24
 338 525 372 550 437 591 c 17
 397 571 388 546 320 544 c 0
 318 544 316 544 314 544 c 0
 296 544 291 547 291 551 c 0
 291 555 296 560 296 564 c 0
 296 567 294 569 284 569 c 0
 263 569 251 561 251 546 c 0
 251 535 258 520 273 503 c 9
 167 577 l 1049
336 280 m 16
 283 249 300 262 278 246 c 0
 243 220 188 200 188 145 c 0
 188 89 245 43 272 28 c 0
 313 5 302 11 338 -7 c 1024
EndSplineSet
Substitution2: "Contextual Form 0001-1" jva.0001
LCarets2: 2 0 0
Ligature2: "Letter Conjunction-1" ja virAma va
EndChar

StartChar: jhva
Encoding: 238 -1 238
Width: 594
VWidth: 0
Flags: W
AnchorPoint: "virama" 283 -144 basechar 0
AnchorPoint: "repha" 254 564 basechar 0
AnchorPoint: "aakaara" 475 487 basechar 0
AnchorPoint: "ekaara" 158 589 basechar 0
AnchorPoint: "iikaara" 374 589 basechar 0
AnchorPoint: "bindu" 304 740 basechar 0
LayerCount: 2
Back
Fore
SplineSet
295 451 m 24
 320 445 336 445 358 434 c 24
 391 417 403 401 432 380 c 25
 417 402 394 402 394 438 c 0
 394 485 457 485 475 487 c 1032
379 -124 m 24
 340 -95 279 -88 278 -50 c 0
 278 -17 277 10 277 34 c 0
 277 106 279 151 279 240 c 9
 182 337 l 17
 209 322 247 293 267 293 c 0
 276 293 281 298 281 312 c 2
 281 388 l 2
 281 427 281 454 284 535 c 0
 285 570 339 568 374 589 c 25
 327 579 302 564 254 564 c 16
 233 564 228 590 210 590 c 0
 209 590 207 589 205 589 c 8
 183 584 190 563 180 546 c 25
 158 589 l 1049
266 229 m 16
 213 198 185 191 163 175 c 0
 129 150 120 141 120 114 c 24
 120 83 136 55 163 40 c 0
 204 17 230 11 266 -7 c 1024
EndSplineSet
Substitution2: "Contextual Form 0001-1" jhva.0001
Ligature2: "Letter Conjunction-1" jha virAma va
EndChar

